<svg width="112" height="48" viewBox="0 0 112 48" fill="none" xmlns="http://www.w3.org/2000/svg">
<g filter="url(#filter0_d)">
<path fill-rule="evenodd" clip-rule="evenodd" d="M12.8752 19.4622V27.5649C12.8752 28.9344 12.9625 29.9615 13.108 30.6177C13.2535 31.2739 13.5445 31.8445 13.981 32.2725C14.3593 32.6719 14.7957 32.9572 15.2904 33.1284C15.7851 33.2996 16.4544 33.4137 17.2401 33.4708V33.9272H4V33.4708C4.66928 33.4708 5.28036 33.3566 5.89144 33.1569C6.47342 32.9287 6.939 32.6719 7.28819 32.301C7.66648 31.873 7.95747 31.3024 8.13207 30.5606C8.30666 29.8188 8.39396 28.8203 8.39396 27.5364V12.5863C8.39396 11.7304 8.33576 10.8174 8.24846 9.87589C8.10297 8.6776 7.52098 7.79315 6.44432 7.19401C5.86234 6.88017 5.04757 6.70899 4 6.65193V6.19543H25.6788L26.2608 12.8146L25.8243 12.9287C25.4751 11.9016 25.155 11.1312 24.864 10.6177C24.1947 9.4194 23.2927 8.50642 22.0996 7.85021C21.4303 7.47931 20.6447 7.19401 19.7426 7.05135C18.8405 6.9087 17.6475 6.82311 16.0761 6.82311H12.8752V18.8631H13.7191C16.1925 18.8631 17.9675 18.321 19.1024 17.2653C19.5971 16.8088 19.9463 16.2668 20.2082 15.6391C20.4701 15.0114 20.6156 14.184 20.7029 13.1854L21.1684 13.214L21.052 25.5107H20.5865C20.441 24.1412 20.1791 23.0571 19.8008 22.3153C19.4225 21.5449 18.8696 20.9458 18.113 20.4893C17.5602 20.1469 16.8618 19.8902 16.047 19.7475C15.2031 19.5478 14.1556 19.4622 12.8752 19.4622ZM40.3447 6.19543V6.65193C39.559 6.68046 38.9189 6.79458 38.4242 6.96576C37.9295 7.13695 37.493 7.42225 37.1147 7.82168C36.5909 8.36377 36.2417 9.10556 36.1254 10.0756C36.0381 10.7889 36.009 11.6163 36.009 12.5578V27.5649C36.009 28.7061 36.0672 29.5906 36.1835 30.2468C36.2999 30.903 36.4745 31.4165 36.7364 31.816C37.0856 32.3581 37.5512 32.7575 38.1332 33.0428C38.6861 33.2996 39.4426 33.4708 40.4029 33.5278V33.9843H27.1337V33.5278C27.9194 33.4993 28.5887 33.3852 29.0834 33.1855C29.5781 32.9857 30.0146 32.729 30.3637 32.3295C30.8002 31.9016 31.0912 31.331 31.2658 30.6748C31.4113 30.0185 31.4986 28.9914 31.4986 27.5934V12.5863C31.4986 11.1883 31.4113 10.1612 31.2658 9.50499C31.1203 8.84879 30.8002 8.27817 30.3637 7.85021C29.9855 7.45078 29.549 7.16548 29.0543 6.99429C28.5596 6.82311 27.9194 6.70899 27.1337 6.68046V6.22397H40.3447V6.19543ZM105.294 6.19543L105.643 12.9287L105.177 12.9572C105.003 11.816 104.712 10.8745 104.275 10.1327C103.868 9.39087 103.257 8.73466 102.471 8.16405C101.831 7.67903 101.045 7.36519 100.172 7.16548C99.2994 6.96576 98.1063 6.88017 96.6514 6.88017H91.8791V19.1198H93.1304C94.4107 19.1198 95.3419 19.0342 95.9821 18.8631C96.6223 18.6919 97.1461 18.4066 97.5534 17.9786C97.9317 17.5792 98.2227 17.1227 98.4264 16.5806C98.601 16.0385 98.7756 15.2682 98.892 14.2126L99.3576 14.2411L99.2703 25.1113H98.8047C98.6883 24.0556 98.4846 23.2282 98.2518 22.572C98.019 21.9444 97.6698 21.4023 97.2334 20.9458C96.826 20.5178 96.2731 20.204 95.6038 19.9757C94.9345 19.776 94.0907 19.6619 93.0722 19.6619H91.8791V24.3124C91.8791 26.1669 91.9373 27.5078 92.0246 28.3638C92.1119 29.2197 92.3156 29.9044 92.5775 30.475C93.0431 31.4451 93.7706 32.1583 94.7308 32.6148C95.6911 33.0713 96.9715 33.2996 98.5719 33.2996C100.231 33.2996 101.627 33.0999 102.733 32.6719C103.839 32.2725 104.741 31.6163 105.468 30.7603C105.963 30.1612 106.37 29.505 106.691 28.7632C107.011 28.0214 107.273 27.0228 107.534 25.8245L108 25.8531L107.738 33.9272H83.0039V33.4708C83.7896 33.4422 84.4298 33.3281 84.9245 33.1569C85.4191 32.9857 85.8556 32.7004 86.2339 32.301C86.6704 31.873 86.9614 31.3024 87.1069 30.6462C87.2815 29.9615 87.3397 28.9344 87.3397 27.5649V12.5863C87.3397 11.1883 87.2524 10.1612 87.1069 9.50499C86.9614 8.82026 86.6413 8.27817 86.2339 7.85021C85.8556 7.45078 85.4191 7.16548 84.9245 6.99429C84.4298 6.82311 83.7896 6.70899 82.9748 6.68046V6.22397H105.294V6.19543Z" fill="#F7931A"/>
<path fill-rule="evenodd" clip-rule="evenodd" d="M61.9944 3C63.5657 3 65.0498 3.19971 66.5047 3.59914C65.7481 3.48502 64.9625 3.39943 64.1768 3.39943C56.4655 3.39943 50.2383 9.53352 50.2383 17.0656C50.2383 20.9173 51.8679 24.398 54.4868 26.8802C55.7381 26.8802 56.8729 26.8516 57.0184 26.8231C57.1348 26.7946 57.1348 26.7661 57.1639 26.6234C57.193 26.5093 57.1639 26.6234 57.1639 26.5093C57.1639 26.2525 57.0184 25.9672 56.9893 25.7389C56.902 25.368 56.8729 24.9401 56.9602 24.5692C57.1639 23.6562 58.7353 22.4579 59.4918 21.9158L61.1214 20.9458C61.1214 20.5178 60.8886 20.5178 60.9759 20.2325C61.0923 19.9187 61.2378 20.0899 61.2669 19.5478H61.4415C61.4415 19.9472 61.587 20.0613 61.7616 20.3181C61.6452 20.632 61.5288 20.5464 61.587 20.9743C61.7907 21.1455 62.1689 21.2596 62.4308 21.4308C62.6927 21.602 62.9546 21.7732 63.2165 21.9444L64.2932 22.8573C64.4387 22.9715 64.4969 23.0285 64.6424 23.1427C65.1952 23.6277 65.5735 23.913 65.719 24.6548C65.8936 25.5963 65.3989 26.1098 65.5153 26.8231C65.7772 26.9087 66.01 26.9087 66.2719 26.8231C66.3883 26.0813 66.3883 22.8003 66.4174 21.9729C66.4465 21.2026 66.592 19.0057 66.5047 18.321C66.4756 18.0071 66.301 17.6648 66.2428 17.3509C66.4174 17.2083 66.3592 17.2939 66.6211 17.2083C66.3883 15.9815 65.9227 16.01 66.592 15.582C66.592 12.9857 66.1846 13.7275 67.3777 12.3866C67.2613 12.1583 67.2322 11.9872 67.3777 11.7304L67.5232 11.5592C67.9597 12.0442 67.6687 12.0728 67.6687 12.4437C68.949 13.2996 68.3088 14.2411 68.4543 15.5535C68.7453 15.7817 68.658 15.4964 68.7162 15.8388C68.8035 16.2953 68.4834 16.7518 68.3961 17.2083L68.7744 17.2653C68.7162 17.6362 68.5707 17.9215 68.5125 18.2924C68.4543 18.6919 68.5125 19.1769 68.5125 19.5763C68.5416 20.632 68.5416 26.9087 68.7744 27.0799L69.6183 27.3081C69.7347 27.5934 69.6765 28.107 69.6183 28.4208C69.4437 28.535 69.1818 28.592 68.949 28.7347V29.8759C74.2741 27.9643 78.0861 22.9429 78.0861 17.0371C78.0861 16.495 78.057 15.9815 77.9988 15.4679C78.2607 16.6377 78.4062 17.8359 78.4062 19.0628C78.4062 27.9643 71.0442 35.1826 61.9653 35.1826C52.8864 35.1826 45.5243 27.9643 45.5243 19.0628C45.5534 10.2183 52.9155 3 61.9944 3Z" fill="#F7931A"/>
<path fill-rule="evenodd" clip-rule="evenodd" d="M4.29102 42.9144V39.6619H6.88083V40.0328H4.6984V40.9743H6.00786V41.3452H4.6984V42.8859H4.29102V42.9144ZM7.7247 42.9144V40.4037H8.13209V42.9144H7.7247ZM10.3145 41.4593H11.6822C11.8277 41.4593 11.915 41.4308 12.0023 41.3738C12.0605 41.3167 12.1187 41.2311 12.1187 41.117C12.1187 41.0029 12.0896 40.9173 12.0023 40.8602C11.9441 40.8031 11.8277 40.7746 11.6822 40.7746H10.3145V41.4593ZM10.3145 41.8302V42.9144H9.90713V40.4037H11.6531C11.915 40.4037 12.1187 40.4608 12.2642 40.5749C12.4097 40.689 12.4969 40.8602 12.4969 41.0884C12.4969 41.2596 12.4387 41.4308 12.3224 41.5449C12.206 41.6876 12.0605 41.7446 11.8568 41.7732L12.5551 42.8859H12.1478L11.4203 41.8017H10.3145V41.8302ZM13.9228 42.6006L14.1265 42.2582C14.3011 42.3723 14.5048 42.4579 14.7085 42.515C14.9122 42.572 15.1159 42.6006 15.2905 42.6006C15.5232 42.6006 15.6978 42.5435 15.8433 42.4579C15.9888 42.3723 16.047 42.2582 16.047 42.1156C16.047 41.9729 15.9888 41.8588 15.8433 41.8017C15.7269 41.7447 15.5232 41.6876 15.2323 41.6876C14.7667 41.6876 14.4466 41.6305 14.272 41.5164C14.0974 41.4023 14.0101 41.2596 14.0101 41.0314C14.0101 40.8031 14.0974 40.632 14.3011 40.5178C14.5048 40.3752 14.7376 40.3181 15.0577 40.3181C15.2905 40.3181 15.4942 40.3467 15.6978 40.4037C15.9015 40.4608 16.1052 40.5464 16.3089 40.6605L16.1052 40.9743C15.9597 40.8602 15.7851 40.7746 15.5814 40.7175C15.4069 40.6605 15.2323 40.632 15.0577 40.632C14.854 40.632 14.7085 40.6605 14.5921 40.7175C14.4757 40.7746 14.4175 40.8602 14.4175 40.9743C14.4175 41.0884 14.4757 41.174 14.5921 41.2026C14.7085 41.2596 14.9122 41.2596 15.2032 41.2596C15.6105 41.2596 15.9306 41.3167 16.1343 41.4593C16.338 41.602 16.4544 41.8017 16.4544 42.0585C16.4544 42.2867 16.338 42.4864 16.1343 42.6576C15.9306 42.8003 15.6396 42.8859 15.3196 42.8859C15.0577 42.8859 14.8249 42.8573 14.5921 42.7718C14.3593 42.8288 14.1265 42.7432 13.9228 42.6006ZM18.695 42.9144V40.7461H17.6184V40.4037H20.1791V40.7461H19.1024V42.9144H18.695ZM23.5837 42.9144V39.6619H23.9911V42.9144H23.5837ZM25.6206 42.6006L25.8243 42.2582C25.9989 42.3723 26.2026 42.4579 26.4063 42.515C26.61 42.572 26.8137 42.6006 26.9883 42.6006C27.2211 42.6006 27.3957 42.5435 27.5412 42.4579C27.6867 42.3723 27.7449 42.2582 27.7449 42.1156C27.7449 41.9729 27.6867 41.8588 27.5412 41.8017C27.4248 41.7447 27.2211 41.6876 26.9301 41.6876C26.4645 41.6876 26.1444 41.6305 25.9698 41.5164C25.7952 41.4023 25.7079 41.2596 25.7079 41.0314C25.7079 40.8031 25.7952 40.632 25.9989 40.5178C26.2026 40.3752 26.4354 40.3181 26.7555 40.3181C26.9883 40.3181 27.192 40.3467 27.3957 40.4037C27.5994 40.4608 27.803 40.5464 28.0067 40.6605L27.803 40.9743C27.6576 40.8602 27.483 40.7746 27.2793 40.7175C27.1047 40.6605 26.9301 40.632 26.7555 40.632C26.5518 40.632 26.4063 40.6605 26.2899 40.7175C26.1735 40.7746 26.1153 40.8602 26.1153 40.9743C26.1153 41.0884 26.1735 41.174 26.2899 41.2026C26.4063 41.2596 26.61 41.2596 26.901 41.2596C27.3084 41.2596 27.6285 41.3167 27.8321 41.4593C28.0358 41.602 28.1522 41.8017 28.1522 42.0585C28.1522 42.2867 28.0358 42.4864 27.8321 42.6576C27.6285 42.8003 27.3375 42.8859 27.0174 42.8859C26.7555 42.8859 26.5227 42.8573 26.2899 42.7718C26.0571 42.8288 25.8243 42.7432 25.6206 42.6006ZM29.7818 42.9144V40.4037H30.1892V42.5435H32.0806V42.9144H29.7818ZM33.8847 41.9444H34.8741L34.3794 40.9743L33.8847 41.9444ZM32.9536 42.9144L34.263 40.4037H34.5249L35.8344 42.9144H35.3979L35.0778 42.2867H33.7393L33.4192 42.9144H32.9536ZM37.1147 42.9144V40.4037H37.4348L38.4824 41.8588L39.53 40.4037H39.8501V42.9144H39.4427V41.117L38.4533 42.515L37.4639 41.117V42.9144H37.1147ZM41.6542 42.9144V40.4037H42.0616V42.9144H41.6542ZM46.5428 42.3153C46.3973 42.5435 46.1936 42.7147 45.9609 42.8288C45.7281 42.9429 45.4662 43 45.1461 43C44.7096 43 44.3313 42.8859 44.0403 42.6291C43.7493 42.3723 43.6038 42.0585 43.6038 41.6876C43.6038 41.3167 43.7493 40.9743 44.0403 40.7461C44.3313 40.4893 44.7096 40.3752 45.1461 40.3752C45.4371 40.3752 45.6699 40.4322 45.9027 40.5178C46.1354 40.632 46.31 40.7746 46.4555 40.9458L46.1355 41.174C46.0191 41.0314 45.9027 40.9173 45.7281 40.8317C45.5535 40.7461 45.3498 40.7175 45.1461 40.7175C44.826 40.7175 44.535 40.8031 44.3313 41.0029C44.1276 41.174 44.0112 41.4023 44.0112 41.6876C44.0112 41.9729 44.1276 42.2011 44.3313 42.3723C44.535 42.5435 44.826 42.6576 45.1461 42.6576C45.3789 42.6576 45.5826 42.6006 45.7572 42.515C45.9318 42.4294 46.0773 42.2867 46.2227 42.1156L46.5428 42.3153ZM52.8864 41.8873L53.2065 42.1156C53.061 42.4009 52.8573 42.6006 52.5954 42.7718C52.3335 42.9144 52.0426 43 51.6934 43C51.1987 43 50.7913 42.8288 50.4712 42.515C50.1511 42.2011 49.9765 41.8017 49.9765 41.2882C49.9765 40.8031 50.1511 40.3752 50.4712 40.0613C50.7913 39.7475 51.1987 39.5763 51.6934 39.5763C51.9844 39.5763 52.2753 39.6334 52.5372 39.776C52.7991 39.9187 53.0028 40.0899 53.1483 40.3466L52.7991 40.5749C52.6827 40.3752 52.5372 40.2325 52.3626 40.1184C52.159 40.0043 51.9553 39.9472 51.7225 39.9472C51.3442 39.9472 51.0532 40.0613 50.7913 40.3181C50.5585 40.5749 50.413 40.8887 50.413 41.2596C50.413 41.6305 50.5294 41.9444 50.7913 42.2011C51.0241 42.4579 51.3442 42.572 51.7225 42.572C51.9844 42.572 52.2171 42.515 52.4208 42.3723C52.5663 42.3153 52.7409 42.1441 52.8864 41.8873ZM55.1853 41.4593H56.5529C56.6984 41.4593 56.7857 41.4308 56.873 41.3738C56.9312 41.3167 56.9894 41.2311 56.9894 41.117C56.9894 41.0029 56.9603 40.9173 56.873 40.8602C56.8148 40.8031 56.6984 40.7746 56.5529 40.7746H55.1853V41.4593ZM55.1853 41.8302V42.9144H54.7779V40.4037H56.5238C56.7857 40.4037 56.9894 40.4608 57.1349 40.5749C57.2804 40.689 57.3677 40.8602 57.3677 41.0884C57.3677 41.2596 57.3095 41.4308 57.1931 41.5449C57.0767 41.6876 56.9312 41.7446 56.7275 41.7732L57.4259 42.8859H56.9894L56.2619 41.8017H55.1853V41.8302ZM59.6374 42.9144V41.6305L58.4734 40.4037H58.9972L59.8411 41.2882L60.685 40.4037H61.2088L60.0448 41.6305V42.9144H59.6374ZM62.9547 41.4593H64.4097C64.5551 41.4593 64.6424 41.4308 64.7297 41.3738C64.7879 41.3167 64.8461 41.2311 64.8461 41.117C64.8461 41.0029 64.817 40.9173 64.7297 40.8602C64.6715 40.8031 64.5551 40.7746 64.4388 40.7746H62.9547V41.4593ZM62.9547 41.8302V42.9144H62.5473V40.4037H64.4097C64.6715 40.4037 64.8752 40.4608 65.0207 40.5749C65.1662 40.689 65.2535 40.8602 65.2535 41.0884C65.2535 41.2882 65.1953 41.4593 65.0498 41.602C64.9043 41.7447 64.7006 41.8017 64.4679 41.8017H62.9547V41.8302ZM67.3196 42.9144V40.7461H66.2429V40.4037H68.8036V40.7461H67.7269V42.9144H67.3196ZM71.4516 42.6291C71.8008 42.6291 72.0627 42.5435 72.2955 42.3438C72.4992 42.1726 72.6156 41.9444 72.6156 41.6591C72.6156 41.3738 72.4992 41.1455 72.2955 40.9743C72.0918 40.8031 71.8008 40.689 71.4516 40.689C71.1024 40.689 70.8405 40.7746 70.6077 40.9743C70.4041 41.1455 70.2877 41.3738 70.2877 41.6591C70.2877 41.9444 70.4041 42.1726 70.6077 42.3438C70.8405 42.5435 71.1024 42.6291 71.4516 42.6291ZM71.4516 43C70.986 43 70.6077 42.8859 70.3168 42.6291C70.0258 42.3723 69.8803 42.0585 69.8803 41.6876C69.8803 41.3167 70.0258 41.0029 70.3168 40.7461C70.6077 40.4893 70.986 40.3752 71.4516 40.3752C71.9172 40.3752 72.2955 40.4893 72.5865 40.7461C72.8775 41.0029 73.023 41.3167 73.023 41.6876C73.023 42.0585 72.8775 42.4009 72.5865 42.6291C72.2955 42.8859 71.9172 43 71.4516 43ZM76.6895 42.9144V39.6619H79.2793V40.0328H77.0968V40.9743H78.4063V41.3452H77.0968V42.515H79.4248V42.8859H76.6895V42.9144ZM80.5014 42.9144L81.5781 41.6591L80.5305 40.4037H81.0252L81.84 41.3738L82.6548 40.4037H83.1494L82.0728 41.6305L83.1494 42.8859H82.6548L81.8109 41.9158L80.967 42.8859H80.5014V42.9144ZM87.136 42.3153C86.9905 42.5435 86.7868 42.7147 86.554 42.8288C86.3212 42.9429 86.0593 43 85.7393 43C85.3028 43 84.9245 42.8859 84.6335 42.6291C84.3425 42.3723 84.197 42.0585 84.197 41.6876C84.197 41.3167 84.3425 40.9743 84.6335 40.7461C84.9245 40.4893 85.3028 40.3752 85.7393 40.3752C86.0302 40.3752 86.263 40.4322 86.4958 40.5178C86.7286 40.632 86.9032 40.7746 87.0487 40.9458L86.7286 41.174C86.6122 41.0314 86.4958 40.9173 86.3212 40.8317C86.1466 40.7461 85.9429 40.7175 85.7393 40.7175C85.4192 40.7175 85.1282 40.8031 84.9245 41.0029C84.7208 41.174 84.6044 41.4023 84.6044 41.6876C84.6044 41.9729 84.7208 42.2011 84.9245 42.3723C85.1282 42.5435 85.4192 42.6576 85.7393 42.6576C85.972 42.6576 86.1757 42.6006 86.3503 42.515C86.5249 42.4294 86.6704 42.2867 86.8159 42.1156L87.136 42.3153ZM89.1147 41.7732V42.9429H88.7074V40.4322H89.1147V41.4023H90.9189V40.4322H91.3263V42.9429H90.9189V41.7732H89.1147ZM93.5378 41.9444H94.5272L94.0325 40.9743L93.5378 41.9444ZM92.6066 42.9144L93.9161 40.4037H94.178L95.4874 42.9144H95.0509L94.7309 42.2867H93.3923L93.0722 42.9144H92.6066ZM96.7678 42.9144V40.4037H96.9715L98.601 42.1726V40.4037H98.9793V42.9144H98.7756L97.1461 41.174V42.9144H96.7678ZM102.5 41.9444V41.5735H103.548V42.3438C103.402 42.572 103.199 42.7147 102.966 42.8288C102.733 42.9429 102.442 43 102.151 43C101.686 43 101.307 42.8859 100.987 42.6291C100.696 42.3723 100.551 42.0585 100.551 41.6876C100.551 41.3167 100.696 40.9743 101.016 40.7461C101.307 40.4893 101.715 40.3752 102.18 40.3752C102.471 40.3752 102.733 40.4322 102.966 40.5178C103.199 40.632 103.373 40.7746 103.548 40.9458L103.228 41.174C103.111 41.0314 102.966 40.9173 102.791 40.8602C102.617 40.7746 102.413 40.7461 102.18 40.7461C101.831 40.7461 101.54 40.8317 101.307 41.0314C101.074 41.2026 100.958 41.4308 100.958 41.7161C100.958 42.0014 101.074 42.2297 101.278 42.4009C101.511 42.572 101.773 42.6862 102.151 42.6862C102.384 42.6862 102.588 42.6576 102.762 42.572C102.937 42.4864 103.082 42.4009 103.14 42.2867V42.03H102.5V41.9444ZM105.207 42.9144V40.4037H107.593V40.7746H105.585V41.4023H106.894V41.7732H105.585V42.572H107.68V42.9429H105.207V42.9144Z" fill="#F7931A"/>
</g>
<defs>
<filter id="filter0_d" x="0" y="0" width="112" height="48" filterUnits="userSpaceOnUse" color-interpolation-filters="sRGB">
<feFlood flood-opacity="0" result="BackgroundImageFix"/>
<feColorMatrix in="SourceAlpha" type="matrix" values="0 0 0 0 0 0 0 0 0 0 0 0 0 0 0 0 0 0 127 0"/>
<feOffset dy="1"/>
<feGaussianBlur stdDeviation="2"/>
<feColorMatrix type="matrix" values="0 0 0 0 1 0 0 0 0 0.631373 0 0 0 0 0.0901961 0 0 0 0.21 0"/>
<feBlend mode="normal" in2="BackgroundImageFix" result="effect1_dropShadow"/>
<feBlend mode="normal" in="SourceGraphic" in2="effect1_dropShadow" result="shape"/>
</filter>
</defs>
</svg>
