<svg id="svg" xmlns="http://www.w3.org/2000/svg" xmlns:xlink="http://www.w3.org/1999/xlink" width="400" height="367.0886075949367" viewBox="0, 0, 400,367.0886075949367"><g id="svgg"><path id="path0" d="M210.287 7.348 C 210.653 7.754,211.029 8.010,211.122 7.917 C 211.321 7.718,210.274 6.612,209.887 6.612 C 209.740 6.612,209.920 6.943,210.287 7.348 M182.434 8.380 C 181.067 9.808,181.197 10.141,182.590 8.779 C 183.217 8.167,183.659 7.595,183.573 7.510 C 183.488 7.424,182.975 7.816,182.434 8.380 M177.594 13.223 C 177.013 13.829,176.644 14.325,176.774 14.325 C 177.040 14.325,178.880 12.546,178.880 12.288 C 178.880 11.959,178.634 12.138,177.594 13.223 M175.207 15.611 C 174.732 16.116,174.477 16.529,174.640 16.529 C 174.916 16.529,176.309 15.103,176.309 14.820 C 176.309 14.535,176.027 14.737,175.207 15.611 M361.433 15.270 C 361.433 15.385,361.680 15.727,361.983 16.030 C 362.581 16.628,362.656 16.539,362.311 15.641 C 362.102 15.095,361.433 14.812,361.433 15.270 M170.340 20.556 C 169.405 21.467,169.550 21.837,170.497 20.955 C 170.937 20.545,171.226 20.147,171.139 20.070 C 171.053 19.993,170.693 20.211,170.340 20.556 M167.191 23.555 C 166.721 24.134,166.560 24.522,166.831 24.418 C 167.327 24.228,168.381 22.789,168.161 22.602 C 168.097 22.547,167.660 22.976,167.191 23.555 M361.677 28.160 C 361.326 28.511,361.375 29.017,361.761 29.017 C 361.941 29.017,362.184 28.770,362.300 28.466 C 362.515 27.907,362.124 27.714,361.677 28.160 M157.025 33.792 C 156.659 34.197,156.443 34.527,156.544 34.527 C 156.646 34.527,157.110 34.197,157.576 33.792 C 158.042 33.388,158.258 33.058,158.056 33.058 C 157.855 33.058,157.390 33.388,157.025 33.792 M155.188 35.563 C 154.784 35.918,154.123 36.615,153.719 37.112 L 152.984 38.017 153.900 37.282 C 155.241 36.205,156.449 34.849,156.015 34.907 C 155.964 34.913,155.592 35.209,155.188 35.563 M245.835 42.718 C 246.282 43.183,246.716 43.515,246.799 43.455 C 247.013 43.301,245.677 41.873,245.319 41.873 C 245.155 41.873,245.388 42.254,245.835 42.718 M146.357 44.386 C 143.828 46.866,142.689 48.118,142.962 48.118 C 143.067 48.118,144.479 46.795,146.100 45.179 C 147.721 43.563,148.934 42.241,148.796 42.241 C 148.658 42.241,147.560 43.206,146.357 44.386 M140.496 50.245 C 139.724 50.833,136.866 53.994,137.106 53.994 C 137.374 53.994,141.047 50.375,141.047 50.110 C 141.047 49.891,140.920 49.922,140.496 50.245 M135.537 55.280 C 135.063 55.785,134.808 56.198,134.971 56.198 C 135.247 56.198,136.639 54.772,136.639 54.489 C 136.639 54.205,136.358 54.406,135.537 55.280 M197.585 55.952 C 198.520 56.983,198.722 57.110,198.703 56.657 C 198.697 56.506,198.242 56.065,197.693 55.677 L 196.694 54.972 197.585 55.952 M131.069 59.615 C 129.858 61.002,129.315 62.171,130.469 60.906 C 130.731 60.618,131.431 59.855,132.025 59.209 C 132.618 58.563,132.949 58.043,132.759 58.054 C 132.570 58.064,131.809 58.767,131.069 59.615 M202.802 61.247 C 203.486 62.118,203.912 62.531,204.776 63.160 C 205.180 63.453,204.856 62.999,204.058 62.150 C 202.583 60.582,201.884 60.080,202.802 61.247 M124.903 65.766 C 123.831 66.782,123.019 67.678,123.098 67.756 C 123.176 67.835,124.114 67.065,125.183 66.046 C 126.251 65.027,127.063 64.131,126.988 64.055 C 126.912 63.980,125.974 64.750,124.903 65.766 M115.568 75.165 C 114.989 75.663,114.607 76.162,114.720 76.275 C 114.832 76.387,115.364 76.038,115.903 75.499 C 117.172 74.230,116.932 73.991,115.568 75.165 M112.451 78.091 C 112.179 78.400,112.028 78.725,112.117 78.814 C 112.206 78.903,112.579 78.644,112.946 78.239 C 113.312 77.834,113.463 77.509,113.280 77.516 C 113.097 77.524,112.724 77.783,112.451 78.091 M108.663 82.027 C 107.721 83.074,107.012 83.993,107.087 84.069 C 107.264 84.246,110.560 80.717,110.560 80.350 C 110.560 79.932,110.506 79.980,108.663 82.027 M223.877 82.280 C 224.244 82.685,224.620 82.941,224.712 82.848 C 224.911 82.649,223.864 81.543,223.477 81.543 C 223.330 81.543,223.510 81.874,223.877 82.280 M225.161 83.270 C 225.161 83.694,226.203 84.673,226.408 84.442 C 226.478 84.362,226.226 83.979,225.848 83.590 C 225.470 83.202,225.161 83.057,225.161 83.270 M104.918 85.775 C 104.138 86.478,103.622 87.052,103.772 87.052 C 103.921 87.052,104.684 86.474,105.466 85.767 C 106.249 85.060,106.765 84.485,106.613 84.490 C 106.461 84.494,105.698 85.073,104.918 85.775 M98.126 92.416 C 97.853 92.725,97.703 93.050,97.792 93.139 C 97.881 93.228,98.254 92.970,98.621 92.564 C 98.987 92.159,99.138 91.834,98.955 91.841 C 98.772 91.849,98.399 92.108,98.126 92.416 M234.896 93.299 C 235.263 93.704,235.639 93.960,235.732 93.867 C 235.931 93.668,234.884 92.562,234.496 92.562 C 234.350 92.562,234.530 92.894,234.896 93.299 M93.164 97.529 C 92.384 98.232,91.888 98.805,92.062 98.804 C 92.236 98.804,93.007 98.225,93.776 97.519 C 94.545 96.813,95.041 96.239,94.878 96.244 C 94.715 96.248,93.944 96.827,93.164 97.529 M86.740 103.838 C 86.265 104.330,85.948 104.803,86.034 104.890 C 86.121 104.977,86.579 104.636,87.052 104.132 C 87.525 103.629,87.843 103.156,87.758 103.081 C 87.673 103.006,87.215 103.347,86.740 103.838 M147.475 104.683 C 146.686 105.491,146.140 106.152,146.262 106.152 C 146.505 106.152,149.128 103.598,149.128 103.361 C 149.128 103.050,148.863 103.261,147.475 104.683 M84.667 106.150 C 84.300 106.555,84.120 106.887,84.267 106.887 C 84.654 106.887,85.701 105.781,85.502 105.582 C 85.410 105.489,85.034 105.745,84.667 106.150 M248.300 106.702 C 248.774 107.206,249.242 107.538,249.341 107.439 C 249.520 107.260,247.994 105.785,247.630 105.785 C 247.525 105.785,247.826 106.198,248.300 106.702 M367.525 106.428 C 367.374 106.579,363.586 106.824,359.107 106.972 C 334.378 107.789,334.130 107.801,333.976 108.264 C 333.860 108.611,332.038 108.724,326.529 108.724 C 322.063 108.724,319.147 108.866,319.008 109.091 C 318.883 109.293,317.799 109.458,316.599 109.458 C 315.389 109.458,314.417 109.622,314.417 109.826 C 314.417 110.028,314.163 110.193,313.853 110.193 C 312.422 110.193,308.540 113.464,308.540 114.670 C 308.540 115.036,308.375 115.335,308.173 115.335 C 307.971 115.335,307.805 115.671,307.805 116.081 C 307.805 116.492,307.557 116.923,307.254 117.039 C 306.944 117.158,306.703 117.705,306.703 118.291 C 306.703 118.864,306.538 119.434,306.336 119.559 C 306.134 119.684,305.969 120.593,305.969 121.579 C 305.969 122.566,306.134 123.475,306.336 123.600 C 306.538 123.724,306.703 124.318,306.703 124.918 C 306.703 125.550,306.936 126.099,307.254 126.222 C 307.557 126.338,307.805 126.663,307.805 126.945 C 307.805 127.226,307.971 127.456,308.173 127.456 C 308.375 127.456,308.540 127.663,308.540 127.916 C 308.541 128.424,310.128 130.395,310.537 130.395 C 310.846 130.395,311.846 131.355,311.846 131.651 C 311.846 132.343,318.346 138.843,319.037 138.843 C 319.306 138.843,320.294 139.830,320.294 140.100 C 320.294 140.413,321.677 141.990,324.421 144.807 L 326.895 147.347 325.755 148.766 C 325.128 149.546,324.387 150.272,324.107 150.379 C 323.828 150.486,323.595 150.786,323.590 151.044 C 323.584 151.303,323.010 151.928,322.314 152.433 C 321.618 152.938,321.044 153.558,321.039 153.811 C 321.033 154.063,320.813 154.270,320.549 154.270 C 320.037 154.270,315.165 159.100,315.131 159.641 C 315.120 159.818,314.107 160.872,312.881 161.983 C 311.654 163.095,309.638 165.024,308.401 166.272 C 307.164 167.519,304.952 169.751,303.485 171.231 C 302.019 172.710,299.870 174.837,298.710 175.957 C 295.922 178.650,293.480 181.393,293.480 181.832 C 293.480 182.027,293.316 182.185,293.116 182.185 C 292.469 182.185,287.242 186.873,287.238 187.456 C 287.237 187.627,286.740 188.231,286.134 188.797 C 285.528 189.363,285.032 190.008,285.032 190.230 C 285.032 190.452,284.851 190.634,284.629 190.634 C 284.407 190.634,283.762 191.129,283.196 191.736 C 282.629 192.342,282.041 192.837,281.888 192.837 C 281.323 192.837,276.584 198.091,276.584 198.717 C 276.584 198.918,276.415 199.082,276.209 199.082 C 276.002 199.082,275.025 199.867,274.036 200.826 C 273.048 201.786,271.688 203.069,271.014 203.677 C 269.475 205.066,268.136 206.689,268.136 207.165 C 268.136 207.366,267.959 207.530,267.743 207.530 C 267.235 207.530,253.811 220.960,253.811 221.469 C 253.811 221.681,253.607 221.855,253.357 221.855 C 252.831 221.855,245.363 229.414,245.363 229.946 C 245.363 230.143,245.177 230.303,244.949 230.303 C 244.432 230.303,236.915 237.851,236.915 238.370 C 236.915 238.580,236.746 238.751,236.540 238.751 C 236.026 238.751,231.038 243.708,231.038 244.218 C 231.038 244.444,230.865 244.628,230.654 244.628 C 230.442 244.628,229.864 245.034,229.368 245.530 C 228.872 246.026,228.466 246.604,228.466 246.815 C 228.466 247.026,228.295 247.199,228.087 247.199 C 227.878 247.199,226.555 248.351,225.148 249.758 C 223.741 251.165,222.590 252.487,222.590 252.696 C 222.590 252.905,222.417 253.076,222.206 253.076 C 221.994 253.076,221.416 253.482,220.920 253.978 C 220.424 254.474,220.018 255.052,220.018 255.263 C 220.018 255.475,219.847 255.647,219.637 255.647 C 219.153 255.647,211.570 263.248,211.570 263.733 C 211.570 263.933,211.399 264.096,211.190 264.096 C 210.981 264.096,209.659 265.247,208.252 266.654 C 206.845 268.061,205.693 269.383,205.693 269.592 C 205.693 269.801,205.520 269.972,205.309 269.972 C 205.098 269.972,204.520 270.378,204.024 270.874 C 203.528 271.370,203.122 271.948,203.122 272.160 C 203.122 272.371,202.946 272.544,202.731 272.544 C 202.516 272.544,201.445 273.453,200.351 274.564 C 198.120 276.831,197.379 277.022,196.322 275.605 C 195.409 274.380,195.041 274.012,193.816 273.099 C 193.278 272.698,192.837 272.231,192.837 272.063 C 192.837 271.702,191.894 270.707,191.552 270.707 C 191.422 270.707,191.080 270.471,190.791 270.182 C 190.502 269.894,190.266 269.551,190.266 269.421 C 190.266 269.080,189.271 268.136,188.910 268.136 C 188.742 268.136,188.276 267.695,187.874 267.157 C 186.961 265.932,186.593 265.564,185.368 264.651 C 184.830 264.250,184.389 263.783,184.389 263.615 C 184.389 263.254,183.445 262.259,183.104 262.259 C 182.802 262.259,181.818 261.282,181.818 260.983 C 181.818 260.603,180.041 258.953,179.631 258.953 C 179.420 258.953,179.247 258.744,179.247 258.489 C 179.247 258.234,178.823 257.707,178.305 257.319 C 176.770 256.166,175.941 255.394,175.941 255.119 C 175.941 254.795,174.974 253.811,174.656 253.811 C 174.354 253.811,173.370 252.834,173.370 252.535 C 173.370 252.155,171.592 250.505,171.183 250.505 C 170.972 250.505,170.799 250.332,170.799 250.121 C 170.799 249.711,169.149 247.934,168.769 247.934 C 168.470 247.934,167.493 246.950,167.493 246.648 C 167.493 246.307,166.498 245.363,166.137 245.363 C 165.969 245.363,165.513 244.939,165.124 244.421 C 163.838 242.709,163.188 242.057,162.767 242.057 C 162.538 242.057,162.351 241.884,162.351 241.673 C 162.351 241.263,160.701 239.486,160.321 239.486 C 160.022 239.486,159.045 238.502,159.045 238.200 C 159.045 237.894,158.066 236.915,157.759 236.915 C 157.458 236.915,156.474 235.938,156.474 235.639 C 156.474 235.258,154.696 233.609,154.287 233.609 C 154.075 233.609,153.903 233.436,153.903 233.225 C 153.903 232.815,152.253 231.038,151.873 231.038 C 151.579 231.038,150.597 230.056,150.597 229.762 C 150.597 229.382,148.819 227.732,148.410 227.732 C 148.199 227.732,148.026 227.559,148.026 227.348 C 148.026 226.849,146.337 225.161,145.839 225.161 C 145.627 225.161,145.455 224.988,145.455 224.777 C 145.455 224.367,143.805 222.590,143.425 222.590 C 143.131 222.590,142.149 221.608,142.149 221.313 C 142.149 220.933,140.371 219.284,139.962 219.284 C 139.750 219.284,139.578 219.107,139.578 218.890 C 139.578 218.382,138.643 217.447,138.135 217.447 C 137.918 217.447,137.741 217.282,137.741 217.080 C 137.741 216.878,137.476 216.713,137.151 216.713 C 136.827 216.713,136.236 216.299,135.839 215.794 C 135.442 215.289,134.798 214.876,134.409 214.876 C 134.019 214.876,133.701 214.711,133.701 214.509 C 133.701 214.307,133.122 214.141,132.415 214.141 C 131.708 214.141,131.129 213.991,131.129 213.807 C 131.129 213.513,127.866 213.048,125.803 213.048 C 123.741 213.048,120.478 213.513,120.478 213.807 C 120.478 213.991,119.899 214.141,119.192 214.141 C 118.485 214.141,117.906 214.307,117.906 214.509 C 117.906 214.711,117.617 214.881,117.264 214.888 C 116.470 214.902,115.335 215.729,115.335 216.294 C 115.335 216.524,115.046 216.713,114.692 216.713 C 113.941 216.714,112.029 218.260,112.029 218.867 C 112.029 219.096,111.857 219.284,111.645 219.284 C 111.147 219.284,109.458 220.972,109.458 221.471 C 109.458 221.682,109.287 221.855,109.078 221.855 C 108.583 221.855,103.581 226.856,103.581 227.352 C 103.581 227.561,103.408 227.732,103.197 227.732 C 102.699 227.732,101.010 229.420,101.010 229.919 C 101.010 230.130,100.839 230.303,100.631 230.303 C 100.137 230.303,97.704 232.735,97.704 233.229 C 97.704 233.438,97.532 233.609,97.320 233.609 C 96.822 233.609,95.133 235.297,95.133 235.796 C 95.133 236.007,94.960 236.180,94.749 236.180 C 94.251 236.180,92.562 237.869,92.562 238.367 C 92.562 238.578,92.391 238.751,92.182 238.751 C 91.689 238.751,89.256 241.184,89.256 241.677 C 89.256 241.886,89.083 242.057,88.872 242.057 C 88.374 242.057,86.685 243.745,86.685 244.244 C 86.685 244.455,86.512 244.628,86.301 244.628 C 85.802 244.628,84.114 246.317,84.114 246.815 C 84.114 247.026,83.943 247.199,83.734 247.199 C 83.240 247.199,80.808 249.632,80.808 250.125 C 80.808 250.334,80.635 250.505,80.424 250.505 C 79.925 250.505,78.237 252.194,78.237 252.692 C 78.237 252.903,78.064 253.076,77.853 253.076 C 77.354 253.076,75.666 254.765,75.666 255.263 C 75.666 255.475,75.495 255.647,75.286 255.647 C 74.792 255.647,72.360 258.080,72.360 258.574 C 72.360 258.782,72.187 258.953,71.976 258.953 C 71.477 258.953,69.789 260.642,69.789 261.140 C 69.789 261.352,69.616 261.524,69.405 261.524 C 68.906 261.524,67.218 263.213,67.218 263.711 C 67.218 263.923,67.047 264.096,66.838 264.096 C 66.344 264.096,63.912 266.528,63.912 267.022 C 63.912 267.230,63.739 267.401,63.528 267.401 C 63.029 267.401,61.341 269.090,61.341 269.588 C 61.341 269.800,61.168 269.972,60.957 269.972 C 60.547 269.972,58.770 271.622,58.770 272.002 C 58.770 272.296,57.788 273.278,57.493 273.278 C 57.113 273.278,55.464 275.056,55.464 275.465 C 55.464 275.677,55.291 275.849,55.080 275.849 C 54.581 275.849,52.893 277.538,52.893 278.037 C 52.893 278.248,52.720 278.421,52.509 278.421 C 52.099 278.421,50.321 280.070,50.321 280.450 C 50.321 280.761,49.332 281.726,49.013 281.726 C 48.689 281.726,47.017 283.649,47.016 284.022 C 47.016 284.174,46.843 284.298,46.632 284.298 C 46.133 284.298,44.444 285.986,44.444 286.485 C 44.444 286.696,44.274 286.869,44.065 286.869 C 43.571 286.869,41.139 289.301,41.139 289.795 C 41.139 290.004,40.966 290.174,40.755 290.174 C 40.256 290.174,38.567 291.863,38.567 292.362 C 38.567 292.573,38.395 292.746,38.183 292.746 C 37.685 292.746,35.996 294.434,35.996 294.933 C 35.996 295.144,35.790 295.320,35.537 295.325 C 35.285 295.329,34.582 295.928,33.976 296.657 C 33.370 297.385,32.420 298.400,31.864 298.913 C 31.309 299.426,30.854 300.149,30.854 300.520 C 30.854 300.890,30.689 301.194,30.487 301.194 C 30.285 301.194,30.119 301.524,30.119 301.928 C 30.119 302.332,29.956 302.663,29.757 302.663 C 28.236 302.663,27.545 315.804,28.904 318.885 C 29.246 319.660,29.660 320.294,29.823 320.294 C 29.986 320.294,30.119 320.609,30.119 320.995 C 30.119 321.380,30.863 322.461,31.772 323.396 C 32.681 324.332,33.425 325.233,33.425 325.400 C 33.425 325.679,34.888 327.085,38.337 330.119 C 39.084 330.776,40.019 331.313,40.416 331.313 C 40.814 331.313,41.139 331.561,41.139 331.864 C 41.139 332.170,41.465 332.415,41.873 332.415 C 42.277 332.415,42.608 332.580,42.608 332.782 C 42.608 332.984,43.021 333.150,43.526 333.150 C 44.031 333.150,44.444 333.315,44.444 333.517 C 44.444 333.719,45.013 333.884,45.708 333.884 C 46.403 333.884,47.074 334.050,47.199 334.252 C 47.500 334.738,54.362 334.738,54.362 334.252 C 54.362 334.050,55.106 333.884,56.015 333.884 C 56.924 333.884,57.668 333.719,57.668 333.517 C 57.668 333.315,58.081 333.150,58.586 333.150 C 59.091 333.150,59.504 332.984,59.504 332.782 C 59.504 332.580,59.840 332.415,60.250 332.415 C 60.661 332.415,61.092 332.167,61.208 331.864 C 61.324 331.561,61.664 331.313,61.963 331.313 C 62.262 331.313,63.394 330.404,64.479 329.293 C 65.563 328.182,66.553 327.273,66.677 327.273 C 66.948 327.273,67.952 326.301,67.952 326.038 C 67.952 325.687,72.370 321.396,72.732 321.396 C 72.931 321.396,73.095 321.223,73.095 321.012 C 73.095 320.513,74.783 318.825,75.282 318.825 C 75.493 318.825,75.666 318.686,75.666 318.517 C 75.666 318.068,80.724 312.948,81.168 312.948 C 81.374 312.948,81.543 312.791,81.543 312.600 C 81.543 312.137,89.167 304.500,89.629 304.500 C 89.828 304.500,89.991 304.343,89.991 304.152 C 89.991 303.689,97.615 296.051,98.077 296.051 C 98.276 296.051,98.439 295.892,98.439 295.697 C 98.439 295.234,103.499 290.174,103.961 290.174 C 104.156 290.174,104.316 290.017,104.316 289.824 C 104.316 289.468,125.476 268.136,125.828 268.136 C 126.183 268.136,127.824 269.935,127.824 270.323 C 127.824 270.534,127.996 270.707,128.208 270.707 C 128.706 270.707,130.395 272.396,130.395 272.894 C 130.395 273.105,130.519 273.278,130.670 273.279 C 131.044 273.279,132.966 274.951,132.966 275.276 C 132.966 275.594,133.931 276.584,134.242 276.584 C 134.537 276.584,136.272 278.319,136.272 278.614 C 136.272 278.913,137.256 279.890,137.557 279.890 C 137.864 279.890,138.843 280.869,138.843 281.175 C 138.843 281.494,139.827 282.461,140.151 282.461 C 140.476 282.461,142.148 284.383,142.148 284.757 C 142.149 284.908,142.322 285.032,142.533 285.032 C 142.942 285.032,144.720 286.682,144.720 287.062 C 144.720 287.361,145.704 288.338,146.006 288.338 C 146.312 288.338,147.291 289.317,147.291 289.624 C 147.291 289.930,148.270 290.909,148.577 290.909 C 148.883 290.909,149.862 291.888,149.862 292.195 C 149.862 292.496,150.839 293.480,151.138 293.480 C 151.433 293.480,153.168 295.215,153.168 295.510 C 153.168 295.809,154.152 296.786,154.454 296.786 C 154.760 296.786,155.739 297.765,155.739 298.072 C 155.739 298.378,156.718 299.357,157.025 299.357 C 157.331 299.357,158.310 300.336,158.310 300.643 C 158.310 300.944,159.287 301.928,159.586 301.928 C 159.881 301.928,161.616 303.663,161.616 303.958 C 161.616 304.257,162.600 305.234,162.902 305.234 C 163.208 305.234,164.187 306.213,164.187 306.520 C 164.187 306.826,165.166 307.805,165.473 307.805 C 165.774 307.805,166.758 308.782,166.758 309.081 C 166.758 309.376,168.493 311.111,168.788 311.111 C 169.087 311.111,170.064 312.095,170.064 312.397 C 170.064 312.703,171.043 313.682,171.350 313.682 C 171.656 313.682,172.635 314.661,172.635 314.968 C 172.635 315.274,173.615 316.253,173.921 316.253 C 174.222 316.253,175.207 317.230,175.207 317.529 C 175.207 317.825,176.941 319.559,177.236 319.559 C 177.536 319.559,178.512 320.543,178.512 320.845 C 178.512 321.151,179.492 322.130,179.798 322.130 C 180.104 322.130,181.084 323.110,181.084 323.416 C 181.084 323.722,182.063 324.702,182.369 324.702 C 182.711 324.702,183.655 325.697,183.655 326.057 C 183.655 326.226,184.095 326.692,184.634 327.094 C 185.172 327.495,185.821 328.030,186.077 328.283 C 186.332 328.535,186.783 328.742,187.079 328.742 C 187.374 328.742,187.712 328.990,187.828 329.293 C 187.944 329.596,188.375 329.844,188.786 329.844 C 189.196 329.844,189.532 330.009,189.532 330.211 C 189.532 330.413,189.945 330.579,190.450 330.579 C 190.955 330.579,191.368 330.744,191.368 330.946 C 191.368 331.148,192.277 331.313,193.388 331.313 C 194.500 331.313,195.409 331.478,195.409 331.680 C 195.409 331.887,196.442 332.048,197.774 332.048 C 199.076 332.048,200.242 331.882,200.367 331.680 C 200.492 331.478,201.331 331.313,202.231 331.313 C 203.130 331.313,204.154 331.162,204.505 330.977 C 204.855 330.792,205.762 330.371,206.520 330.041 C 207.277 329.712,207.897 329.285,207.897 329.092 C 207.897 328.899,208.233 328.742,208.644 328.742 C 209.412 328.742,250.872 287.643,250.872 286.881 C 250.872 286.672,251.043 286.501,251.252 286.501 C 251.749 286.501,259.320 278.930,259.320 278.433 C 259.320 278.224,259.492 278.053,259.701 278.053 C 260.197 278.053,267.769 270.481,267.769 269.985 C 267.769 269.776,267.940 269.605,268.149 269.605 C 268.358 269.605,270.259 267.875,272.373 265.761 C 274.487 263.647,276.217 261.746,276.217 261.537 C 276.217 261.328,276.375 261.157,276.569 261.157 C 277.052 261.157,290.542 247.702,290.542 247.219 C 290.542 247.006,290.713 246.832,290.922 246.832 C 291.418 246.832,298.990 239.260,298.990 238.764 C 298.990 238.555,299.146 238.384,299.336 238.384 C 299.788 238.384,307.438 230.733,307.438 230.282 C 307.438 230.091,307.594 229.936,307.784 229.936 C 308.236 229.936,315.886 222.285,315.886 221.834 C 315.886 221.643,316.046 221.488,316.241 221.488 C 316.703 221.488,321.763 216.428,321.763 215.965 C 321.763 215.770,321.936 215.611,322.147 215.611 C 322.646 215.611,324.334 213.922,324.334 213.423 C 324.334 213.212,324.494 213.039,324.689 213.039 C 325.152 213.039,330.211 207.980,330.211 207.517 C 330.211 207.322,330.384 207.163,330.595 207.163 C 331.094 207.163,332.782 205.474,332.782 204.975 C 332.782 204.764,332.942 204.591,333.137 204.591 C 333.600 204.591,338.659 199.532,338.659 199.069 C 338.659 198.874,338.832 198.714,339.043 198.714 C 339.542 198.714,341.230 197.026,341.230 196.527 C 341.230 196.316,341.369 196.143,341.539 196.143 C 341.987 196.143,347.107 191.085,347.107 190.641 C 347.107 190.435,347.280 190.266,347.491 190.266 C 347.990 190.266,349.679 188.578,349.679 188.079 C 349.679 187.868,349.827 187.695,350.009 187.695 C 350.440 187.695,352.984 185.150,352.984 184.720 C 352.984 184.538,353.157 184.389,353.368 184.389 C 353.867 184.389,355.556 182.701,355.556 182.202 C 355.556 181.991,355.728 181.818,355.940 181.818 C 356.349 181.818,358.127 180.169,358.127 179.788 C 358.127 179.664,358.375 179.314,358.678 179.011 C 359.102 178.587,359.229 178.572,359.231 178.945 C 359.234 179.500,363.722 184.389,364.228 184.389 C 364.412 184.389,365.056 184.964,365.660 185.667 C 366.264 186.370,366.894 186.948,367.060 186.953 C 367.420 186.962,368.411 187.911,368.411 188.246 C 368.411 188.627,369.426 189.532,369.854 189.532 C 370.071 189.532,370.248 189.770,370.248 190.061 C 370.248 190.748,374.915 195.409,375.603 195.409 C 375.887 195.409,376.860 196.403,376.860 196.694 C 376.860 197.206,377.950 197.980,378.670 197.980 C 379.088 197.980,379.431 198.145,379.431 198.347 C 379.431 198.549,379.744 198.714,380.126 198.714 C 380.508 198.714,380.916 198.962,381.033 199.265 C 381.199 199.698,381.947 199.816,384.516 199.816 C 386.977 199.816,387.902 199.680,388.246 199.265 C 388.498 198.962,388.972 198.714,389.301 198.714 C 389.820 198.714,390.453 198.285,392.546 196.518 C 392.790 196.312,393.087 196.143,393.206 196.143 C 393.521 196.143,395.033 194.580,395.339 193.938 C 395.483 193.636,395.917 192.893,396.304 192.287 C 396.691 191.680,397.020 190.813,397.035 190.358 C 397.049 189.904,397.227 189.532,397.429 189.532 C 397.645 189.532,397.796 188.238,397.796 186.385 C 397.796 184.655,397.981 182.894,398.206 182.473 C 398.596 181.744,398.892 176.021,399.608 155.372 C 400.033 143.104,400.069 113.360,399.660 112.284 C 399.239 111.179,395.678 107.622,394.991 107.622 C 394.716 107.622,394.490 107.456,394.490 107.254 C 394.490 107.052,394.077 106.887,393.572 106.887 C 393.067 106.887,392.654 106.722,392.654 106.520 C 392.654 106.087,367.955 105.996,367.525 106.428 M77.919 112.801 C 77.057 113.629,76.414 114.370,76.491 114.446 C 76.567 114.523,77.356 113.845,78.244 112.940 C 80.267 110.879,80.027 110.776,77.919 112.801 M75.466 115.097 C 74.629 116.017,74.515 116.571,75.319 115.805 C 75.790 115.356,76.102 114.918,76.013 114.831 C 75.923 114.745,75.677 114.865,75.466 115.097 M73.278 117.331 C 71.552 119.199,71.231 119.807,72.725 118.378 C 73.616 117.526,74.270 116.763,74.179 116.683 C 74.087 116.602,73.682 116.893,73.278 117.331 M264.830 117.165 C 264.830 117.653,266.341 117.999,267.632 117.806 C 268.550 117.670,268.510 117.642,267.331 117.594 C 266.585 117.564,265.873 117.374,265.748 117.172 C 265.457 116.700,264.830 116.695,264.830 117.165 M39.840 120.866 C 39.555 121.328,40.352 122.009,40.955 121.818 C 41.157 121.754,41.322 121.470,41.322 121.187 C 41.322 120.537,40.195 120.292,39.840 120.866 M67.463 123.110 C 66.895 123.721,66.495 124.285,66.575 124.365 C 66.655 124.445,67.192 124.018,67.769 123.416 C 68.345 122.814,68.744 122.249,68.656 122.161 C 68.567 122.072,68.030 122.499,67.463 123.110 M63.496 127.151 C 62.762 127.925,62.275 128.558,62.414 128.558 C 62.761 128.558,65.185 126.029,64.989 125.871 C 64.901 125.801,64.230 126.377,63.496 127.151 M59.098 131.453 C 57.711 132.967,57.381 133.670,58.560 132.599 C 59.434 131.805,60.471 130.381,60.160 130.402 C 60.102 130.406,59.624 130.879,59.098 131.453 M52.371 138.395 L 51.666 139.394 52.647 138.503 C 53.677 137.568,53.804 137.366,53.352 137.385 C 53.200 137.392,52.759 137.846,52.371 138.395 M105.757 146.421 C 104.908 147.343,104.905 147.365,105.686 146.888 C 106.137 146.613,106.586 146.178,106.685 145.922 C 106.948 145.236,106.752 145.342,105.757 146.421 M1.664 147.766 C 1.507 148.128,1.482 148.528,1.608 148.654 C 1.981 149.027,2.281 148.503,2.110 147.779 C 1.957 147.137,1.938 147.137,1.664 147.766 M92.922 159.236 C 92.034 160.141,91.418 160.882,91.553 160.882 C 91.883 160.882,94.833 157.888,94.667 157.722 C 94.595 157.650,93.810 158.331,92.922 159.236 M1.036 164.389 C 0.926 164.581,0.730 165.234,0.601 165.840 L 0.365 166.942 0.940 165.910 C 1.257 165.342,1.453 164.689,1.376 164.459 C 1.295 164.217,1.152 164.188,1.036 164.389 M356.749 209.192 C 356.295 209.678,355.923 210.246,355.923 210.455 C 355.923 210.664,355.750 210.836,355.539 210.836 C 355.328 210.836,354.749 211.241,354.253 211.737 C 353.757 212.233,353.352 212.812,353.352 213.023 C 353.352 213.234,353.181 213.407,352.972 213.407 C 352.763 213.407,351.440 214.558,350.033 215.965 C 348.626 217.372,347.475 218.695,347.475 218.904 C 347.475 219.113,347.302 219.284,347.091 219.284 C 346.880 219.284,346.301 219.689,345.805 220.185 C 345.309 220.681,344.904 221.260,344.904 221.471 C 344.904 221.682,344.733 221.855,344.524 221.855 C 344.315 221.855,342.992 223.006,341.585 224.413 C 340.178 225.821,339.027 227.143,339.027 227.352 C 339.027 227.561,338.854 227.732,338.643 227.732 C 338.431 227.732,337.853 228.138,337.357 228.633 C 336.861 229.129,336.455 229.708,336.455 229.919 C 336.455 230.130,336.284 230.303,336.075 230.303 C 335.867 230.303,334.544 231.454,333.137 232.862 C 331.730 234.269,330.579 235.591,330.579 235.800 C 330.579 236.009,330.406 236.180,330.195 236.180 C 329.983 236.180,329.405 236.586,328.909 237.082 C 328.413 237.577,328.007 238.156,328.007 238.367 C 328.007 238.578,327.837 238.751,327.628 238.751 C 327.419 238.751,326.675 239.324,325.975 240.024 C 325.275 240.725,324.702 241.469,324.702 241.677 C 324.702 241.886,324.529 242.057,324.318 242.057 C 324.106 242.057,323.528 242.463,323.032 242.959 C 322.536 243.454,322.130 244.033,322.130 244.244 C 322.130 244.455,321.958 244.628,321.746 244.628 C 321.535 244.628,320.957 245.034,320.461 245.530 C 319.965 246.026,319.559 246.604,319.559 246.815 C 319.559 247.026,319.410 247.199,319.229 247.199 C 319.047 247.199,318.303 247.794,317.576 248.522 C 316.848 249.249,316.253 249.993,316.253 250.174 C 316.253 250.356,316.081 250.505,315.869 250.505 C 315.658 250.505,315.080 250.911,314.584 251.407 C 314.088 251.902,313.682 252.481,313.682 252.692 C 313.682 252.903,313.558 253.076,313.407 253.077 C 312.937 253.077,311.111 254.791,311.111 255.231 C 311.111 255.460,310.962 255.647,310.781 255.647 C 310.350 255.647,307.805 258.192,307.805 258.623 C 307.805 258.804,307.633 258.953,307.421 258.953 C 307.210 258.953,306.632 259.359,306.136 259.855 C 305.640 260.351,305.234 260.929,305.234 261.140 C 305.234 261.352,305.110 261.525,304.959 261.525 C 304.807 261.525,304.229 261.916,303.673 262.394 L 302.663 263.263 302.663 315.286 L 302.663 367.309 333.333 367.309 L 364.004 367.309 364.004 289.519 L 364.004 211.729 362.928 211.093 C 362.336 210.744,361.386 209.964,360.817 209.361 C 359.523 207.991,357.936 207.925,356.749 209.192 M77.708 218.744 C 77.315 219.041,77.160 219.284,77.362 219.284 C 77.564 219.284,78.050 219.041,78.442 218.744 C 78.834 218.448,78.990 218.205,78.788 218.205 C 78.586 218.205,78.100 218.448,77.708 218.744 M75.023 219.170 C 75.376 219.262,75.955 219.262,76.309 219.170 C 76.662 219.077,76.373 219.002,75.666 219.002 C 74.959 219.002,74.669 219.077,75.023 219.170 M46.281 220.386 L 45.363 220.680 46.351 220.716 C 46.895 220.737,47.442 220.588,47.567 220.386 C 47.825 219.968,47.585 219.968,46.281 220.386 M29.568 221.120 C 29.440 221.328,29.741 221.488,30.260 221.488 C 30.765 221.488,31.280 221.322,31.405 221.120 C 31.533 220.913,31.232 220.753,30.714 220.753 C 30.209 220.753,29.693 220.918,29.568 221.120 M280.085 287.217 C 279.954 287.429,279.482 287.603,279.037 287.603 C 278.589 287.603,277.902 288.039,277.498 288.580 C 277.096 289.118,274.536 291.758,271.809 294.447 C 269.082 297.136,266.726 299.465,266.573 299.622 C 261.662 304.691,224.985 341.266,224.302 341.777 C 223.764 342.178,223.324 342.645,223.324 342.813 C 223.324 343.284,222.333 344.168,221.789 344.181 C 221.125 344.197,220.018 345.075,220.018 345.587 C 220.018 345.817,219.770 346.006,219.467 346.006 C 218.990 346.006,218.916 347.434,218.916 356.657 L 218.916 367.309 250.139 367.309 L 281.362 367.309 281.269 327.211 C 281.177 287.764,281.112 285.556,280.085 287.217 M135.996 308.783 C 135.634 308.929,135.537 315.146,135.537 338.139 L 135.537 367.309 166.758 367.309 L 197.980 367.309 197.980 360.177 C 197.980 351.233,198.258 351.882,194.425 351.882 C 192.151 351.882,191.168 351.734,190.765 351.331 C 190.462 351.028,189.574 350.781,188.793 350.781 C 188.011 350.781,187.269 350.615,187.144 350.413 C 187.019 350.211,186.441 350.046,185.859 350.046 C 185.276 350.046,184.698 349.881,184.573 349.679 C 184.448 349.477,184.013 349.311,183.607 349.311 C 183.200 349.311,182.641 349.084,182.363 348.807 C 182.086 348.529,181.106 348.080,180.186 347.808 C 179.265 347.537,178.512 347.185,178.512 347.027 C 178.512 346.869,178.138 346.740,177.681 346.740 C 177.224 346.740,176.540 346.328,176.161 345.822 C 175.781 345.317,175.258 344.904,174.997 344.904 C 174.645 344.904,166.583 337.378,164.096 334.729 C 163.944 334.567,158.037 328.609,150.969 321.488 C 138.135 308.557,137.627 308.125,135.996 308.783 M111.975 309.965 C 111.904 310.164,110.895 311.315,109.734 312.521 C 108.572 313.728,107.622 314.825,107.622 314.959 C 107.622 315.252,106.656 316.253,106.373 316.253 C 106.057 316.253,98.671 323.694,98.078 324.610 C 97.783 325.064,97.331 325.436,97.072 325.436 C 96.814 325.436,96.602 325.645,96.602 325.900 C 96.602 326.155,96.156 326.692,95.610 327.094 C 93.881 328.365,92.058 329.991,91.101 331.116 C 90.591 331.715,89.720 332.642,89.164 333.176 C 88.609 333.710,88.154 334.246,88.154 334.367 C 88.154 334.724,86.314 336.455,85.934 336.455 C 85.741 336.455,85.583 336.675,85.583 336.944 C 85.583 337.213,85.180 337.649,84.687 337.913 C 83.564 338.514,79.706 342.473,79.706 343.025 C 79.706 343.250,79.489 343.434,79.224 343.434 C 78.960 343.434,78.388 343.765,77.954 344.169 C 77.521 344.573,76.994 344.904,76.783 344.904 C 76.573 344.904,76.400 345.081,76.400 345.297 C 76.400 345.806,75.466 346.740,74.957 346.740 C 74.741 346.740,74.564 346.905,74.564 347.107 C 74.564 347.309,74.233 347.475,73.829 347.475 C 73.425 347.475,73.094 347.599,73.092 347.750 C 73.090 348.067,71.006 349.311,70.478 349.311 C 70.284 349.311,69.771 349.642,69.337 350.046 C 68.903 350.450,68.249 350.781,67.883 350.781 C 67.517 350.781,67.218 351.028,67.218 351.331 C 67.218 351.716,66.830 351.882,65.932 351.882 C 65.225 351.882,64.646 352.048,64.646 352.250 C 64.646 352.452,64.233 352.617,63.728 352.617 C 63.223 352.617,62.810 352.782,62.810 352.984 C 62.810 353.186,62.252 353.352,61.569 353.352 C 60.887 353.352,60.123 353.600,59.871 353.903 C 59.569 354.267,58.747 354.454,57.439 354.454 C 56.353 354.454,55.464 354.619,55.464 354.821 C 55.464 355.023,54.885 355.188,54.178 355.188 L 52.893 355.188 52.893 361.249 L 52.893 367.309 84.116 367.309 L 115.340 367.309 115.246 338.567 L 115.152 309.826 113.627 309.714 C 112.789 309.653,112.045 309.766,111.975 309.965 " stroke="none" fill="#f45434" fill-rule="evenodd"></path><path id="path1" d="M334.862 0.415 C 334.490 0.631,333.796 0.733,333.319 0.642 C 332.819 0.546,332.483 0.644,332.525 0.872 C 332.566 1.090,332.226 1.325,331.771 1.394 C 331.316 1.464,330.343 2.088,329.608 2.781 C 328.873 3.473,328.125 4.040,327.944 4.040 C 327.764 4.040,327.526 4.278,327.414 4.568 C 327.298 4.872,326.965 5.001,326.631 4.873 C 326.286 4.741,326.144 4.802,326.282 5.025 C 326.409 5.230,326.105 5.753,325.607 6.186 C 325.109 6.620,324.702 7.140,324.702 7.344 C 324.702 7.547,324.454 7.713,324.151 7.713 C 323.848 7.713,323.600 7.961,323.600 8.264 C 323.600 8.571,323.273 8.815,322.865 8.815 C 322.457 8.815,322.130 9.060,322.130 9.366 C 322.130 9.669,321.882 9.917,321.579 9.917 C 321.276 9.917,321.028 10.094,321.028 10.311 C 321.028 10.878,315.794 16.148,315.444 15.932 C 315.283 15.832,315.152 16.014,315.152 16.335 C 315.152 16.657,314.780 17.069,314.325 17.252 C 313.871 17.435,313.648 17.595,313.831 17.608 C 314.249 17.637,307.602 24.242,307.155 24.242 C 306.975 24.242,306.609 24.650,306.343 25.148 C 306.076 25.646,305.718 25.967,305.546 25.861 C 305.375 25.755,305.234 25.864,305.234 26.102 C 305.234 26.650,293.330 38.567,292.783 38.567 C 292.560 38.567,292.420 38.774,292.470 39.027 C 292.521 39.279,292.355 39.444,292.103 39.394 C 291.850 39.343,291.644 39.513,291.644 39.770 C 291.644 40.315,281.316 50.549,280.903 50.413 C 280.750 50.363,280.624 50.493,280.624 50.702 C 280.624 51.187,272.288 59.504,271.803 59.504 C 271.604 59.504,271.442 59.701,271.442 59.942 C 271.442 60.184,270.524 61.269,269.403 62.355 L 267.365 64.330 265.914 62.835 C 265.116 62.013,264.463 61.175,264.463 60.973 C 264.463 60.771,264.339 60.626,264.187 60.650 C 263.465 60.764,262.972 60.571,263.169 60.252 C 263.454 59.791,261.972 58.309,261.511 58.594 C 261.316 58.714,261.157 58.484,261.157 58.081 C 261.157 57.664,260.830 57.246,260.395 57.108 C 259.975 56.975,259.713 56.786,259.811 56.687 C 260.000 56.499,258.418 54.903,257.167 54.019 C 256.757 53.730,256.521 53.333,256.642 53.136 C 256.763 52.940,256.693 52.884,256.485 53.013 C 256.277 53.141,255.665 52.836,255.124 52.335 C 254.583 51.833,254.355 51.421,254.618 51.418 C 254.972 51.414,254.958 51.324,254.563 51.075 C 254.270 50.889,253.898 50.819,253.737 50.918 C 253.468 51.084,253.294 50.536,253.400 49.862 C 253.424 49.711,253.244 49.628,253.001 49.679 C 252.758 49.729,252.551 49.561,252.542 49.305 C 252.533 49.050,252.069 48.541,251.512 48.176 C 250.955 47.810,250.611 47.400,250.747 47.263 C 250.883 47.127,250.738 47.016,250.425 47.016 C 250.111 47.016,249.584 46.602,249.253 46.097 C 248.922 45.592,248.474 45.179,248.256 45.179 C 247.781 45.179,245.730 43.043,245.730 42.547 C 245.730 42.355,245.565 42.299,245.363 42.424 C 245.161 42.549,244.995 42.301,244.995 41.873 C 244.995 41.445,244.849 41.186,244.670 41.297 C 244.491 41.407,244.140 41.252,243.890 40.951 C 243.640 40.650,243.580 40.402,243.757 40.399 C 243.933 40.396,243.682 40.189,243.200 39.939 C 242.718 39.690,242.349 39.359,242.381 39.203 C 242.456 38.840,241.569 37.872,241.307 38.030 C 240.953 38.242,237.833 35.096,237.833 34.527 C 237.833 34.224,237.544 33.999,237.190 34.027 C 236.837 34.055,236.547 33.860,236.547 33.593 C 236.547 33.326,236.205 32.999,235.786 32.866 C 235.367 32.733,235.106 32.412,235.206 32.152 C 235.306 31.892,234.978 31.493,234.477 31.265 C 233.977 31.037,233.669 30.686,233.793 30.485 C 233.918 30.284,233.669 30.119,233.242 30.119 C 232.813 30.119,232.566 29.953,232.692 29.749 C 232.818 29.546,232.663 29.281,232.349 29.160 C 232.034 29.039,231.884 28.767,232.015 28.555 C 232.149 28.337,232.078 28.278,231.851 28.418 C 231.449 28.666,229.936 27.327,229.936 26.723 C 229.936 26.547,229.812 26.466,229.660 26.543 C 229.509 26.620,228.757 26.051,227.991 25.279 C 227.224 24.507,226.709 23.875,226.846 23.875 C 226.984 23.875,226.659 23.531,226.125 23.111 C 225.591 22.691,225.250 22.191,225.368 22.000 C 225.486 21.809,225.446 21.677,225.280 21.706 C 224.534 21.835,224.035 21.640,224.244 21.301 C 224.370 21.098,224.215 20.833,223.901 20.712 C 223.586 20.591,223.436 20.319,223.567 20.107 C 223.698 19.895,223.631 19.829,223.418 19.960 C 222.982 20.230,220.655 18.218,221.002 17.871 C 221.125 17.749,220.929 17.534,220.566 17.395 C 220.203 17.256,219.353 16.605,218.677 15.948 C 217.436 14.743,217.060 14.059,217.906 14.546 C 218.173 14.699,218.237 14.670,218.059 14.476 C 217.891 14.292,217.565 14.141,217.336 14.141 C 217.106 14.141,216.733 13.770,216.507 13.317 C 216.281 12.864,215.998 12.591,215.879 12.710 C 215.759 12.830,215.445 12.581,215.180 12.157 C 214.916 11.733,214.566 11.387,214.404 11.387 C 214.241 11.387,213.695 10.973,213.190 10.468 C 212.685 9.963,212.360 9.550,212.468 9.550 C 212.576 9.550,212.382 9.219,212.036 8.815 C 211.690 8.411,211.280 8.081,211.126 8.081 C 210.627 8.081,209.398 6.858,209.588 6.550 C 209.689 6.387,209.488 6.362,209.142 6.495 C 208.733 6.651,208.599 6.595,208.761 6.333 C 208.900 6.108,208.683 5.826,208.270 5.695 C 207.863 5.566,207.530 5.306,207.530 5.118 C 207.530 4.929,207.199 4.775,206.795 4.775 C 206.391 4.775,206.102 4.572,206.152 4.325 C 206.203 4.077,205.831 3.815,205.326 3.743 C 204.821 3.670,204.251 3.460,204.059 3.275 C 203.867 3.090,203.247 2.938,202.681 2.938 C 202.116 2.938,201.653 2.790,201.653 2.609 C 201.653 2.149,193.231 2.092,192.681 2.548 C 192.437 2.751,191.683 2.964,191.006 3.020 C 190.330 3.076,189.366 3.494,188.866 3.949 C 188.365 4.403,187.743 4.775,187.484 4.775 C 187.225 4.775,186.753 5.035,186.436 5.352 C 186.118 5.670,185.859 5.848,185.859 5.749 C 185.859 5.650,184.578 6.877,183.012 8.476 C 181.446 10.075,179.959 11.384,179.706 11.385 C 179.454 11.386,179.288 11.515,179.339 11.672 C 179.478 12.104,176.787 14.681,176.498 14.392 C 176.360 14.254,176.302 14.334,176.370 14.569 C 176.437 14.803,175.253 16.231,173.737 17.740 C 172.222 19.250,170.593 20.917,170.118 21.446 C 169.642 21.974,169.012 22.406,168.718 22.406 C 168.425 22.406,168.272 22.548,168.379 22.722 C 168.615 23.102,166.552 25.015,166.241 24.705 C 166.122 24.585,166.024 24.702,166.024 24.964 C 166.024 25.565,162.735 28.869,162.272 28.733 C 162.083 28.677,162.018 28.776,162.127 28.953 C 162.236 29.130,161.918 29.628,161.420 30.062 C 160.922 30.495,160.510 30.726,160.506 30.576 C 160.501 30.426,160.233 30.840,159.909 31.497 C 159.585 32.153,159.132 32.691,158.903 32.691 C 158.673 32.691,158.174 33.104,157.795 33.609 C 157.416 34.114,156.853 34.527,156.545 34.527 C 156.236 34.527,156.081 34.624,156.199 34.742 C 156.493 35.036,153.735 37.833,153.150 37.833 C 152.890 37.833,152.775 37.930,152.893 38.048 C 153.199 38.353,151.665 40.037,151.082 40.037 C 150.815 40.037,150.597 40.220,150.597 40.444 C 150.597 40.907,142.896 48.639,142.860 48.212 C 142.847 48.059,142.687 48.306,142.505 48.760 C 142.322 49.215,141.909 49.587,141.588 49.587 C 141.266 49.587,141.086 49.720,141.187 49.883 C 141.288 50.047,140.970 50.481,140.481 50.848 C 139.992 51.215,139.681 51.660,139.790 51.837 C 139.899 52.013,139.797 52.158,139.563 52.158 C 139.329 52.158,138.680 52.648,138.120 53.247 C 137.561 53.846,136.999 54.232,136.871 54.104 C 136.744 53.976,136.639 54.040,136.639 54.244 C 136.639 54.775,135.345 56.198,134.863 56.198 C 134.636 56.198,134.562 56.468,134.694 56.813 C 134.871 57.273,134.780 57.370,134.334 57.199 C 133.893 57.030,133.798 57.126,133.967 57.566 C 134.138 58.013,134.041 58.103,133.581 57.927 C 133.243 57.797,132.966 57.855,132.966 58.056 C 132.966 58.400,129.932 61.786,128.427 63.122 C 128.052 63.456,126.784 64.679,125.610 65.840 C 124.436 67.002,123.296 67.952,123.078 67.952 C 122.860 67.952,122.723 68.159,122.773 68.411 C 122.824 68.664,122.658 68.829,122.406 68.779 C 122.153 68.728,121.947 68.935,121.947 69.238 C 121.947 69.541,121.689 69.789,121.374 69.789 C 121.059 69.789,120.891 69.934,121.001 70.112 C 121.261 70.533,119.385 72.409,118.964 72.149 C 118.786 72.039,118.641 72.207,118.641 72.522 C 118.641 72.837,118.383 73.095,118.068 73.095 C 117.753 73.095,117.598 73.260,117.723 73.462 C 117.848 73.664,117.692 73.829,117.377 73.829 C 117.062 73.829,116.846 73.959,116.896 74.119 C 117.016 74.497,115.115 76.400,114.617 76.400 C 114.406 76.400,114.275 76.607,114.325 76.860 C 114.376 77.112,114.210 77.277,113.958 77.227 C 113.705 77.176,113.499 77.312,113.499 77.529 C 113.499 78.027,112.568 78.972,112.077 78.972 C 111.873 78.972,111.587 79.162,111.443 79.396 C 111.269 79.677,111.355 79.725,111.697 79.539 C 111.981 79.385,111.428 80.003,110.468 80.912 C 109.509 81.821,108.724 82.748,108.724 82.972 C 108.724 83.196,108.562 83.379,108.364 83.379 C 108.166 83.379,107.115 84.283,106.027 85.389 C 104.939 86.494,103.944 87.293,103.815 87.164 C 103.687 87.035,103.581 87.194,103.581 87.517 C 103.581 87.840,103.248 88.210,102.841 88.340 C 102.434 88.469,102.165 88.687,102.242 88.824 C 102.437 89.169,100.769 90.729,100.496 90.457 C 100.375 90.335,100.275 90.501,100.275 90.826 C 100.275 91.151,100.085 91.535,99.851 91.679 C 99.571 91.852,99.528 91.778,99.725 91.460 C 99.921 91.142,99.878 91.068,99.598 91.241 C 99.364 91.385,99.174 91.671,99.174 91.875 C 99.174 92.339,98.240 93.297,97.787 93.297 C 97.602 93.297,97.152 93.627,96.786 94.031 C 96.420 94.435,96.241 94.766,96.388 94.766 C 96.535 94.766,96.407 95.014,96.104 95.317 C 95.801 95.620,95.381 95.868,95.171 95.868 C 94.961 95.868,94.887 96.122,95.006 96.434 C 95.126 96.745,95.063 96.952,94.867 96.893 C 94.671 96.834,94.011 97.317,93.401 97.967 C 92.791 98.616,92.187 99.043,92.059 98.916 C 91.932 98.788,91.827 98.950,91.827 99.274 C 91.827 99.599,91.637 99.983,91.403 100.127 C 91.123 100.300,91.080 100.226,91.276 99.908 C 91.473 99.590,91.430 99.516,91.149 99.689 C 90.916 99.834,90.725 100.119,90.725 100.323 C 90.725 100.851,89.756 101.755,89.484 101.482 C 89.359 101.357,89.256 101.519,89.256 101.842 C 89.256 102.165,88.913 102.539,88.494 102.672 C 88.075 102.805,87.817 102.999,87.921 103.103 C 88.180 103.362,86.453 105.051,85.928 105.051 C 85.695 105.051,85.594 105.283,85.703 105.567 C 85.828 105.893,85.469 106.298,84.732 106.661 C 84.089 106.978,83.693 107.241,83.853 107.246 C 84.012 107.251,83.930 107.485,83.669 107.767 C 83.409 108.049,83.089 108.215,82.959 108.136 C 82.828 108.058,82.623 108.251,82.502 108.565 C 82.381 108.880,82.157 109.062,82.004 108.969 C 81.726 108.800,81.013 109.401,80.879 109.917 C 80.732 110.488,79.389 111.591,79.127 111.356 C 78.977 111.221,78.964 111.304,79.100 111.541 C 79.396 112.058,78.323 113.228,77.831 112.924 C 77.640 112.806,77.514 112.846,77.552 113.012 C 77.685 113.612,77.045 114.601,76.523 114.601 C 76.230 114.601,76.073 114.736,76.175 114.901 C 76.277 115.066,76.019 115.438,75.601 115.727 C 74.725 116.334,74.418 116.643,72.914 118.434 C 72.310 119.154,71.598 119.743,71.332 119.743 C 71.065 119.743,70.950 119.908,71.074 120.110 C 71.199 120.312,70.961 120.478,70.545 120.478 C 70.129 120.478,69.789 120.717,69.789 121.010 C 69.789 121.303,69.500 121.711,69.146 121.917 C 68.792 122.123,68.622 122.297,68.766 122.303 C 69.168 122.320,66.928 124.518,66.508 124.518 C 66.307 124.518,65.950 124.875,65.716 125.312 C 65.169 126.335,62.384 129.153,62.105 128.967 C 61.988 128.888,61.687 129.219,61.438 129.701 C 61.158 130.242,60.973 130.367,60.954 130.028 C 60.937 129.713,60.737 129.871,60.489 130.395 C 59.934 131.569,56.727 134.841,56.426 134.541 C 56.301 134.415,56.198 134.506,56.198 134.741 C 56.198 135.181,54.883 136.661,54.536 136.612 C 54.430 136.596,54.141 136.666,53.893 136.766 C 53.578 136.894,53.598 136.957,53.959 136.977 C 54.305 136.997,54.199 137.246,53.636 137.733 C 53.175 138.133,52.628 138.356,52.421 138.228 C 52.214 138.100,52.147 138.161,52.273 138.365 C 52.399 138.568,52.247 139.048,51.935 139.432 C 51.624 139.815,51.489 139.896,51.636 139.613 C 51.812 139.273,51.759 139.187,51.480 139.359 C 51.247 139.503,51.056 139.788,51.056 139.993 C 51.056 140.197,50.808 140.613,50.505 140.916 C 50.202 141.219,49.954 141.374,49.954 141.260 C 49.954 141.147,49.624 141.337,49.219 141.683 C 48.815 142.029,48.485 142.523,48.485 142.781 C 48.485 143.039,48.154 143.251,47.750 143.251 C 47.346 143.251,47.016 143.481,47.016 143.763 C 47.016 144.397,45.040 146.556,44.459 146.556 C 44.225 146.556,44.136 146.722,44.261 146.924 C 44.386 147.126,44.236 147.291,43.928 147.291 C 43.620 147.291,43.189 147.626,42.970 148.036 C 42.750 148.446,42.414 148.684,42.222 148.565 C 42.030 148.447,41.873 148.690,41.873 149.106 C 41.873 149.546,41.634 149.862,41.301 149.862 C 40.986 149.862,40.816 150.005,40.924 150.179 C 41.031 150.353,40.809 150.477,40.429 150.454 C 39.706 150.411,37.466 148.300,37.466 147.662 C 37.466 147.458,37.287 147.291,37.069 147.291 C 36.519 147.291,33.829 144.438,34.113 144.155 C 34.240 144.028,34.178 143.964,33.976 144.013 C 33.334 144.168,32.323 143.559,32.323 143.016 C 32.323 142.728,32.076 142.398,31.774 142.282 C 31.473 142.167,31.333 141.898,31.464 141.686 C 31.601 141.465,31.526 141.409,31.290 141.555 C 30.812 141.851,28.533 139.817,28.914 139.436 C 29.054 139.296,28.820 139.090,28.393 138.978 C 27.966 138.866,27.525 138.426,27.413 137.999 C 27.301 137.572,27.103 137.329,26.973 137.460 C 26.672 137.761,25.731 136.917,25.956 136.547 C 26.047 136.396,25.855 136.272,25.528 136.272 C 25.201 136.272,25.036 136.107,25.161 135.904 C 25.286 135.702,25.130 135.537,24.815 135.537 C 24.500 135.537,24.242 135.372,24.242 135.170 C 24.242 134.968,24.055 134.803,23.825 134.803 C 23.335 134.803,21.671 133.086,21.671 132.580 C 21.671 132.388,21.258 132.231,20.753 132.231 C 20.248 132.231,19.835 132.066,19.835 131.864 C 19.835 131.662,19.537 131.497,19.174 131.497 C 18.810 131.497,18.327 131.312,18.102 131.086 C 17.471 130.455,11.754 130.380,11.754 131.002 C 11.754 131.274,11.531 131.497,11.259 131.497 C 10.624 131.497,8.529 132.539,8.246 132.995 C 8.127 133.188,7.876 133.250,7.688 133.134 C 7.500 133.018,7.346 133.103,7.346 133.324 C 7.346 133.904,5.241 135.876,4.924 135.592 C 4.778 135.461,4.762 135.538,4.891 135.764 C 5.020 135.989,4.809 136.459,4.424 136.808 C 4.038 137.157,3.811 137.674,3.920 137.956 C 4.028 138.238,3.887 138.557,3.607 138.665 C 3.327 138.773,3.062 139.311,3.019 139.862 C 2.976 140.413,2.780 141.276,2.585 141.781 C 2.194 142.788,1.918 147.623,1.611 158.842 C 1.442 165.005,1.316 166.239,0.818 166.603 C 0.276 166.999,0.281 167.092,0.874 167.685 C 1.375 168.186,1.417 168.400,1.058 168.622 C 0.713 168.836,0.580 170.666,0.543 175.729 C 0.516 179.480,0.398 182.644,0.282 182.760 C -0.018 183.060,-0.083 211.873,0.211 214.088 C 0.403 215.537,0.574 215.876,1.022 215.704 C 1.377 215.567,1.497 215.636,1.341 215.888 C 1.205 216.109,1.591 216.835,2.199 217.501 C 2.808 218.168,3.306 218.841,3.306 218.998 C 3.306 219.155,3.538 219.284,3.822 219.284 C 4.604 219.284,7.345 220.835,7.352 221.280 C 7.355 221.495,7.518 221.423,7.713 221.120 C 7.925 220.793,8.072 220.746,8.075 221.005 C 8.079 221.326,10.056 221.440,15.611 221.440 C 19.752 221.440,23.140 221.297,23.140 221.122 C 23.140 220.944,23.623 220.943,24.237 221.119 C 24.868 221.300,25.421 221.294,25.537 221.105 C 25.795 220.688,28.247 220.765,28.515 221.198 C 28.628 221.382,28.906 221.365,29.152 221.161 C 29.392 220.962,32.559 220.714,36.190 220.610 C 39.821 220.506,43.370 220.333,44.077 220.227 C 44.784 220.120,48.586 219.940,52.525 219.827 C 56.465 219.714,60.349 219.536,61.157 219.432 C 61.965 219.328,66.006 219.195,70.137 219.137 C 75.408 219.062,77.690 218.904,77.789 218.606 C 77.875 218.349,78.788 218.182,80.109 218.182 C 81.307 218.182,82.574 218.035,82.925 217.855 C 83.276 217.676,84.173 217.230,84.918 216.866 C 85.663 216.501,86.190 216.069,86.090 215.907 C 85.989 215.744,86.177 215.611,86.506 215.611 C 87.194 215.611,88.154 214.758,88.154 214.146 C 88.154 213.918,88.320 213.833,88.522 213.958 C 88.724 214.083,88.889 213.846,88.889 213.431 C 88.889 213.017,89.261 212.252,89.715 211.731 C 91.062 210.189,91.896 205.753,91.038 204.695 C 90.765 204.359,90.732 204.197,90.965 204.336 C 91.197 204.476,90.976 203.764,90.473 202.754 C 89.969 201.744,89.407 200.918,89.223 200.918 C 89.039 200.918,88.889 200.755,88.889 200.555 C 88.889 200.194,88.517 199.686,86.593 197.420 C 86.038 196.765,85.583 196.045,85.583 195.819 C 85.583 195.593,85.406 195.409,85.190 195.409 C 84.626 195.409,77.886 188.701,78.101 188.353 C 78.199 188.193,78.064 188.057,77.799 188.051 C 76.793 188.028,70.303 181.084,71.283 181.078 C 71.937 181.074,72.040 180.986,71.669 180.751 C 71.270 180.498,71.329 180.376,71.945 180.181 C 72.375 180.044,72.899 179.612,73.108 179.222 C 73.317 178.832,73.730 178.512,74.026 178.512 C 74.322 178.512,74.564 178.304,74.564 178.050 C 74.564 177.387,76.235 175.676,77.172 175.378 C 77.795 175.181,77.857 175.057,77.459 174.805 C 77.056 174.550,77.084 174.482,77.594 174.478 C 77.948 174.475,78.237 174.301,78.237 174.092 C 78.237 173.621,80.659 171.166,81.124 171.166 C 81.311 171.166,81.559 170.918,81.676 170.615 C 81.792 170.312,82.181 170.062,82.541 170.059 C 83.098 170.054,83.113 170.000,82.645 169.697 C 82.342 169.501,82.272 169.338,82.491 169.335 C 82.709 169.332,83.106 168.922,83.373 168.424 C 83.639 167.926,83.999 167.606,84.172 167.713 C 84.345 167.820,84.591 167.635,84.719 167.302 C 84.846 166.969,85.052 166.858,85.175 167.054 C 85.310 167.269,85.589 167.207,85.873 166.902 C 86.185 166.565,86.207 166.391,85.938 166.391 C 85.713 166.391,86.364 165.565,87.384 164.555 C 88.405 163.545,89.409 162.718,89.616 162.718 C 89.822 162.718,89.991 162.460,89.991 162.145 C 89.991 161.830,90.145 161.668,90.333 161.784 C 90.743 162.038,91.878 160.526,91.607 160.087 C 91.502 159.918,91.654 159.780,91.944 159.780 C 92.235 159.780,92.676 159.534,92.926 159.233 C 93.176 158.932,93.530 158.779,93.715 158.893 C 93.899 159.006,94.026 158.963,93.997 158.797 C 93.878 158.113,94.053 157.576,94.394 157.576 C 94.959 157.576,96.220 156.379,96.011 156.041 C 95.837 155.759,96.397 155.585,97.089 155.705 C 97.255 155.734,97.294 155.599,97.175 155.406 C 96.912 154.981,98.596 153.080,98.935 153.419 C 99.066 153.550,99.174 153.382,99.174 153.046 C 99.174 152.709,99.431 152.433,99.746 152.433 C 100.061 152.433,100.227 152.285,100.116 152.105 C 99.916 151.781,100.929 151.159,101.469 151.273 C 101.621 151.305,101.745 151.001,101.745 150.597 C 101.745 150.116,101.990 149.862,102.455 149.862 C 102.845 149.862,103.267 149.540,103.392 149.146 C 103.517 148.753,103.941 148.328,104.335 148.203 C 104.728 148.078,105.051 147.760,105.051 147.495 C 105.051 147.230,105.297 146.809,105.597 146.560 C 105.898 146.310,106.054 145.959,105.943 145.780 C 105.832 145.601,105.940 145.455,106.183 145.455 C 106.425 145.455,107.084 144.973,107.645 144.386 C 108.207 143.798,108.747 143.397,108.845 143.495 C 108.944 143.593,109.129 143.341,109.258 142.934 C 109.387 142.528,109.981 141.979,110.578 141.715 C 111.174 141.451,111.662 140.970,111.662 140.647 C 111.662 139.795,112.994 138.646,113.248 139.280 C 113.370 139.586,113.451 139.519,113.470 139.097 C 113.487 138.692,113.664 138.535,113.923 138.694 C 114.167 138.846,114.248 138.796,114.112 138.577 C 113.984 138.369,114.454 137.588,115.158 136.842 C 115.861 136.095,116.437 135.674,116.437 135.905 C 116.437 136.161,116.651 136.110,116.988 135.773 C 117.291 135.470,117.539 134.999,117.539 134.727 C 117.539 134.066,118.856 132.967,119.655 132.960 C 120.119 132.956,120.166 132.874,119.828 132.659 C 119.486 132.442,119.650 132.108,120.447 131.398 C 121.162 130.761,121.592 130.582,121.710 130.873 C 121.808 131.115,121.902 130.941,121.918 130.487 C 121.938 129.907,122.172 129.660,122.703 129.660 C 123.119 129.660,123.376 129.526,123.275 129.362 C 122.985 128.893,124.710 127.092,125.479 127.060 C 125.859 127.044,125.973 126.951,125.731 126.852 C 125.440 126.734,125.619 126.304,126.256 125.589 C 126.966 124.792,127.300 124.629,127.517 124.971 C 127.731 125.308,127.814 125.259,127.818 124.793 C 127.821 124.440,127.989 124.151,128.191 124.151 C 128.393 124.151,128.558 123.969,128.558 123.747 C 128.558 123.173,130.736 121.212,131.374 121.212 C 131.667 121.212,131.824 121.078,131.723 120.914 C 131.433 120.445,133.158 118.644,133.927 118.612 C 134.308 118.596,134.415 118.500,134.165 118.399 C 133.861 118.277,134.043 117.877,134.716 117.190 C 135.383 116.508,135.811 116.302,135.991 116.576 C 136.157 116.830,136.263 116.727,136.266 116.306 C 136.269 115.931,136.687 115.298,137.194 114.899 C 137.701 114.501,138.021 114.022,137.907 113.837 C 137.792 113.651,137.859 113.499,138.056 113.499 C 138.253 113.499,138.498 113.705,138.600 113.958 C 138.707 114.224,138.797 114.138,138.814 113.752 C 138.832 113.347,139.009 113.190,139.267 113.350 C 139.519 113.506,139.592 113.451,139.446 113.216 C 139.311 112.998,139.708 112.352,140.327 111.782 C 140.947 111.211,141.734 110.431,142.077 110.049 C 144.180 107.701,145.095 106.887,145.629 106.887 C 145.961 106.887,146.143 106.743,146.034 106.567 C 145.926 106.390,146.329 105.731,146.931 105.101 C 147.533 104.471,148.026 103.788,148.026 103.585 C 148.026 103.381,148.166 103.255,148.337 103.306 C 148.508 103.356,149.572 102.447,150.700 101.286 C 151.829 100.124,152.902 99.174,153.085 99.174 C 153.268 99.174,153.606 98.760,153.836 98.255 C 154.213 97.428,154.656 97.166,155.464 97.294 C 155.615 97.317,155.739 97.083,155.739 96.772 C 155.739 95.965,158.569 93.180,158.802 93.757 C 158.923 94.056,158.997 94.015,159.016 93.638 C 159.055 92.869,161.241 90.429,161.274 91.118 C 161.288 91.413,161.473 91.281,161.697 90.817 C 161.916 90.363,162.346 89.991,162.652 89.991 C 162.958 89.991,163.099 89.882,162.966 89.749 C 162.634 89.417,163.457 88.481,163.862 88.731 C 164.041 88.842,164.187 88.686,164.187 88.384 C 164.187 88.083,164.515 87.733,164.914 87.606 C 165.314 87.479,165.604 87.258,165.557 87.115 C 165.402 86.634,167.041 84.848,167.638 84.848 C 167.977 84.848,168.228 84.545,168.228 84.135 C 168.228 83.731,168.707 83.138,169.330 82.770 C 169.936 82.412,170.432 81.996,170.432 81.845 C 170.432 81.374,171.996 80.089,172.324 80.291 C 172.495 80.397,172.635 80.219,172.635 79.896 C 172.635 79.105,178.681 73.095,179.476 73.095 C 179.822 73.095,179.995 72.986,179.862 72.853 C 179.530 72.521,180.353 71.585,180.758 71.835 C 180.937 71.945,181.084 71.804,181.084 71.519 C 181.084 71.235,181.455 70.824,181.910 70.604 C 182.365 70.385,182.506 70.195,182.224 70.181 C 181.901 70.165,182.080 69.814,182.708 69.232 C 183.257 68.724,183.863 68.405,184.057 68.525 C 184.250 68.644,184.362 68.523,184.307 68.255 C 184.251 67.987,184.425 67.814,184.692 67.870 C 184.960 67.925,185.081 67.812,184.962 67.619 C 184.842 67.426,185.145 66.837,185.633 66.310 C 186.255 65.639,186.579 65.493,186.712 65.825 C 186.817 66.086,186.916 65.927,186.932 65.473 C 186.952 64.901,187.187 64.646,187.695 64.646 C 188.099 64.646,188.430 64.432,188.430 64.170 C 188.430 63.688,192.405 59.243,192.685 59.412 C 193.164 59.701,193.572 59.411,193.572 58.782 C 193.572 58.045,194.758 57.140,195.177 57.558 C 195.304 57.686,195.409 57.432,195.409 56.994 C 195.409 56.436,195.634 56.198,196.165 56.198 C 196.581 56.198,196.826 56.044,196.710 55.856 C 196.097 54.865,197.455 55.216,198.625 56.352 C 199.369 57.076,200.081 57.668,200.207 57.668 C 200.333 57.668,200.747 58.246,201.128 58.953 C 201.508 59.660,202.085 60.239,202.409 60.239 C 202.733 60.239,203.219 60.652,203.489 61.157 C 203.760 61.662,204.087 62.075,204.217 62.075 C 204.712 62.075,206.067 63.605,205.863 63.934 C 205.746 64.124,205.913 64.279,206.234 64.279 C 206.555 64.279,206.913 64.527,207.030 64.830 C 207.146 65.133,207.481 65.381,207.774 65.381 C 208.068 65.381,208.206 65.546,208.081 65.748 C 207.956 65.950,208.009 66.116,208.198 66.116 C 208.667 66.116,211.570 68.962,211.570 69.421 C 211.570 69.623,211.736 69.789,211.938 69.789 C 212.140 69.789,212.264 69.995,212.213 70.248 C 212.163 70.500,212.328 70.666,212.580 70.615 C 212.833 70.565,213.039 70.689,213.039 70.891 C 213.039 71.093,213.251 71.258,213.509 71.258 C 213.768 71.258,214.222 71.611,214.519 72.041 C 215.212 73.046,216.806 74.564,217.168 74.564 C 217.322 74.564,217.447 74.794,217.447 75.075 C 217.447 75.357,217.695 75.682,217.998 75.799 C 218.301 75.915,218.549 76.273,218.549 76.594 C 218.549 76.915,218.714 77.076,218.916 76.951 C 219.118 76.826,219.284 76.982,219.284 77.297 C 219.284 77.612,219.532 77.870,219.835 77.870 C 220.482 77.870,221.891 79.180,221.579 79.492 C 221.462 79.610,221.574 79.706,221.829 79.706 C 222.426 79.706,226.621 84.087,226.521 84.606 C 226.480 84.822,226.612 85.021,226.814 85.047 C 227.711 85.166,228.466 85.708,228.466 86.235 C 228.466 86.550,228.557 86.717,228.667 86.607 C 228.916 86.358,231.038 88.445,231.038 88.939 C 231.038 89.137,231.203 89.197,231.405 89.073 C 231.607 88.948,231.772 89.075,231.772 89.356 C 231.772 89.637,232.185 90.088,232.691 90.358 C 233.196 90.628,233.609 91.152,233.609 91.522 C 233.609 91.892,233.767 92.195,233.959 92.195 C 234.152 92.195,234.723 92.608,235.228 93.113 C 235.733 93.618,236.249 94.031,236.373 94.031 C 236.672 94.031,237.649 95.015,237.649 95.317 C 237.649 95.605,238.620 96.602,238.901 96.602 C 239.077 96.602,241.753 99.250,243.600 101.252 C 243.943 101.624,244.893 102.573,245.712 103.360 C 246.530 104.148,247.202 105.057,247.205 105.381 C 247.208 105.750,247.311 105.820,247.480 105.569 C 247.648 105.320,248.237 105.764,249.036 106.740 C 249.743 107.605,250.442 108.322,250.590 108.334 C 251.000 108.368,255.280 112.704,255.280 113.085 C 255.280 113.268,255.900 113.698,256.657 114.038 C 258.950 115.070,259.688 115.496,259.688 115.790 C 259.688 115.944,260.170 116.070,260.759 116.070 C 261.348 116.070,261.891 116.251,261.965 116.473 C 262.159 117.057,272.634 117.083,272.829 116.500 C 272.908 116.263,273.466 116.070,274.070 116.070 C 274.673 116.070,275.417 115.820,275.722 115.515 C 276.026 115.211,276.432 115.058,276.623 115.175 C 276.813 115.293,276.924 115.186,276.869 114.936 C 276.813 114.686,277.181 114.360,277.686 114.211 C 278.191 114.061,278.439 113.916,278.237 113.888 C 278.035 113.860,278.365 113.561,278.972 113.223 C 279.578 112.886,280.239 112.659,280.441 112.718 C 280.643 112.777,280.684 112.701,280.532 112.549 C 280.229 112.246,281.268 110.927,281.810 110.927 C 282.203 110.927,283.218 109.977,283.038 109.777 C 282.970 109.703,283.639 108.928,284.525 108.055 C 285.410 107.183,286.134 106.574,286.134 106.704 C 286.134 106.834,286.382 106.692,286.685 106.389 C 286.988 106.086,287.236 105.767,287.236 105.681 C 287.236 105.398,294.087 98.439,294.364 98.439 C 294.660 98.439,295.684 97.493,295.684 97.220 C 295.684 96.851,302.666 89.991,303.041 89.991 C 303.261 89.991,303.339 89.826,303.214 89.624 C 303.089 89.421,303.245 89.256,303.560 89.256 C 303.875 89.256,304.132 89.008,304.132 88.705 C 304.132 88.402,304.380 88.154,304.683 88.154 C 304.986 88.154,305.234 87.972,305.234 87.749 C 305.234 87.398,310.239 82.277,310.582 82.277 C 310.873 82.277,312.580 80.380,312.580 80.057 C 312.580 79.864,312.838 79.706,313.153 79.706 C 313.468 79.706,313.623 79.541,313.499 79.339 C 313.374 79.137,313.539 78.972,313.866 78.972 C 314.193 78.972,314.358 78.806,314.233 78.604 C 314.108 78.402,314.264 78.237,314.579 78.237 C 314.894 78.237,315.156 78.030,315.161 77.778 C 315.172 77.242,318.562 73.829,319.083 73.829 C 319.276 73.829,319.653 73.422,319.920 72.923 C 320.186 72.425,320.545 72.104,320.717 72.211 C 320.888 72.317,321.028 72.146,321.028 71.831 C 321.028 71.516,321.194 71.258,321.396 71.258 C 321.598 71.258,321.763 71.013,321.763 70.714 C 321.763 70.415,322.176 70.066,322.681 69.940 C 323.186 69.813,323.604 69.520,323.609 69.290 C 323.621 68.746,327.051 65.381,327.593 65.381 C 327.821 65.381,327.966 65.174,327.916 64.922 C 327.865 64.669,328.030 64.504,328.283 64.555 C 328.535 64.605,328.701 64.506,328.650 64.335 C 328.538 63.953,336.529 56.008,336.915 56.119 C 337.066 56.163,337.149 55.992,337.098 55.739 C 337.048 55.487,337.213 55.321,337.466 55.372 C 337.718 55.422,337.925 55.315,337.925 55.134 C 337.925 54.631,344.013 48.485,344.511 48.485 C 344.751 48.485,344.845 48.320,344.720 48.118 C 344.595 47.916,344.751 47.750,345.066 47.750 C 345.381 47.750,345.638 47.493,345.638 47.178 C 345.638 46.863,345.803 46.707,346.006 46.832 C 346.208 46.957,346.373 46.890,346.373 46.684 C 346.373 46.189,350.855 41.663,351.227 41.781 C 351.386 41.832,351.474 41.749,351.424 41.598 C 351.373 41.446,351.869 40.761,352.526 40.074 C 353.182 39.388,353.719 38.945,353.719 39.090 C 353.719 39.236,353.967 39.107,354.270 38.804 C 354.573 38.501,354.821 38.146,354.821 38.017 C 354.821 37.635,355.836 36.731,356.264 36.731 C 356.480 36.731,356.616 36.524,356.566 36.272 C 356.515 36.019,356.680 35.854,356.933 35.904 C 357.185 35.955,357.392 35.785,357.392 35.526 C 357.392 35.268,357.723 34.818,358.127 34.527 C 358.531 34.236,358.861 33.786,358.861 33.528 C 358.861 33.269,359.046 33.099,359.272 33.150 C 359.497 33.200,359.734 32.927,359.798 32.544 C 359.862 32.160,360.132 31.708,360.398 31.539 C 360.664 31.371,360.739 31.230,360.564 31.227 C 360.389 31.224,360.513 30.814,360.839 30.316 C 361.166 29.818,361.433 29.074,361.433 28.663 C 361.433 28.252,361.654 27.916,361.925 27.916 C 362.665 27.916,362.704 16.922,361.966 16.367 C 361.681 16.153,361.409 15.441,361.362 14.784 C 361.315 14.128,361.146 13.590,360.987 13.590 C 360.828 13.590,360.698 13.343,360.698 13.039 C 360.698 12.736,360.533 12.489,360.331 12.489 C 360.129 12.489,359.958 12.199,359.952 11.846 C 359.940 11.182,359.141 9.917,358.734 9.917 C 358.343 9.917,351.986 3.324,352.185 3.125 C 352.288 3.023,352.087 2.938,351.738 2.938 C 351.348 2.938,351.206 2.773,351.370 2.509 C 351.548 2.221,351.437 2.155,351.035 2.309 C 350.705 2.436,350.194 2.299,349.899 2.005 C 349.605 1.710,349.021 1.469,348.603 1.469 C 348.147 1.469,347.842 1.231,347.842 0.875 C 347.842 0.463,347.618 0.340,347.108 0.474 C 346.704 0.579,346.281 0.516,346.168 0.333 C 345.876 -0.140,335.689 -0.066,334.862 0.415 " stroke="none" fill="#04a45c" fill-rule="evenodd"></path><path id="path2" d="M333.884 0.367 C 333.128 0.610,333.095 0.667,333.701 0.692 C 334.105 0.709,334.683 0.563,334.986 0.367 C 335.630 -0.049,335.183 -0.049,333.884 0.367 M213.190 10.468 C 213.695 10.973,214.227 11.387,214.372 11.387 C 214.518 11.387,214.249 10.973,213.774 10.468 C 213.300 9.963,212.767 9.550,212.591 9.550 C 212.415 9.550,212.685 9.963,213.190 10.468 M217.138 14.325 C 217.586 14.931,218.118 15.427,218.320 15.427 C 218.521 15.427,218.211 14.931,217.631 14.325 C 217.050 13.719,216.518 13.223,216.449 13.223 C 216.380 13.223,216.690 13.719,217.138 14.325 M224.091 21.396 C 224.176 21.446,224.824 21.983,225.530 22.590 L 226.814 23.691 225.735 22.498 C 225.141 21.841,224.494 21.304,224.296 21.304 C 224.098 21.304,224.006 21.345,224.091 21.396 M238.480 35.721 C 240.521 37.671,241.375 38.232,239.868 36.633 C 238.968 35.677,238.092 34.894,237.923 34.894 C 237.754 34.894,238.005 35.266,238.480 35.721 M246.832 43.863 C 246.832 44.250,247.938 45.297,248.137 45.098 C 248.230 45.005,247.974 44.630,247.569 44.263 C 247.164 43.896,246.832 43.716,246.832 43.863 M254.837 52.066 C 256.161 53.358,256.903 53.750,255.854 52.603 C 255.261 51.954,254.641 51.423,254.477 51.423 C 254.313 51.423,254.475 51.713,254.837 52.066 M204.931 62.945 C 205.925 64.025,206.121 64.130,205.858 63.445 C 205.760 63.188,205.310 62.753,204.860 62.478 C 204.078 62.002,204.082 62.023,204.931 62.945 M265.806 117.264 C 266.035 117.635,269.605 117.617,269.605 117.244 C 269.605 117.082,268.712 116.958,267.620 116.969 C 266.529 116.979,265.712 117.112,265.806 117.264 M126.540 125.250 C 126.173 125.656,125.993 125.987,126.140 125.987 C 126.527 125.987,127.574 124.881,127.375 124.682 C 127.283 124.589,126.907 124.845,126.540 125.250 M119.929 131.862 C 119.562 132.267,119.382 132.599,119.529 132.599 C 119.916 132.599,120.963 131.492,120.764 131.293 C 120.671 131.201,120.295 131.457,119.929 131.862 M112.215 139.575 C 111.848 139.981,111.668 140.312,111.815 140.312 C 112.202 140.312,113.249 139.206,113.050 139.007 C 112.958 138.914,112.582 139.170,112.215 139.575 M1.475 150.689 C 1.479 151.595,1.566 151.750,1.837 151.331 C 2.303 150.610,2.303 149.495,1.837 149.495 C 1.635 149.495,1.472 150.032,1.475 150.689 M87.872 199.082 C 88.125 199.486,88.458 199.816,88.613 199.816 C 88.768 199.816,88.689 199.486,88.436 199.082 C 88.184 198.678,87.851 198.347,87.695 198.347 C 87.540 198.347,87.620 198.678,87.872 199.082 M69.881 219.170 C 70.234 219.262,70.813 219.262,71.166 219.170 C 71.520 219.077,71.230 219.002,70.523 219.002 C 69.816 219.002,69.527 219.077,69.881 219.170 M59.688 219.651 C 58.752 220.053,59.717 220.053,60.973 219.651 C 61.712 219.415,61.748 219.355,61.157 219.346 C 60.753 219.340,60.092 219.477,59.688 219.651 M42.770 220.422 C 41.760 220.818,43.338 220.801,45.546 220.393 L 47.199 220.088 45.341 220.116 C 44.319 220.131,43.162 220.269,42.770 220.422 M23.140 221.171 C 23.140 221.345,23.554 221.488,24.059 221.488 C 24.564 221.488,24.977 221.424,24.977 221.347 C 24.977 221.269,24.564 221.127,24.059 221.030 C 23.554 220.934,23.140 220.997,23.140 221.171 M25.521 221.132 C 25.395 221.335,25.851 221.488,26.587 221.488 C 28.263 221.488,28.636 220.885,26.997 220.824 C 26.306 220.798,25.642 220.936,25.521 221.132 " stroke="none" fill="#f87c48" fill-rule="evenodd"></path><path id="path3" d="M333.884 0.367 C 333.128 0.610,333.095 0.667,333.701 0.692 C 334.105 0.709,334.683 0.563,334.986 0.367 C 335.630 -0.049,335.183 -0.049,333.884 0.367 M213.190 10.468 C 213.695 10.973,214.227 11.387,214.372 11.387 C 214.518 11.387,214.249 10.973,213.774 10.468 C 213.300 9.963,212.767 9.550,212.591 9.550 C 212.415 9.550,212.685 9.963,213.190 10.468 M217.138 14.325 C 217.586 14.931,218.118 15.427,218.320 15.427 C 218.521 15.427,218.211 14.931,217.631 14.325 C 217.050 13.719,216.518 13.223,216.449 13.223 C 216.380 13.223,216.690 13.719,217.138 14.325 M224.091 21.396 C 224.176 21.446,224.824 21.983,225.530 22.590 L 226.814 23.691 225.735 22.498 C 225.141 21.841,224.494 21.304,224.296 21.304 C 224.098 21.304,224.006 21.345,224.091 21.396 M238.480 35.721 C 240.521 37.671,241.375 38.232,239.868 36.633 C 238.968 35.677,238.092 34.894,237.923 34.894 C 237.754 34.894,238.005 35.266,238.480 35.721 M246.832 43.863 C 246.832 44.250,247.938 45.297,248.137 45.098 C 248.230 45.005,247.974 44.630,247.569 44.263 C 247.164 43.896,246.832 43.716,246.832 43.863 M254.837 52.066 C 256.161 53.358,256.903 53.750,255.854 52.603 C 255.261 51.954,254.641 51.423,254.477 51.423 C 254.313 51.423,254.475 51.713,254.837 52.066 M204.931 62.945 C 205.925 64.025,206.121 64.130,205.858 63.445 C 205.760 63.188,205.310 62.753,204.860 62.478 C 204.078 62.002,204.082 62.023,204.931 62.945 M265.806 117.264 C 266.035 117.635,269.605 117.617,269.605 117.244 C 269.605 117.082,268.712 116.958,267.620 116.969 C 266.529 116.979,265.712 117.112,265.806 117.264 M126.540 125.250 C 126.173 125.656,125.993 125.987,126.140 125.987 C 126.527 125.987,127.574 124.881,127.375 124.682 C 127.283 124.589,126.907 124.845,126.540 125.250 M119.929 131.862 C 119.562 132.267,119.382 132.599,119.529 132.599 C 119.916 132.599,120.963 131.492,120.764 131.293 C 120.671 131.201,120.295 131.457,119.929 131.862 M112.215 139.575 C 111.848 139.981,111.668 140.312,111.815 140.312 C 112.202 140.312,113.249 139.206,113.050 139.007 C 112.958 138.914,112.582 139.170,112.215 139.575 M1.475 150.689 C 1.479 151.595,1.566 151.750,1.837 151.331 C 2.303 150.610,2.303 149.495,1.837 149.495 C 1.635 149.495,1.472 150.032,1.475 150.689 M87.872 199.082 C 88.125 199.486,88.458 199.816,88.613 199.816 C 88.768 199.816,88.689 199.486,88.436 199.082 C 88.184 198.678,87.851 198.347,87.695 198.347 C 87.540 198.347,87.620 198.678,87.872 199.082 M69.881 219.170 C 70.234 219.262,70.813 219.262,71.166 219.170 C 71.520 219.077,71.230 219.002,70.523 219.002 C 69.816 219.002,69.527 219.077,69.881 219.170 M59.688 219.651 C 58.752 220.053,59.717 220.053,60.973 219.651 C 61.712 219.415,61.748 219.355,61.157 219.346 C 60.753 219.340,60.092 219.477,59.688 219.651 M42.770 220.422 C 41.760 220.818,43.338 220.801,45.546 220.393 L 47.199 220.088 45.341 220.116 C 44.319 220.131,43.162 220.269,42.770 220.422 M23.140 221.171 C 23.140 221.345,23.554 221.488,24.059 221.488 C 24.564 221.488,24.977 221.424,24.977 221.347 C 24.977 221.269,24.564 221.127,24.059 221.030 C 23.554 220.934,23.140 220.997,23.140 221.171 M25.521 221.132 C 25.395 221.335,25.851 221.488,26.587 221.488 C 28.263 221.488,28.636 220.885,26.997 220.824 C 26.306 220.798,25.642 220.936,25.521 221.132 " stroke="none" fill="#f87c48" fill-rule="evenodd"></path></g></svg>