<svg id="svg" xmlns="http://www.w3.org/2000/svg" xmlns:xlink="http://www.w3.org/1999/xlink" width="400" height="340.625" viewBox="0, 0, 400,340.625"><g id="svgg"><path id="path0" d="M369.193 0.329 C 363.109 0.465,361.008 0.619,360.902 0.937 C 360.795 1.262,358.833 1.363,352.632 1.363 C 347.581 1.363,344.424 1.492,344.293 1.704 C 344.162 1.915,340.996 2.044,335.925 2.044 C 330.714 2.044,327.768 2.167,327.768 2.385 C 327.768 2.602,325.099 2.726,320.443 2.726 C 315.786 2.726,313.118 2.850,313.118 3.066 C 313.118 3.259,312.149 3.407,310.892 3.407 C 309.228 3.407,308.617 3.536,308.471 3.918 C 308.353 4.224,307.840 4.429,307.194 4.429 C 306.504 4.429,305.935 4.676,305.622 5.111 C 305.352 5.486,304.973 5.797,304.780 5.803 C 304.262 5.820,303.067 6.896,302.805 7.581 C 302.679 7.909,302.419 8.177,302.225 8.177 C 302.032 8.177,301.874 8.407,301.874 8.688 C 301.874 8.969,301.721 9.199,301.533 9.199 C 301.346 9.199,301.193 9.506,301.193 9.881 C 301.193 10.256,301.039 10.562,300.852 10.562 C 300.664 10.562,300.511 11.027,300.511 11.595 C 300.511 12.199,300.299 12.709,300.000 12.824 C 299.596 12.979,299.489 13.691,299.489 16.231 C 299.489 18.771,299.596 19.483,300.000 19.638 C 300.281 19.746,300.511 20.201,300.511 20.650 C 300.511 21.098,300.664 21.465,300.852 21.465 C 301.039 21.465,301.193 21.700,301.193 21.988 C 301.193 22.609,302.124 24.139,302.972 24.912 C 303.305 25.215,303.578 25.571,303.578 25.703 C 303.578 26.003,304.475 26.917,304.770 26.917 C 305.065 26.917,305.963 27.830,305.963 28.130 C 305.963 28.431,307.746 29.982,308.092 29.983 C 308.233 29.983,308.348 30.143,308.348 30.339 C 308.348 30.719,309.878 32.368,310.230 32.368 C 310.503 32.368,311.414 33.279,311.414 33.552 C 311.414 33.904,313.063 35.434,313.443 35.434 C 313.639 35.434,313.799 35.595,313.799 35.791 C 313.799 36.253,315.365 37.819,315.828 37.819 C 316.024 37.819,316.184 37.980,316.184 38.176 C 316.184 38.556,317.714 40.204,318.067 40.204 C 318.340 40.204,319.250 41.115,319.250 41.388 C 319.250 41.741,320.899 43.271,321.279 43.271 C 321.475 43.271,321.635 43.654,321.635 44.123 C 321.635 44.591,321.471 44.974,321.270 44.974 C 320.878 44.974,319.932 45.811,319.932 46.158 C 319.932 46.432,318.323 48.041,318.049 48.041 C 317.772 48.041,316.865 48.954,316.865 49.233 C 316.865 49.518,315.957 50.426,315.673 50.426 C 315.389 50.426,314.480 51.334,314.480 51.618 C 314.480 51.903,313.572 52.811,313.288 52.811 C 313.008 52.811,312.095 53.717,312.095 53.995 C 312.095 54.268,310.486 55.877,310.213 55.877 C 309.935 55.877,309.029 56.790,309.029 57.070 C 309.029 57.354,308.121 58.262,307.836 58.262 C 307.557 58.262,306.644 59.168,306.644 59.446 C 306.644 59.720,305.035 61.329,304.761 61.329 C 304.484 61.329,303.578 62.242,303.578 62.521 C 303.578 62.806,302.669 63.714,302.385 63.714 C 302.101 63.714,301.193 64.622,301.193 64.906 C 301.193 65.191,300.284 66.099,300.000 66.099 C 299.720 66.099,298.807 67.005,298.807 67.282 C 298.807 67.556,297.198 69.165,296.925 69.165 C 296.647 69.165,295.741 70.078,295.741 70.358 C 295.741 70.642,294.833 71.550,294.549 71.550 C 294.269 71.550,293.356 72.456,293.356 72.734 C 293.356 73.008,291.747 74.617,291.473 74.617 C 291.196 74.617,290.290 75.530,290.290 75.809 C 290.290 76.093,289.381 77.002,289.097 77.002 C 288.817 77.002,287.905 77.908,287.905 78.185 C 287.905 78.538,286.256 80.068,285.876 80.068 C 285.680 80.068,285.520 80.228,285.520 80.424 C 285.520 80.804,283.989 82.453,283.637 82.453 C 283.359 82.453,282.453 83.366,282.453 83.646 C 282.453 83.930,281.545 84.838,281.261 84.838 C 280.981 84.838,280.068 85.744,280.068 86.022 C 280.068 86.295,278.459 87.905,278.185 87.905 C 277.908 87.905,277.002 88.817,277.002 89.097 C 277.002 89.381,276.093 90.290,275.809 90.290 C 275.530 90.290,274.617 91.196,274.617 91.473 C 274.617 91.826,272.968 93.356,272.588 93.356 C 272.392 93.356,272.232 93.516,272.232 93.712 C 272.232 94.092,270.701 95.741,270.349 95.741 C 270.071 95.741,269.165 96.654,269.165 96.934 C 269.165 97.054,268.946 97.372,268.679 97.639 C 268.411 97.907,268.093 98.126,267.973 98.126 C 267.693 98.126,266.780 99.032,266.780 99.310 C 266.780 99.583,265.171 101.193,264.897 101.193 C 264.620 101.193,263.714 102.105,263.714 102.385 C 263.714 102.669,262.806 103.578,262.521 103.578 C 262.242 103.578,261.329 104.484,261.329 104.761 C 261.329 105.114,259.680 106.644,259.300 106.644 C 259.104 106.644,258.944 106.804,258.944 107.000 C 258.944 107.380,257.414 109.029,257.061 109.029 C 256.788 109.029,255.877 109.940,255.877 110.213 C 255.877 110.565,254.228 112.095,253.849 112.095 C 253.653 112.095,253.492 112.256,253.492 112.452 C 253.492 112.832,251.962 114.480,251.610 114.480 C 251.332 114.480,250.426 115.393,250.426 115.673 C 250.426 115.793,250.207 116.111,249.939 116.379 C 249.671 116.646,249.354 116.865,249.233 116.865 C 248.954 116.865,248.041 117.772,248.041 118.049 C 248.041 118.402,246.392 119.932,246.012 119.932 C 245.816 119.932,245.656 120.092,245.656 120.288 C 245.656 120.668,244.126 122.317,243.773 122.317 C 243.500 122.317,242.589 123.228,242.589 123.501 C 242.589 123.853,240.941 125.383,240.561 125.383 C 240.365 125.383,240.204 125.544,240.204 125.740 C 240.204 126.119,238.674 127.768,238.322 127.768 C 238.044 127.768,237.138 128.681,237.138 128.961 C 237.138 129.081,236.919 129.399,236.651 129.667 C 236.384 129.934,236.066 130.153,235.945 130.153 C 235.666 130.153,234.753 131.059,234.753 131.337 C 234.753 131.611,233.144 133.220,232.870 133.220 C 232.593 133.220,231.687 134.133,231.687 134.412 C 231.687 134.533,231.468 134.850,231.200 135.118 C 230.932 135.386,230.615 135.605,230.494 135.605 C 230.214 135.605,229.302 136.511,229.302 136.788 C 229.302 137.141,227.653 138.671,227.273 138.671 C 227.077 138.671,226.917 138.832,226.917 139.027 C 226.917 139.407,225.386 141.056,225.034 141.056 C 224.756 141.056,223.850 141.969,223.850 142.249 C 223.850 142.369,223.631 142.687,223.363 142.954 C 223.096 143.222,222.778 143.441,222.658 143.441 C 222.378 143.441,221.465 144.347,221.465 144.625 C 221.465 144.899,219.856 146.508,219.582 146.508 C 219.305 146.508,218.399 147.421,218.399 147.700 C 218.399 147.984,217.490 148.893,217.206 148.893 C 216.927 148.893,216.014 149.799,216.014 150.076 C 216.014 150.429,214.365 151.959,213.985 151.959 C 213.789 151.959,213.629 152.119,213.629 152.315 C 213.629 152.695,212.098 154.344,211.746 154.344 C 211.473 154.344,210.562 155.255,210.562 155.528 C 210.562 155.880,208.913 157.411,208.533 157.411 C 208.337 157.411,208.177 157.571,208.177 157.767 C 208.177 158.147,206.647 159.796,206.294 159.796 C 206.017 159.796,205.111 160.708,205.111 160.988 C 205.111 161.109,204.892 161.426,204.624 161.694 C 204.356 161.962,204.039 162.181,203.918 162.181 C 203.639 162.181,202.726 163.087,202.726 163.364 C 202.726 163.717,201.077 165.247,200.697 165.247 C 200.501 165.247,200.341 165.407,200.341 165.603 C 200.341 165.983,198.811 167.632,198.458 167.632 C 198.185 167.632,197.274 168.543,197.274 168.816 C 197.274 169.168,195.625 170.698,195.245 170.698 C 195.050 170.698,194.889 170.859,194.889 171.055 C 194.889 171.435,193.359 173.083,193.006 173.083 C 192.729 173.083,191.823 173.996,191.823 174.276 C 191.823 174.560,190.915 175.468,190.630 175.468 C 190.351 175.468,189.438 176.375,189.438 176.652 C 189.438 177.005,187.789 178.535,187.409 178.535 C 187.213 178.535,187.053 178.695,187.053 178.891 C 187.053 179.271,185.523 180.920,185.170 180.920 C 184.899 180.920,183.986 181.830,183.986 182.100 C 183.986 182.214,183.641 182.664,183.220 183.101 L 182.453 183.895 151.029 152.509 C 133.746 135.248,119.295 121.075,118.917 121.015 C 118.538 120.956,118.228 120.757,118.228 120.574 C 118.228 119.972,116.570 118.569,115.859 118.569 C 115.475 118.569,115.161 118.377,115.159 118.143 C 115.156 117.660,113.633 116.865,112.709 116.865 C 112.371 116.865,112.095 116.712,112.095 116.525 C 112.095 116.337,111.624 116.184,111.049 116.184 C 110.473 116.184,109.772 115.954,109.491 115.673 C 108.741 114.922,99.900 114.922,99.612 115.673 C 99.484 116.006,98.954 116.184,98.090 116.184 C 97.360 116.184,96.763 116.337,96.763 116.525 C 96.763 116.712,96.380 116.865,95.911 116.865 C 95.443 116.865,95.060 117.019,95.060 117.206 C 95.060 117.394,94.846 117.547,94.585 117.547 C 94.323 117.547,93.617 118.007,93.015 118.569 C 92.414 119.131,91.787 119.591,91.623 119.591 C 91.458 119.591,90.801 120.089,90.162 120.698 C 89.523 121.307,88.715 122.044,88.367 122.336 C 88.019 122.628,87.430 123.279,87.057 123.784 C 86.685 124.289,86.252 124.702,86.096 124.702 C 85.762 124.702,84.838 125.577,84.838 125.894 C 84.838 126.211,83.915 127.087,83.581 127.087 C 83.424 127.087,82.992 127.495,82.619 127.995 C 81.772 129.131,81.431 129.472,80.295 130.319 C 79.795 130.692,79.387 131.124,79.387 131.281 C 79.387 131.610,78.513 132.538,78.203 132.538 C 77.850 132.538,76.320 134.187,76.320 134.567 C 76.320 134.763,76.196 134.923,76.044 134.923 C 75.684 134.923,74.624 135.928,73.769 137.078 C 73.397 137.580,72.964 137.990,72.808 137.990 C 72.440 137.990,71.550 138.879,71.550 139.247 C 71.550 139.404,71.157 139.827,70.677 140.187 C 69.089 141.380,68.484 141.983,68.484 142.374 C 68.484 142.586,68.324 142.760,68.128 142.760 C 67.748 142.760,66.099 144.290,66.099 144.643 C 66.099 144.915,65.188 145.826,64.915 145.826 C 64.563 145.826,63.032 147.475,63.032 147.855 C 63.032 148.051,62.839 148.211,62.602 148.211 C 62.366 148.211,61.877 148.604,61.516 149.085 C 60.447 150.509,59.731 151.278,59.476 151.278 C 59.142 151.278,58.262 152.190,58.262 152.535 C 58.262 152.692,57.854 153.124,57.354 153.497 C 56.218 154.344,55.877 154.685,55.030 155.821 C 54.657 156.321,54.225 156.729,54.069 156.729 C 53.734 156.729,52.811 157.605,52.811 157.922 C 52.811 158.201,51.905 159.114,51.627 159.114 C 51.275 159.114,49.744 160.763,49.744 161.143 C 49.744 161.339,49.584 161.499,49.388 161.499 C 49.008 161.499,47.359 163.029,47.359 163.382 C 47.359 163.659,46.447 164.566,46.167 164.566 C 45.850 164.566,44.974 165.489,44.974 165.823 C 44.974 165.980,44.566 166.412,44.066 166.785 C 42.930 167.632,42.589 167.973,41.742 169.109 C 41.370 169.608,40.937 170.017,40.781 170.017 C 40.446 170.017,39.523 170.893,39.523 171.210 C 39.523 171.489,38.617 172.402,38.339 172.402 C 37.987 172.402,36.457 174.051,36.457 174.431 C 36.457 174.627,36.296 174.787,36.100 174.787 C 35.720 174.787,34.072 176.317,34.072 176.670 C 34.072 176.947,33.159 177.853,32.879 177.853 C 32.595 177.853,31.687 178.762,31.687 179.046 C 31.687 179.326,30.780 180.239,30.503 180.239 C 30.229 180.239,28.620 181.848,28.620 182.121 C 28.620 182.399,27.707 183.305,27.428 183.305 C 27.143 183.305,26.235 184.213,26.235 184.497 C 26.235 184.777,25.329 185.690,25.051 185.690 C 24.699 185.690,23.169 187.339,23.169 187.719 C 23.169 187.915,23.008 188.075,22.812 188.075 C 22.433 188.075,20.784 189.605,20.784 189.958 C 20.784 190.235,19.871 191.141,19.591 191.141 C 19.307 191.141,18.399 192.050,18.399 192.334 C 18.399 192.614,17.493 193.526,17.215 193.526 C 16.941 193.526,15.332 195.136,15.332 195.409 C 15.332 195.687,14.419 196.593,14.140 196.593 C 13.855 196.593,12.947 197.501,12.947 197.785 C 12.947 198.065,12.041 198.978,11.764 198.978 C 11.490 198.978,9.881 200.587,9.881 200.861 C 9.881 201.138,8.968 202.044,8.688 202.044 C 8.404 202.044,7.496 202.953,7.496 203.237 C 7.496 203.521,6.588 204.429,6.303 204.429 C 6.024 204.429,5.111 205.335,5.111 205.613 C 5.111 205.729,4.766 206.192,4.344 206.643 C 3.066 208.010,2.726 208.473,2.726 208.844 C 2.726 209.040,2.572 209.199,2.385 209.199 C 2.198 209.199,2.044 209.506,2.044 209.881 C 2.044 210.256,1.891 210.562,1.704 210.562 C 1.516 210.562,1.363 210.945,1.363 211.414 C 1.363 211.921,1.168 212.266,0.881 212.266 C -0.264 212.266,-0.356 227.608,0.783 228.442 C 1.102 228.675,1.363 229.117,1.363 229.424 C 1.363 229.732,1.516 229.983,1.704 229.983 C 1.891 229.983,2.044 230.332,2.044 230.760 C 2.044 231.187,2.351 231.757,2.726 232.027 C 3.101 232.297,3.407 232.695,3.407 232.911 C 3.407 233.128,3.944 233.890,4.600 234.606 C 5.256 235.322,5.792 236.032,5.792 236.182 C 5.792 236.333,5.938 236.457,6.116 236.457 C 6.294 236.457,7.539 237.530,8.882 238.842 C 10.226 240.153,11.466 241.227,11.639 241.227 C 11.812 241.227,12.283 241.533,12.685 241.908 C 13.087 242.283,13.694 242.589,14.034 242.589 C 14.373 242.589,14.651 242.743,14.651 242.930 C 14.651 243.118,15.094 243.271,15.636 243.271 C 16.198 243.271,16.706 243.491,16.818 243.782 C 16.932 244.078,17.441 244.293,18.027 244.293 C 18.584 244.293,19.135 244.446,19.250 244.634 C 19.374 244.833,21.348 244.974,24.020 244.974 C 26.693 244.974,28.667 244.833,28.790 244.634 C 28.906 244.446,29.533 244.293,30.184 244.293 C 30.921 244.293,31.441 244.100,31.563 243.782 C 31.671 243.501,32.050 243.271,32.404 243.271 C 32.759 243.271,33.049 243.118,33.049 242.930 C 33.049 242.743,33.433 242.589,33.901 242.589 C 34.370 242.589,34.753 242.436,34.753 242.249 C 34.753 242.061,35.003 241.908,35.309 241.908 C 35.615 241.908,36.371 241.371,36.990 240.716 C 37.608 240.060,38.212 239.523,38.332 239.523 C 38.610 239.523,39.523 238.616,39.523 238.339 C 39.523 238.066,41.132 236.457,41.406 236.457 C 41.683 236.457,42.589 235.544,42.589 235.264 C 42.589 234.980,43.498 234.072,43.782 234.072 C 44.062 234.072,44.974 233.165,44.974 232.888 C 44.974 232.535,46.623 231.005,47.003 231.005 C 47.199 231.005,47.359 230.845,47.359 230.649 C 47.359 230.269,48.890 228.620,49.242 228.620 C 49.515 228.620,50.426 227.709,50.426 227.436 C 50.426 227.084,52.075 225.554,52.455 225.554 C 52.651 225.554,52.811 225.393,52.811 225.197 C 52.811 224.818,54.341 223.169,54.694 223.169 C 54.971 223.169,55.877 222.256,55.877 221.976 C 55.877 221.692,56.786 220.784,57.070 220.784 C 57.349 220.784,58.262 219.878,58.262 219.600 C 58.262 219.247,59.911 217.717,60.291 217.717 C 60.487 217.717,60.647 217.557,60.647 217.361 C 60.647 216.981,62.178 215.332,62.530 215.332 C 62.803 215.332,63.714 214.421,63.714 214.149 C 63.714 213.796,65.363 212.266,65.743 212.266 C 65.939 212.266,66.099 212.105,66.099 211.910 C 66.099 211.530,67.629 209.881,67.982 209.881 C 68.259 209.881,69.165 208.968,69.165 208.688 C 69.165 208.404,70.073 207.496,70.358 207.496 C 70.637 207.496,71.550 206.590,71.550 206.312 C 71.550 205.960,73.199 204.429,73.579 204.429 C 73.775 204.429,73.935 204.269,73.935 204.073 C 73.935 203.693,75.465 202.044,75.818 202.044 C 76.091 202.044,77.002 201.134,77.002 200.861 C 77.002 200.508,78.651 198.978,79.031 198.978 C 79.226 198.978,79.387 198.818,79.387 198.622 C 79.387 198.242,80.917 196.593,81.269 196.593 C 81.542 196.593,82.453 195.682,82.453 195.409 C 82.453 195.057,84.102 193.526,84.482 193.526 C 84.678 193.526,84.838 193.366,84.838 193.170 C 84.838 192.708,86.404 191.141,86.867 191.141 C 87.063 191.141,87.223 190.981,87.223 190.785 C 87.223 190.405,88.753 188.756,89.106 188.756 C 89.379 188.756,90.290 187.846,90.290 187.573 C 90.290 187.220,91.939 185.690,92.318 185.690 C 92.514 185.690,92.675 185.530,92.675 185.334 C 92.675 184.954,94.205 183.305,94.557 183.305 C 94.830 183.305,95.741 182.394,95.741 182.121 C 95.741 181.769,97.390 180.239,97.770 180.239 C 97.966 180.239,98.126 180.078,98.126 179.882 C 98.126 179.420,99.692 177.853,100.155 177.853 C 100.351 177.853,100.511 177.693,100.511 177.497 C 100.511 177.117,102.041 175.468,102.394 175.468 C 102.725 175.468,103.578 174.530,103.578 174.166 C 103.578 173.466,104.638 173.462,105.205 174.161 C 106.183 175.365,107.749 176.831,108.057 176.831 C 108.217 176.831,108.348 176.992,108.348 177.188 C 108.348 177.650,109.914 179.216,110.376 179.216 C 110.572 179.216,110.733 179.371,110.733 179.560 C 110.733 179.856,113.818 183.033,115.728 184.704 C 116.073 185.005,116.601 185.542,116.902 185.897 C 117.203 186.252,117.740 186.795,118.094 187.105 C 118.449 187.414,119.137 188.104,119.624 188.638 C 120.111 189.172,120.801 189.847,121.157 190.138 C 121.514 190.430,122.110 191.082,122.483 191.586 C 122.855 192.091,123.354 192.504,123.590 192.504 C 123.827 192.504,124.020 192.652,124.020 192.833 C 124.020 193.014,125.099 194.241,126.417 195.559 C 127.735 196.877,128.962 197.956,129.143 197.956 C 129.324 197.956,129.472 198.149,129.472 198.386 C 129.472 198.623,129.885 199.121,130.390 199.493 C 130.895 199.866,131.546 200.460,131.838 200.815 C 132.713 201.879,134.327 203.407,134.576 203.407 C 134.704 203.407,135.004 203.774,135.244 204.221 C 135.484 204.669,136.046 205.232,136.494 205.472 C 136.942 205.711,137.308 206.029,137.308 206.179 C 137.308 206.568,142.037 211.244,142.431 211.244 C 142.612 211.244,142.760 211.400,142.760 211.591 C 142.760 211.783,143.871 213.005,145.230 214.307 C 146.589 215.609,147.853 216.832,148.041 217.024 C 148.228 217.216,148.742 217.719,149.182 218.142 C 149.622 218.564,150.235 219.191,150.544 219.536 C 152.501 221.712,155.414 224.532,155.704 224.532 C 155.893 224.532,156.048 224.680,156.048 224.860 C 156.048 225.254,160.723 229.983,161.113 229.983 C 161.262 229.983,161.580 230.349,161.820 230.797 C 162.059 231.245,162.622 231.808,163.070 232.047 C 163.518 232.287,163.884 232.596,163.884 232.735 C 163.884 233.198,168.067 237.138,168.559 237.138 C 169.096 237.138,170.017 237.943,170.017 238.413 C 170.017 238.579,170.554 238.925,171.210 239.182 C 171.865 239.440,172.402 239.775,172.402 239.927 C 172.402 240.080,172.720 240.204,173.108 240.204 C 173.496 240.204,174.044 240.434,174.325 240.716 C 174.606 240.997,175.361 241.227,176.004 241.227 C 176.646 241.227,177.172 241.380,177.172 241.567 C 177.172 241.779,179.096 241.908,182.263 241.908 C 185.289 241.908,187.439 241.770,187.564 241.567 C 187.680 241.380,188.230 241.227,188.787 241.227 C 189.373 241.227,189.883 241.011,189.996 240.716 C 190.104 240.434,190.559 240.204,191.007 240.204 C 191.456 240.204,191.823 240.051,191.823 239.864 C 191.823 239.676,192.107 239.523,192.455 239.523 C 192.802 239.523,193.500 239.140,194.005 238.671 C 194.511 238.203,195.070 237.819,195.248 237.819 C 195.425 237.819,195.571 237.666,195.571 237.479 C 195.571 237.291,195.731 237.138,195.927 237.138 C 196.389 237.138,197.956 235.572,197.956 235.109 C 197.956 234.913,198.116 234.753,198.312 234.753 C 198.692 234.753,200.341 233.223,200.341 232.870 C 200.341 232.593,201.254 231.687,201.533 231.687 C 201.818 231.687,202.726 230.778,202.726 230.494 C 202.726 230.214,203.632 229.302,203.909 229.302 C 204.183 229.302,205.792 227.692,205.792 227.419 C 205.792 227.141,206.705 226.235,206.985 226.235 C 207.269 226.235,208.177 225.327,208.177 225.043 C 208.177 224.763,209.083 223.850,209.361 223.850 C 209.713 223.850,211.244 222.201,211.244 221.821 C 211.244 221.625,211.404 221.465,211.600 221.465 C 211.980 221.465,213.629 219.935,213.629 219.582 C 213.629 219.305,214.542 218.399,214.821 218.399 C 215.105 218.399,216.014 217.490,216.014 217.206 C 216.014 216.927,216.920 216.014,217.197 216.014 C 217.471 216.014,219.080 214.405,219.080 214.131 C 219.080 213.853,219.993 212.947,220.273 212.947 C 220.557 212.947,221.465 212.039,221.465 211.755 C 221.465 211.475,222.371 210.562,222.649 210.562 C 223.001 210.562,224.532 208.913,224.532 208.533 C 224.532 208.337,224.692 208.177,224.888 208.177 C 225.268 208.177,226.917 206.647,226.917 206.294 C 226.917 206.017,227.829 205.111,228.109 205.111 C 228.393 205.111,229.302 204.203,229.302 203.918 C 229.302 203.639,230.208 202.726,230.485 202.726 C 230.759 202.726,232.368 201.117,232.368 200.843 C 232.368 200.565,233.281 199.659,233.560 199.659 C 233.845 199.659,234.753 198.751,234.753 198.467 C 234.753 198.187,235.659 197.274,235.937 197.274 C 236.289 197.274,237.819 195.625,237.819 195.245 C 237.819 195.050,237.980 194.889,238.176 194.889 C 238.556 194.889,240.204 193.359,240.204 193.006 C 240.204 192.729,241.117 191.823,241.397 191.823 C 241.681 191.823,242.589 190.915,242.589 190.630 C 242.589 190.351,243.496 189.438,243.773 189.438 C 244.047 189.438,245.656 187.829,245.656 187.555 C 245.656 187.277,246.569 186.371,246.848 186.371 C 247.133 186.371,248.041 185.463,248.041 185.179 C 248.041 184.899,248.947 183.986,249.225 183.986 C 249.498 183.986,251.107 182.377,251.107 182.104 C 251.107 181.826,252.020 180.920,252.300 180.920 C 252.420 180.920,252.738 180.701,253.006 180.433 C 253.273 180.165,253.492 179.848,253.492 179.727 C 253.492 179.607,253.711 179.289,253.979 179.022 C 254.247 178.754,254.564 178.535,254.685 178.535 C 254.805 178.535,255.123 178.316,255.391 178.048 C 255.658 177.780,255.877 177.463,255.877 177.342 C 255.877 177.063,256.783 176.150,257.061 176.150 C 257.335 176.150,258.944 174.541,258.944 174.267 C 258.944 173.990,259.857 173.083,260.136 173.083 C 260.421 173.083,261.329 172.175,261.329 171.891 C 261.329 171.611,262.235 170.698,262.512 170.698 C 262.786 170.698,264.395 169.089,264.395 168.816 C 264.395 168.538,265.308 167.632,265.588 167.632 C 265.708 167.632,266.026 167.413,266.294 167.145 C 266.561 166.878,266.780 166.560,266.780 166.440 C 266.780 166.160,267.686 165.247,267.964 165.247 C 268.316 165.247,269.847 163.598,269.847 163.218 C 269.847 163.022,270.007 162.862,270.203 162.862 C 270.583 162.862,272.232 161.332,272.232 160.979 C 272.232 160.702,273.145 159.796,273.424 159.796 C 273.708 159.796,274.617 158.887,274.617 158.603 C 274.617 158.323,275.523 157.411,275.800 157.411 C 276.074 157.411,277.683 155.801,277.683 155.528 C 277.683 155.250,278.596 154.344,278.876 154.344 C 279.160 154.344,280.068 153.436,280.068 153.152 C 280.068 152.872,280.974 151.959,281.252 151.959 C 281.525 151.959,283.135 150.350,283.135 150.076 C 283.135 149.799,284.047 148.893,284.327 148.893 C 284.611 148.893,285.520 147.984,285.520 147.700 C 285.520 147.416,286.428 146.508,286.712 146.508 C 286.996 146.508,287.905 145.599,287.905 145.315 C 287.905 145.036,288.811 144.123,289.088 144.123 C 289.362 144.123,290.971 142.514,290.971 142.240 C 290.971 141.962,291.884 141.056,292.164 141.056 C 292.448 141.056,293.356 140.148,293.356 139.864 C 293.356 139.584,294.262 138.671,294.540 138.671 C 294.813 138.671,296.422 137.062,296.422 136.788 C 296.422 136.511,297.335 135.605,297.615 135.605 C 297.899 135.605,298.807 134.697,298.807 134.412 C 298.807 134.128,299.716 133.220,300.000 133.220 C 300.284 133.220,301.193 132.312,301.193 132.027 C 301.193 131.748,302.099 130.835,302.376 130.835 C 302.650 130.835,304.259 129.226,304.259 128.952 C 304.259 128.674,305.172 127.768,305.451 127.768 C 305.736 127.768,306.644 126.860,306.644 126.576 C 306.644 126.296,307.550 125.383,307.828 125.383 C 308.101 125.383,309.710 123.774,309.710 123.501 C 309.710 123.223,310.623 122.317,310.903 122.317 C 311.187 122.317,312.095 121.409,312.095 121.124 C 312.095 120.840,313.004 119.932,313.288 119.932 C 313.572 119.932,314.480 119.024,314.480 118.739 C 314.480 118.460,315.387 117.547,315.664 117.547 C 315.938 117.547,317.547 115.938,317.547 115.664 C 317.547 115.387,318.460 114.480,318.739 114.480 C 319.024 114.480,319.932 113.572,319.932 113.288 C 319.932 113.008,320.838 112.095,321.116 112.095 C 321.389 112.095,322.998 110.486,322.998 110.213 C 322.998 109.935,323.911 109.029,324.191 109.029 C 324.475 109.029,325.383 108.121,325.383 107.836 C 325.383 107.552,326.292 106.644,326.576 106.644 C 326.855 106.644,327.768 105.738,327.768 105.460 C 327.768 105.187,329.377 103.578,329.651 103.578 C 329.929 103.578,330.835 102.665,330.835 102.385 C 330.835 102.101,331.743 101.193,332.027 101.193 C 332.312 101.193,333.220 100.284,333.220 100.000 C 333.220 99.720,334.126 98.807,334.403 98.807 C 334.677 98.807,336.286 97.198,336.286 96.925 C 336.286 96.647,337.199 95.741,337.479 95.741 C 337.763 95.741,338.671 94.833,338.671 94.549 C 338.671 94.264,339.579 93.356,339.864 93.356 C 340.143 93.356,341.056 92.450,341.056 92.172 C 341.056 91.899,342.665 90.290,342.939 90.290 C 343.217 90.290,344.123 89.377,344.123 89.097 C 344.123 88.813,345.031 87.905,345.315 87.905 C 345.599 87.905,346.508 86.996,346.508 86.712 C 346.508 86.432,347.414 85.520,347.691 85.520 C 347.965 85.520,349.574 83.910,349.574 83.637 C 349.574 83.359,350.487 82.453,350.767 82.453 C 351.051 82.453,351.959 81.545,351.959 81.261 C 351.959 80.981,352.865 80.068,353.143 80.068 C 353.495 80.068,355.026 78.419,355.026 78.039 C 355.026 77.843,355.256 77.683,355.537 77.683 C 355.818 77.683,356.048 77.821,356.048 77.990 C 356.048 78.389,358.408 80.750,358.807 80.750 C 358.976 80.750,359.114 80.910,359.114 81.106 C 359.114 81.568,360.680 83.135,361.143 83.135 C 361.339 83.135,361.499 83.250,361.500 83.390 C 361.500 83.778,363.069 85.520,363.417 85.520 C 363.585 85.520,364.027 85.933,364.400 86.437 C 364.772 86.942,365.367 87.594,365.722 87.886 C 366.076 88.177,366.613 88.701,366.914 89.050 C 367.844 90.127,368.169 90.436,369.109 91.137 C 369.608 91.510,370.017 91.971,370.017 92.164 C 370.017 92.356,370.362 92.772,370.784 93.090 C 371.205 93.407,372.215 94.286,373.027 95.044 C 373.839 95.802,374.721 96.422,374.986 96.422 C 375.251 96.422,375.468 96.587,375.468 96.788 C 375.468 97.259,376.335 98.126,376.807 98.126 C 377.008 98.126,377.172 98.279,377.172 98.467 C 377.172 98.654,377.470 98.807,377.833 98.807 C 378.197 98.807,378.589 98.961,378.705 99.148 C 378.821 99.336,379.678 99.489,380.610 99.489 C 381.802 99.489,382.362 99.641,382.500 100.000 C 382.752 100.655,383.443 100.655,383.986 100.000 C 384.257 99.674,385.011 99.489,386.072 99.489 C 386.986 99.489,387.734 99.336,387.734 99.148 C 387.734 98.961,388.118 98.807,388.586 98.807 C 389.055 98.807,389.438 98.654,389.438 98.467 C 389.438 98.279,389.688 98.126,389.994 98.126 C 390.300 98.126,391.056 97.589,391.675 96.934 C 392.293 96.278,392.897 95.741,393.017 95.741 C 393.295 95.741,394.208 94.834,394.208 94.559 C 394.208 94.444,394.514 94.021,394.889 93.618 C 395.264 93.216,395.571 92.456,395.571 91.929 C 395.571 91.305,395.749 90.971,396.082 90.971 C 396.439 90.971,396.593 90.611,396.593 89.779 C 396.593 89.123,396.746 88.586,396.934 88.586 C 397.139 88.586,397.274 87.173,397.274 85.029 C 397.274 83.025,397.423 81.379,397.615 81.261 C 397.827 81.130,397.956 77.916,397.956 72.751 C 397.956 66.414,398.056 64.419,398.382 64.310 C 398.702 64.204,398.833 62.198,398.911 56.203 C 398.968 51.822,399.157 48.065,399.331 47.856 C 399.854 47.225,399.926 7.076,399.404 6.901 C 399.170 6.822,398.978 6.485,398.978 6.152 C 398.978 5.819,398.595 5.259,398.126 4.907 C 397.658 4.555,397.274 4.140,397.274 3.983 C 397.274 3.655,396.401 2.726,396.092 2.726 C 395.977 2.726,395.554 2.419,395.151 2.044 C 394.749 1.670,394.155 1.363,393.831 1.363 C 393.507 1.363,393.185 1.190,393.114 0.979 C 392.800 0.037,388.025 -0.093,369.193 0.329 M354.344 110.075 C 354.344 110.473,353.505 111.414,353.152 111.414 C 352.872 111.414,351.959 112.320,351.959 112.598 C 351.959 112.871,350.350 114.480,350.076 114.480 C 349.799 114.480,348.893 115.393,348.893 115.673 C 348.893 115.957,347.984 116.865,347.700 116.865 C 347.416 116.865,346.508 117.774,346.508 118.058 C 346.508 118.178,346.289 118.496,346.021 118.764 C 345.753 119.031,345.436 119.250,345.315 119.250 C 345.036 119.250,344.123 120.157,344.123 120.434 C 344.123 120.708,342.514 122.317,342.240 122.317 C 341.962 122.317,341.056 123.230,341.056 123.509 C 341.056 123.794,340.148 124.702,339.864 124.702 C 339.584 124.702,338.671 125.608,338.671 125.886 C 338.671 126.159,337.062 127.768,336.788 127.768 C 336.511 127.768,335.605 128.681,335.605 128.961 C 335.605 129.081,335.386 129.399,335.118 129.667 C 334.850 129.934,334.533 130.153,334.412 130.153 C 334.133 130.153,333.220 131.059,333.220 131.337 C 333.220 131.611,331.611 133.220,331.337 133.220 C 331.059 133.220,330.153 134.133,330.153 134.412 C 330.153 134.697,329.245 135.605,328.961 135.605 C 328.840 135.605,328.523 135.824,328.255 136.092 C 327.987 136.359,327.768 136.677,327.768 136.797 C 327.768 137.082,326.860 137.990,326.576 137.990 C 326.296 137.990,325.383 138.896,325.383 139.173 C 325.383 139.447,323.774 141.056,323.501 141.056 C 323.223 141.056,322.317 141.969,322.317 142.249 C 322.317 142.533,321.409 143.441,321.124 143.441 C 320.845 143.441,319.932 144.347,319.932 144.625 C 319.932 144.899,318.323 146.508,318.049 146.508 C 317.772 146.508,316.865 147.421,316.865 147.700 C 316.865 147.984,315.957 148.893,315.673 148.893 C 315.389 148.893,314.480 149.801,314.480 150.085 C 314.480 150.369,313.572 151.278,313.288 151.278 C 313.008 151.278,312.095 152.184,312.095 152.461 C 312.095 152.735,310.486 154.344,310.213 154.344 C 309.935 154.344,309.029 155.257,309.029 155.537 C 309.029 155.821,308.121 156.729,307.836 156.729 C 307.557 156.729,306.644 157.635,306.644 157.913 C 306.644 158.186,305.035 159.796,304.761 159.796 C 304.484 159.796,303.578 160.708,303.578 160.988 C 303.578 161.272,302.669 162.181,302.385 162.181 C 302.101 162.181,301.193 163.089,301.193 163.373 C 301.193 163.657,300.284 164.566,300.000 164.566 C 299.720 164.566,298.807 165.472,298.807 165.749 C 298.807 166.023,297.198 167.632,296.925 167.632 C 296.578 167.632,295.741 168.578,295.741 168.971 C 295.741 169.171,295.588 169.336,295.400 169.336 C 295.174 169.336,295.060 197.097,295.060 251.939 C 295.060 306.640,295.175 334.614,295.400 334.753 C 295.588 334.869,295.741 335.425,295.741 335.990 C 295.741 337.017,296.392 337.990,297.080 337.990 C 297.280 337.990,297.445 338.105,297.445 338.245 C 297.445 338.386,297.841 338.961,298.324 339.523 L 299.203 340.545 328.095 340.545 L 356.986 340.545 358.723 338.842 C 360.096 337.494,360.461 336.907,360.468 336.031 C 360.473 335.422,360.630 334.923,360.818 334.923 C 361.044 334.923,361.158 297.889,361.158 224.501 L 361.158 114.079 359.654 112.661 C 356.679 109.859,356.465 109.710,355.403 109.710 C 354.821 109.710,354.344 109.875,354.344 110.075 M269.336 195.386 C 268.773 196.033,268.188 196.569,268.034 196.577 C 267.701 196.596,266.780 197.477,266.780 197.776 C 266.780 197.892,266.404 198.363,265.944 198.823 C 265.484 199.283,265.013 199.659,264.897 199.659 C 264.620 199.659,263.714 200.572,263.714 200.852 C 263.714 200.972,263.495 201.290,263.227 201.558 C 262.959 201.825,262.642 202.044,262.521 202.044 C 262.242 202.044,261.329 202.950,261.329 203.228 C 261.329 203.581,259.680 205.111,259.300 205.111 C 259.104 205.111,258.944 205.259,258.944 205.440 C 258.944 205.621,257.865 206.847,256.547 208.165 C 255.229 209.484,254.002 210.562,253.821 210.562 C 253.640 210.562,253.492 210.722,253.492 210.918 C 253.492 211.298,251.962 212.947,251.610 212.947 C 251.332 212.947,250.426 213.860,250.426 214.140 C 250.426 214.260,250.207 214.578,249.939 214.845 C 249.671 215.113,249.354 215.332,249.233 215.332 C 248.954 215.332,248.041 216.238,248.041 216.516 C 248.041 216.631,247.665 217.102,247.205 217.562 C 246.745 218.022,246.274 218.399,246.158 218.399 C 245.906 218.399,244.974 219.300,244.974 219.544 C 244.974 219.869,240.877 223.850,240.541 223.850 C 240.356 223.850,240.204 224.010,240.204 224.206 C 240.204 224.586,238.674 226.235,238.322 226.235 C 238.044 226.235,237.138 227.148,237.138 227.428 C 237.138 227.548,236.919 227.866,236.651 228.133 C 236.384 228.401,236.066 228.620,235.945 228.620 C 235.666 228.620,234.753 229.526,234.753 229.804 C 234.753 229.919,234.377 230.390,233.917 230.850 C 233.457 231.310,232.986 231.687,232.870 231.687 C 232.593 231.687,231.687 232.599,231.687 232.879 C 231.687 233.233,230.745 234.072,230.348 234.072 C 230.147 234.072,229.983 234.195,229.983 234.346 C 229.983 234.782,227.716 237.138,227.296 237.138 C 227.087 237.138,226.917 237.289,226.917 237.475 C 226.917 237.810,222.936 241.908,222.610 241.908 C 222.366 241.908,221.465 242.840,221.465 243.092 C 221.465 243.207,221.089 243.678,220.629 244.138 C 220.169 244.598,219.698 244.974,219.582 244.974 C 219.305 244.974,218.399 245.887,218.399 246.167 C 218.399 246.287,218.180 246.605,217.912 246.873 C 217.644 247.140,217.327 247.359,217.206 247.359 C 216.927 247.359,216.014 248.266,216.014 248.543 C 216.014 248.896,214.365 250.426,213.985 250.426 C 213.789 250.426,213.629 250.586,213.629 250.782 C 213.629 251.162,212.098 252.811,211.746 252.811 C 211.437 252.811,210.562 253.739,210.562 254.066 C 210.562 254.221,210.064 254.568,209.455 254.836 C 208.217 255.382,207.496 255.998,207.496 256.511 C 207.496 256.698,207.151 256.901,206.729 256.961 L 205.963 257.070 205.876 296.578 C 205.799 331.452,205.849 336.121,206.302 336.374 C 206.584 336.532,206.814 336.901,206.814 337.195 C 206.814 338.357,209.470 340.318,211.347 340.541 C 214.962 340.972,267.224 340.578,267.377 340.119 C 267.455 339.885,267.778 339.693,268.096 339.693 C 268.697 339.693,269.847 338.572,269.847 337.986 C 269.847 337.801,269.993 337.649,270.171 337.649 C 271.586 337.649,271.557 339.278,271.466 264.906 C 271.371 187.284,271.542 192.849,269.336 195.386 M116.184 276.641 C 116.184 315.556,116.300 335.636,116.525 335.775 C 116.712 335.891,116.865 336.283,116.865 336.647 C 116.865 337.011,117.019 337.308,117.206 337.308 C 117.394 337.308,117.547 337.615,117.547 337.990 C 117.547 338.365,117.760 338.671,118.021 338.671 C 118.283 338.671,118.584 338.901,118.692 339.182 C 118.800 339.463,119.110 339.693,119.382 339.693 C 119.653 339.693,119.939 339.885,120.017 340.119 C 120.129 340.455,126.187 340.545,148.784 340.545 C 178.736 340.545,179.216 340.523,179.216 339.125 C 179.216 338.875,179.381 338.671,179.581 338.671 C 180.468 338.671,181.601 336.678,181.601 335.118 C 181.601 334.471,181.755 333.847,181.942 333.731 C 182.166 333.593,182.283 321.689,182.283 299.128 L 182.283 264.736 179.216 264.736 C 176.718 264.736,176.150 264.641,176.150 264.225 C 176.150 263.833,175.717 263.714,174.296 263.714 C 173.276 263.714,172.348 263.560,172.232 263.373 C 172.116 263.186,171.340 263.032,170.508 263.032 C 169.676 263.032,168.995 262.879,168.995 262.692 C 168.995 262.504,168.707 262.351,168.355 262.351 C 168.003 262.351,167.525 262.121,167.291 261.840 C 167.058 261.559,166.503 261.329,166.057 261.329 C 165.612 261.329,165.247 261.175,165.247 260.988 C 165.247 260.801,164.864 260.647,164.395 260.647 C 163.927 260.647,163.543 260.494,163.543 260.307 C 163.543 260.119,163.253 259.966,162.898 259.966 C 162.544 259.966,162.165 259.736,162.057 259.455 C 161.950 259.174,161.550 258.944,161.169 258.944 C 160.788 258.944,160.477 258.790,160.477 258.603 C 160.477 258.416,160.247 258.262,159.966 258.262 C 159.685 258.262,159.455 258.109,159.455 257.922 C 159.455 257.734,159.185 257.581,158.854 257.581 C 158.524 257.581,157.966 257.198,157.614 256.729 C 157.262 256.261,156.747 255.877,156.468 255.877 C 156.190 255.877,147.358 247.291,136.843 236.797 C 122.863 222.845,117.518 217.717,116.955 217.717 L 116.184 217.717 116.184 276.641 M90.290 218.683 C 90.290 218.839,88.680 220.564,86.714 222.516 C 84.747 224.468,82.946 226.256,82.710 226.489 C 82.475 226.722,81.923 227.259,81.483 227.682 C 81.043 228.104,80.430 228.742,80.120 229.098 C 79.810 229.455,79.120 230.145,78.587 230.631 C 78.053 231.118,77.363 231.806,77.054 232.161 C 76.744 232.516,76.200 233.052,75.846 233.354 C 75.491 233.655,74.954 234.188,74.653 234.538 C 74.352 234.889,72.596 236.652,70.751 238.457 C 68.905 240.261,67.142 242.029,66.832 242.386 C 66.523 242.743,65.833 243.433,65.299 243.919 C 64.765 244.406,64.075 245.094,63.766 245.449 C 63.456 245.804,62.913 246.340,62.558 246.642 C 62.203 246.943,61.666 247.472,61.365 247.817 C 60.308 249.031,54.110 255.196,53.948 255.196 C 53.706 255.196,52.811 256.134,52.811 256.388 C 52.811 256.791,51.843 257.581,51.350 257.581 C 51.081 257.581,50.331 258.079,49.683 258.688 C 49.035 259.297,48.093 260.013,47.591 260.279 C 47.089 260.545,46.678 260.890,46.678 261.046 C 46.678 261.201,46.295 261.329,45.826 261.329 C 45.296 261.329,44.974 261.522,44.974 261.840 C 44.974 262.121,44.749 262.351,44.474 262.351 C 44.198 262.351,43.427 262.658,42.760 263.032 C 42.093 263.407,41.316 263.714,41.035 263.714 C 40.754 263.714,40.436 263.944,40.328 264.225 C 40.207 264.540,39.689 264.736,38.975 264.736 C 38.340 264.736,37.819 264.889,37.819 265.077 C 37.819 265.264,37.359 265.417,36.797 265.417 C 36.235 265.417,35.775 265.571,35.775 265.758 C 35.775 265.945,35.094 266.099,34.262 266.099 C 33.430 266.099,32.654 266.252,32.538 266.440 C 32.423 266.627,31.412 266.780,30.293 266.780 C 28.798 266.780,28.206 266.916,28.062 267.291 C 27.954 267.572,27.499 267.802,27.050 267.802 L 26.235 267.802 26.235 301.172 C 26.235 323.052,26.352 334.615,26.576 334.753 C 26.763 334.869,26.917 335.378,26.917 335.884 C 26.917 336.512,27.293 337.127,28.102 337.823 C 28.753 338.383,29.290 339.007,29.294 339.210 C 29.320 340.511,30.092 340.545,59.616 340.545 C 84.480 340.545,88.195 340.480,88.684 340.034 C 88.992 339.753,89.441 339.353,89.682 339.146 C 90.871 338.121,91.652 336.866,91.652 335.979 C 91.652 335.420,91.873 334.912,92.164 334.800 C 92.615 334.627,92.675 327.834,92.675 276.501 L 92.675 218.399 91.482 218.399 C 90.826 218.399,90.290 218.526,90.290 218.683 " stroke="none" fill="#04a45c" fill-rule="evenodd"></path><path id="path1" d="" stroke="none" fill="#08a45c" fill-rule="evenodd"></path><path id="path2" d="" stroke="none" fill="#08a45c" fill-rule="evenodd"></path><path id="path3" d="" stroke="none" fill="#08a45c" fill-rule="evenodd"></path><path id="path4" d="" stroke="none" fill="#08a45c" fill-rule="evenodd"></path></g></svg>