<svg id="svg" xmlns="http://www.w3.org/2000/svg" xmlns:xlink="http://www.w3.org/1999/xlink" width="400" height="340.625" viewBox="0, 0, 400,340.625"><g id="svgg"><path id="path0" d="M43.697 0.246 C 43.025 0.330,42.589 0.576,42.589 0.873 C 42.589 1.143,42.411 1.363,42.194 1.363 C 41.450 1.363,39.524 3.883,39.523 4.855 C 39.523 5.371,39.370 5.792,39.182 5.792 C 38.956 5.792,38.842 42.836,38.842 116.242 L 38.842 226.693 40.460 228.195 C 41.350 229.022,42.407 229.992,42.808 230.351 C 43.582 231.045,45.656 231.255,45.656 230.640 C 45.656 230.248,46.493 229.302,46.840 229.302 C 47.192 229.302,48.722 227.653,48.722 227.273 C 48.722 227.077,48.883 226.917,49.079 226.917 C 49.458 226.917,51.107 225.386,51.107 225.034 C 51.107 224.761,52.018 223.850,52.291 223.850 C 52.644 223.850,54.174 222.201,54.174 221.821 C 54.174 221.625,54.334 221.465,54.530 221.465 C 54.992 221.465,56.559 219.899,56.559 219.436 C 56.559 219.240,56.719 219.080,56.915 219.080 C 57.295 219.080,58.944 217.550,58.944 217.197 C 58.944 216.924,59.855 216.014,60.127 216.014 C 60.480 216.014,62.010 214.365,62.010 213.985 C 62.010 213.789,62.171 213.629,62.366 213.629 C 62.746 213.629,64.395 212.098,64.395 211.746 C 64.395 211.473,65.306 210.562,65.579 210.562 C 65.931 210.562,67.462 208.913,67.462 208.533 C 67.462 208.337,67.622 208.177,67.818 208.177 C 68.280 208.177,69.847 206.611,69.847 206.148 C 69.847 205.952,70.007 205.792,70.203 205.792 C 70.583 205.792,72.232 204.262,72.232 203.909 C 72.232 203.636,73.142 202.726,73.415 202.726 C 73.768 202.726,75.298 201.077,75.298 200.697 C 75.298 200.501,75.458 200.341,75.654 200.341 C 76.034 200.341,77.683 198.811,77.683 198.458 C 77.683 198.185,78.594 197.274,78.867 197.274 C 79.219 197.274,80.750 195.625,80.750 195.245 C 80.750 195.050,80.910 194.889,81.106 194.889 C 81.486 194.889,83.135 193.359,83.135 193.006 C 83.135 192.729,84.047 191.823,84.327 191.823 C 84.611 191.823,85.520 190.915,85.520 190.630 C 85.520 190.351,86.426 189.438,86.703 189.438 C 87.056 189.438,88.586 187.789,88.586 187.409 C 88.586 187.213,88.746 187.053,88.942 187.053 C 89.322 187.053,90.971 185.523,90.971 185.170 C 90.971 184.897,91.882 183.986,92.155 183.986 C 92.507 183.986,94.037 182.337,94.037 181.958 C 94.037 181.762,94.198 181.601,94.394 181.601 C 94.774 181.601,96.422 180.071,96.422 179.719 C 96.422 179.441,97.335 178.535,97.615 178.535 C 97.899 178.535,98.807 177.627,98.807 177.342 C 98.807 177.063,99.714 176.150,99.991 176.150 C 100.344 176.150,101.874 174.501,101.874 174.121 C 101.874 173.925,102.034 173.765,102.230 173.765 C 102.693 173.765,104.259 172.199,104.259 171.736 C 104.259 171.540,104.412 171.380,104.600 171.380 C 105.072 171.380,105.072 6.254,104.600 5.963 C 104.412 5.847,104.259 5.316,104.259 4.784 C 104.259 3.852,102.251 1.363,101.499 1.363 C 101.330 1.363,101.193 1.154,101.193 0.899 C 101.193 0.594,100.580 0.362,99.404 0.221 C 97.494 -0.009,45.560 0.015,43.697 0.246 M133.475 0.239 C 132.957 0.320,132.538 0.604,132.538 0.874 C 132.538 1.143,132.221 1.363,131.833 1.363 C 131.012 1.363,130.522 1.817,129.813 3.237 C 129.532 3.799,129.111 4.382,128.876 4.531 C 128.297 4.901,128.244 146.000,128.823 146.357 C 129.249 146.621,130.835 145.869,130.835 145.404 C 130.835 145.056,131.697 144.123,132.018 144.123 C 132.371 144.123,133.901 142.474,133.901 142.094 C 133.901 141.898,134.061 141.738,134.257 141.738 C 134.637 141.738,136.286 140.207,136.286 139.855 C 136.286 139.582,137.197 138.671,137.470 138.671 C 137.822 138.671,139.353 137.022,139.353 136.642 C 139.353 136.446,139.513 136.286,139.709 136.286 C 140.089 136.286,141.738 134.756,141.738 134.403 C 141.738 134.126,142.651 133.220,142.930 133.220 C 143.214 133.220,144.123 132.312,144.123 132.027 C 144.123 131.748,145.029 130.835,145.306 130.835 C 145.659 130.835,147.189 129.186,147.189 128.806 C 147.189 128.610,147.349 128.450,147.545 128.450 C 147.925 128.450,149.574 126.920,149.574 126.567 C 149.574 126.294,150.485 125.383,150.758 125.383 C 151.110 125.383,152.641 123.734,152.641 123.354 C 152.641 123.159,152.801 122.998,152.997 122.998 C 153.377 122.998,155.026 121.468,155.026 121.116 C 155.026 120.838,155.938 119.932,156.218 119.932 C 156.502 119.932,157.411 119.024,157.411 118.739 C 157.411 118.460,158.317 117.547,158.594 117.547 C 158.868 117.547,160.477 115.938,160.477 115.664 C 160.477 115.387,161.390 114.480,161.670 114.480 C 161.954 114.480,162.862 113.572,162.862 113.288 C 162.862 113.008,163.768 112.095,164.046 112.095 C 164.398 112.095,165.928 110.447,165.928 110.067 C 165.928 109.871,166.089 109.710,166.285 109.710 C 166.665 109.710,168.313 108.180,168.313 107.828 C 168.313 107.550,169.226 106.644,169.506 106.644 C 169.790 106.644,170.698 105.736,170.698 105.451 C 170.698 105.172,171.605 104.259,171.882 104.259 C 172.156 104.259,173.765 102.650,173.765 102.376 C 173.765 102.099,174.678 101.193,174.957 101.193 C 175.242 101.193,176.150 100.284,176.150 100.000 C 176.150 99.720,177.056 98.807,177.334 98.807 C 177.686 98.807,179.216 97.159,179.216 96.779 C 179.216 96.583,179.377 96.422,179.573 96.422 C 179.952 96.422,181.601 94.892,181.601 94.540 C 181.601 94.262,182.514 93.356,182.794 93.356 C 183.078 93.356,183.986 92.448,183.986 92.164 C 183.986 91.884,184.892 90.971,185.170 90.971 C 185.444 90.971,187.053 89.362,187.053 89.088 C 187.053 88.811,187.966 87.905,188.245 87.905 C 188.599 87.905,189.438 86.963,189.438 86.566 C 189.438 86.365,189.744 86.201,190.119 86.201 C 190.494 86.201,190.801 86.048,190.801 85.860 C 190.801 85.673,190.974 85.520,191.187 85.520 C 191.399 85.520,191.821 85.235,192.124 84.887 C 192.427 84.539,193.020 84.145,193.441 84.012 L 194.208 83.770 194.208 44.100 C 194.208 17.880,194.092 4.429,193.867 4.429 C 193.680 4.429,193.526 4.178,193.526 3.870 C 193.526 3.342,191.743 1.363,191.267 1.363 C 191.146 1.363,190.850 1.095,190.610 0.767 C 190.195 0.199,136.876 -0.293,133.475 0.239 M222.998 0.251 C 222.402 0.338,221.531 0.885,220.908 1.563 C 220.321 2.202,219.707 2.727,219.545 2.728 C 219.074 2.733,218.399 4.466,218.399 5.670 C 218.399 6.277,218.245 6.869,218.058 6.985 C 217.411 7.385,217.607 75.864,218.256 76.113 C 218.553 76.227,219.932 76.320,221.323 76.320 C 222.780 76.320,223.850 76.464,223.850 76.661 C 223.850 76.850,224.759 77.002,225.894 77.002 C 227.030 77.002,227.939 77.153,227.939 77.342 C 227.939 77.530,228.629 77.683,229.472 77.683 C 230.608 77.683,231.005 77.816,231.005 78.194 C 231.005 78.509,231.325 78.705,231.837 78.705 C 232.294 78.705,232.763 78.859,232.879 79.046 C 232.995 79.233,233.464 79.387,233.921 79.387 C 234.379 79.387,234.753 79.540,234.753 79.727 C 234.753 79.915,235.136 80.068,235.605 80.068 C 236.073 80.068,236.457 80.221,236.457 80.409 C 236.457 80.596,236.747 80.750,237.102 80.750 C 237.456 80.750,237.835 80.980,237.943 81.261 C 238.050 81.542,238.450 81.772,238.831 81.772 C 239.212 81.772,239.523 81.925,239.523 82.112 C 239.523 82.300,239.753 82.453,240.034 82.453 C 240.315 82.453,240.545 82.606,240.545 82.794 C 240.545 82.981,240.791 83.135,241.092 83.135 C 241.393 83.135,241.941 83.518,242.310 83.986 C 242.678 84.455,243.237 84.844,243.551 84.850 C 243.865 84.857,252.707 93.443,263.199 103.930 C 277.151 117.875,282.483 122.998,283.046 122.998 L 283.816 122.998 283.816 64.075 C 283.816 25.160,283.700 5.079,283.475 4.940 C 283.288 4.825,283.135 4.432,283.135 4.068 C 283.135 3.705,282.981 3.407,282.794 3.407 C 282.606 3.407,282.453 3.156,282.453 2.848 C 282.453 2.180,281.494 1.389,280.664 1.374 C 280.336 1.368,280.068 1.153,280.068 0.896 C 280.068 0.622,279.542 0.343,278.790 0.219 C 277.372 -0.016,224.621 0.015,222.998 0.251 M312.351 0.238 C 311.833 0.320,311.414 0.604,311.414 0.874 C 311.414 1.143,311.146 1.363,310.818 1.364 C 310.490 1.364,309.915 1.824,309.540 2.385 C 309.165 2.946,308.744 3.406,308.603 3.406 C 308.463 3.407,308.348 3.927,308.348 4.563 C 308.348 5.277,308.152 5.794,307.836 5.915 C 307.385 6.089,307.325 12.882,307.325 64.214 L 307.325 122.317 308.372 122.317 C 309.416 122.317,310.392 121.670,310.392 120.978 C 310.392 120.778,310.552 120.613,310.748 120.613 C 311.211 120.613,312.777 119.047,312.777 118.584 C 312.777 118.389,312.905 118.228,313.063 118.228 C 313.479 118.228,318.228 113.536,318.228 113.125 C 318.228 112.933,318.376 112.777,318.557 112.777 C 318.986 112.777,323.680 108.084,323.680 107.654 C 323.680 107.473,323.840 107.325,324.036 107.325 C 324.498 107.325,326.065 105.759,326.065 105.297 C 326.065 105.101,326.203 104.940,326.371 104.940 C 326.771 104.940,329.131 102.580,329.131 102.181 C 329.131 102.012,329.291 101.874,329.487 101.874 C 329.950 101.874,331.516 100.308,331.516 99.845 C 331.516 99.649,331.664 99.489,331.845 99.489 C 332.274 99.489,336.968 94.796,336.968 94.366 C 336.968 94.186,337.128 94.037,337.324 94.037 C 337.786 94.037,339.353 92.471,339.353 92.009 C 339.353 91.813,339.491 91.652,339.659 91.652 C 340.059 91.652,342.419 89.292,342.419 88.893 C 342.419 88.724,342.579 88.586,342.775 88.586 C 343.238 88.586,344.804 87.020,344.804 86.557 C 344.804 86.361,344.938 86.201,345.102 86.201 C 345.266 86.201,346.120 85.511,347.000 84.668 C 347.881 83.825,348.756 83.135,348.945 83.135 C 349.135 83.135,349.787 82.623,350.395 81.997 C 351.003 81.371,351.987 80.644,352.581 80.380 C 353.176 80.117,353.663 79.786,353.663 79.644 C 353.663 79.503,353.969 79.387,354.344 79.387 C 354.719 79.387,355.026 79.250,355.026 79.083 C 355.026 78.916,355.409 78.683,355.877 78.565 C 356.346 78.448,356.729 78.201,356.729 78.017 C 356.729 77.834,357.036 77.683,357.411 77.683 C 357.785 77.683,358.092 77.530,358.092 77.342 C 358.092 77.155,358.475 77.002,358.944 77.002 C 359.412 77.002,359.796 76.848,359.796 76.661 C 359.796 76.474,360.260 76.320,360.828 76.320 C 361.432 76.320,361.943 76.108,362.057 75.809 C 362.168 75.521,362.675 75.298,363.219 75.298 C 363.750 75.298,364.279 75.145,364.395 74.957 C 364.511 74.770,365.201 74.617,365.928 74.617 C 366.656 74.617,367.346 74.463,367.462 74.276 C 367.577 74.089,368.643 73.935,369.830 73.935 C 371.434 73.935,372.039 73.804,372.185 73.424 C 372.292 73.143,372.692 72.913,373.073 72.913 C 373.764 72.913,373.765 72.858,373.765 39.523 C 373.765 17.490,373.649 6.133,373.424 6.133 C 373.237 6.133,373.079 5.635,373.073 5.026 C 373.062 3.959,372.433 2.726,371.899 2.726 C 371.758 2.726,371.116 2.151,370.472 1.448 L 369.302 0.170 341.295 0.131 C 325.891 0.109,312.866 0.157,312.351 0.238 M371.210 96.082 C 371.094 96.269,370.654 96.422,370.232 96.422 C 369.811 96.422,369.168 96.648,368.804 96.923 C 368.441 97.198,367.875 97.428,367.547 97.434 C 367.219 97.440,366.951 97.598,366.951 97.785 C 366.951 97.973,366.567 98.126,366.099 98.126 C 365.630 98.126,365.247 98.279,365.247 98.467 C 365.247 98.654,365.012 98.807,364.725 98.807 C 364.438 98.807,364.115 99.037,364.007 99.319 C 363.900 99.600,363.659 99.830,363.473 99.830 C 363.287 99.830,362.706 100.290,362.181 100.852 C 361.655 101.414,361.057 101.874,360.851 101.874 C 360.645 101.874,360.477 102.034,360.477 102.230 C 360.477 102.693,358.911 104.259,358.448 104.259 C 358.252 104.259,358.092 104.427,358.092 104.633 C 358.092 104.839,357.632 105.437,357.070 105.963 C 356.508 106.488,356.048 107.086,356.048 107.292 C 356.048 107.498,355.889 107.666,355.695 107.666 C 355.501 107.666,354.275 108.734,352.970 110.039 C 351.664 111.345,350.596 112.571,350.596 112.765 C 350.596 112.959,350.433 113.118,350.233 113.118 C 350.033 113.118,348.888 114.114,347.688 115.332 C 346.487 116.550,345.348 117.547,345.155 117.547 C 344.962 117.547,344.804 117.715,344.804 117.921 C 344.804 118.127,344.344 118.725,343.782 119.250 C 343.220 119.776,342.760 120.374,342.760 120.580 C 342.760 120.786,342.601 120.954,342.407 120.954 C 341.948 120.954,337.308 125.593,337.308 126.053 C 337.308 126.247,337.150 126.405,336.956 126.405 C 336.496 126.405,331.857 131.045,331.857 131.504 C 331.857 131.698,331.688 131.857,331.483 131.857 C 331.277 131.857,330.678 132.317,330.153 132.879 C 329.628 133.441,329.030 133.901,328.824 133.901 C 328.618 133.901,328.450 134.059,328.450 134.252 C 328.450 134.445,327.453 135.585,326.235 136.785 C 325.017 137.985,324.020 139.130,324.020 139.330 C 324.020 139.530,323.862 139.693,323.668 139.693 C 323.208 139.693,318.569 144.333,318.569 144.792 C 318.569 144.986,318.401 145.145,318.195 145.145 C 317.989 145.145,317.391 145.605,316.865 146.167 C 316.340 146.729,315.742 147.189,315.536 147.189 C 315.330 147.189,315.162 147.347,315.162 147.540 C 315.162 147.733,314.165 148.872,312.947 150.073 C 311.729 151.273,310.733 152.418,310.733 152.618 C 310.733 152.818,310.574 152.981,310.380 152.981 C 309.920 152.981,305.281 157.621,305.281 158.080 C 305.281 158.274,305.118 158.433,304.918 158.433 C 304.718 158.433,303.573 159.429,302.372 160.647 C 301.172 161.865,300.032 162.862,299.840 162.862 C 299.647 162.862,299.489 163.030,299.489 163.236 C 299.489 163.442,299.029 164.040,298.467 164.566 C 297.905 165.091,297.445 165.689,297.445 165.895 C 297.445 166.101,297.215 166.269,296.934 166.269 C 296.652 166.269,296.422 166.422,296.422 166.610 C 296.422 167.270,295.142 166.940,294.254 166.052 C 293.760 165.558,293.356 165.048,293.356 164.917 C 293.356 164.787,292.973 164.476,292.504 164.225 C 292.036 163.974,291.652 163.647,291.652 163.498 C 291.652 163.108,286.924 158.433,286.530 158.433 C 286.349 158.433,286.201 158.272,286.201 158.077 C 286.201 157.614,284.635 156.048,284.172 156.048 C 283.976 156.048,283.816 155.907,283.816 155.736 C 283.816 155.564,283.269 154.913,282.601 154.288 C 281.933 153.663,281.128 152.861,280.812 152.507 C 280.497 152.152,279.948 151.615,279.594 151.314 C 279.239 151.013,278.702 150.485,278.401 150.141 C 276.730 148.230,273.553 145.145,273.257 145.145 C 273.068 145.145,272.913 144.990,272.913 144.801 C 272.913 144.511,270.093 141.599,267.917 139.642 C 267.573 139.332,266.946 138.719,266.523 138.279 C 266.101 137.839,265.598 137.325,265.406 137.138 C 265.213 136.951,263.991 135.686,262.688 134.327 C 261.386 132.968,260.164 131.857,259.973 131.857 C 259.782 131.857,259.625 131.709,259.625 131.528 C 259.625 131.099,254.932 126.405,254.503 126.405 C 254.322 126.405,254.174 126.212,254.174 125.975 C 254.174 125.739,253.761 125.240,253.256 124.868 C 252.751 124.496,252.099 123.901,251.808 123.546 C 250.855 122.387,249.309 120.954,249.012 120.954 C 248.853 120.954,248.722 120.794,248.722 120.598 C 248.722 120.135,247.156 118.569,246.694 118.569 C 246.498 118.569,246.337 118.421,246.337 118.240 C 246.337 117.811,241.644 113.118,241.215 113.118 C 241.034 113.118,240.886 112.963,240.886 112.774 C 240.886 112.471,237.582 109.080,235.890 107.647 C 235.546 107.355,234.959 106.704,234.587 106.199 C 234.215 105.694,233.716 105.281,233.480 105.281 C 233.243 105.281,233.049 105.064,233.049 104.799 C 233.049 104.533,232.589 104.112,232.027 103.864 C 231.465 103.615,231.005 103.295,231.005 103.154 C 231.005 103.012,230.775 102.896,230.494 102.896 C 230.213 102.896,229.983 102.695,229.983 102.449 C 229.983 102.202,229.446 101.791,228.790 101.533 C 228.135 101.276,227.598 100.941,227.598 100.788 C 227.598 100.636,227.300 100.511,226.937 100.511 C 226.573 100.511,226.181 100.358,226.065 100.170 C 225.949 99.983,225.266 99.830,224.548 99.830 C 223.701 99.830,223.173 99.650,223.045 99.319 C 222.883 98.896,221.965 98.807,217.717 98.807 C 213.470 98.807,212.551 98.896,212.389 99.319 C 212.268 99.634,211.750 99.830,211.037 99.830 C 210.401 99.830,209.881 99.983,209.881 100.170 C 209.881 100.358,209.497 100.511,209.029 100.511 C 208.560 100.511,208.177 100.664,208.177 100.852 C 208.177 101.039,207.871 101.193,207.496 101.193 C 207.121 101.193,206.814 101.346,206.814 101.533 C 206.814 101.721,206.580 101.874,206.293 101.874 C 206.006 101.874,205.683 102.104,205.575 102.385 C 205.467 102.666,205.165 102.896,204.904 102.896 C 204.643 102.896,204.429 103.023,204.429 103.179 C 204.429 103.335,204.046 103.668,203.578 103.918 C 203.109 104.169,202.726 104.508,202.726 104.673 C 202.726 105.092,201.128 106.644,200.697 106.644 C 200.501 106.644,200.341 106.792,200.341 106.973 C 200.341 107.402,195.647 112.095,195.218 112.095 C 195.037 112.095,194.889 112.266,194.889 112.475 C 194.889 112.895,192.533 115.162,192.097 115.162 C 191.946 115.162,191.823 115.326,191.823 115.527 C 191.823 115.924,190.984 116.865,190.630 116.865 C 190.351 116.865,189.438 117.772,189.438 118.049 C 189.438 118.402,187.789 119.932,187.409 119.932 C 187.213 119.932,187.053 120.080,187.053 120.261 C 187.053 120.690,182.359 125.383,181.930 125.383 C 181.749 125.383,181.601 125.531,181.601 125.712 C 181.601 126.141,176.908 130.835,176.479 130.835 C 176.298 130.835,176.150 130.995,176.150 131.191 C 176.150 131.571,174.620 133.220,174.267 133.220 C 174.015 133.220,173.083 134.121,173.083 134.365 C 173.083 134.691,168.986 138.671,168.650 138.671 C 168.465 138.671,168.313 138.819,168.313 139.000 C 168.313 139.429,163.620 144.123,163.191 144.123 C 163.010 144.123,162.862 144.283,162.862 144.479 C 162.862 144.859,161.332 146.508,160.979 146.508 C 160.702 146.508,159.796 147.421,159.796 147.700 C 159.796 148.054,158.854 148.893,158.457 148.893 C 158.256 148.893,158.092 149.016,158.092 149.167 C 158.092 149.603,155.825 151.959,155.405 151.959 C 155.197 151.959,155.026 152.107,155.026 152.288 C 155.026 152.717,150.332 157.411,149.903 157.411 C 149.722 157.411,149.574 157.562,149.574 157.747 C 149.574 158.083,145.593 162.181,145.268 162.181 C 145.024 162.181,144.123 163.112,144.123 163.364 C 144.123 163.717,142.474 165.247,142.094 165.247 C 141.898 165.247,141.738 165.395,141.738 165.576 C 141.738 166.005,137.044 170.698,136.615 170.698 C 136.434 170.698,136.286 170.847,136.286 171.027 C 136.286 171.457,131.593 176.150,131.164 176.150 C 130.983 176.150,130.835 176.310,130.835 176.506 C 130.835 176.969,129.268 178.535,128.806 178.535 C 128.610 178.535,128.450 178.683,128.450 178.864 C 128.450 179.293,123.756 183.986,123.327 183.986 C 123.146 183.986,122.998 184.134,122.998 184.315 C 122.998 184.744,118.305 189.438,117.876 189.438 C 117.695 189.438,117.547 189.589,117.547 189.773 C 117.547 190.202,110.462 197.274,110.033 197.274 C 109.855 197.274,109.710 197.422,109.710 197.603 C 109.710 197.784,108.632 199.011,107.314 200.329 C 105.995 201.647,104.769 202.726,104.588 202.726 C 104.407 202.726,104.259 202.877,104.259 203.061 C 104.259 203.490,97.174 210.562,96.745 210.562 C 96.568 210.562,96.422 210.710,96.422 210.891 C 96.422 211.072,95.344 212.299,94.026 213.617 C 92.708 214.935,91.481 216.014,91.300 216.014 C 91.119 216.014,90.971 216.159,90.971 216.336 C 90.971 216.766,83.899 223.850,83.470 223.850 C 83.285 223.850,83.135 223.998,83.135 224.179 C 83.135 224.608,78.441 229.302,78.012 229.302 C 77.831 229.302,77.683 229.448,77.683 229.626 C 77.683 230.051,65.144 242.589,64.720 242.589 C 64.541 242.589,64.395 242.737,64.395 242.918 C 64.395 243.348,59.702 248.041,59.273 248.041 C 59.092 248.041,58.944 248.192,58.944 248.378 C 58.944 248.817,51.884 255.877,51.444 255.877 C 51.259 255.877,51.107 256.025,51.107 256.206 C 51.107 256.635,46.414 261.329,45.985 261.329 C 45.804 261.329,45.656 261.493,45.656 261.694 C 45.656 262.546,44.692 263.074,43.966 262.621 C 43.583 262.382,43.271 262.064,43.271 261.913 C 43.271 261.512,41.660 259.966,41.242 259.966 C 41.046 259.966,40.886 259.828,40.886 259.659 C 40.886 259.260,38.525 256.899,38.126 256.899 C 37.957 256.899,37.819 256.706,37.819 256.469 C 37.819 256.233,37.406 255.734,36.902 255.362 C 36.397 254.990,35.745 254.395,35.453 254.040 C 35.162 253.685,34.633 253.149,34.279 252.847 C 33.150 251.889,31.687 250.333,31.687 250.092 C 31.687 249.964,31.303 249.654,30.835 249.404 C 30.366 249.153,29.983 248.780,29.983 248.575 C 29.983 248.370,29.638 247.943,29.216 247.626 C 28.795 247.309,27.785 246.429,26.973 245.671 C 26.161 244.913,25.345 244.293,25.160 244.293 C 24.712 244.293,23.850 243.413,23.850 242.954 C 23.850 242.754,23.620 242.589,23.339 242.589 C 23.058 242.589,22.828 242.436,22.828 242.249 C 22.828 242.061,22.521 241.908,22.147 241.908 C 21.772 241.908,21.465 241.755,21.465 241.567 C 21.465 241.380,20.688 241.227,19.737 241.227 C 18.635 241.227,17.819 241.036,17.484 240.701 C 17.011 240.228,16.879 240.228,16.158 240.701 C 15.717 240.990,14.661 241.227,13.811 241.227 C 12.961 241.227,12.266 241.380,12.266 241.567 C 12.266 241.755,11.882 241.908,11.414 241.908 C 10.945 241.908,10.562 242.061,10.562 242.249 C 10.562 242.436,10.327 242.589,10.040 242.589 C 9.753 242.589,9.430 242.819,9.323 243.101 C 9.215 243.382,8.975 243.612,8.791 243.612 C 7.984 243.612,4.429 247.773,4.429 248.718 C 4.429 249.251,4.204 249.758,3.918 249.868 C 3.619 249.982,3.407 250.493,3.407 251.097 C 3.407 251.665,3.263 252.129,3.088 252.129 C 2.697 252.129,2.415 257.147,2.191 268.058 C 2.089 273.028,1.890 276.320,1.692 276.320 C 1.490 276.320,1.363 279.413,1.363 284.351 C 1.363 290.728,1.266 292.479,0.892 292.853 C -0.178 293.924,-0.298 333.273,0.767 334.051 C 1.095 334.291,1.363 334.705,1.363 334.971 C 1.363 335.237,1.670 335.675,2.044 335.945 C 2.419 336.216,2.726 336.567,2.726 336.726 C 2.726 337.060,3.596 337.990,3.908 337.990 C 4.023 337.990,4.456 338.308,4.869 338.698 C 6.852 340.563,6.752 340.554,23.330 340.439 C 31.757 340.380,38.813 340.199,39.010 340.036 C 39.206 339.873,43.030 339.691,47.509 339.632 C 53.641 339.550,55.686 339.418,55.793 339.097 C 55.901 338.772,57.867 338.671,64.083 338.671 C 69.288 338.671,72.232 338.548,72.232 338.330 C 72.232 338.114,74.894 337.990,79.537 337.990 C 84.040 337.990,86.923 337.859,87.053 337.649 C 87.169 337.462,88.251 337.308,89.458 337.308 C 91.181 337.308,91.652 337.199,91.652 336.797 C 91.652 336.440,92.012 336.286,92.845 336.286 C 93.501 336.286,94.037 336.133,94.037 335.945 C 94.037 335.758,94.267 335.605,94.549 335.605 C 94.830 335.605,95.060 335.490,95.061 335.349 C 95.061 335.209,95.521 334.787,96.082 334.412 C 96.643 334.037,97.105 333.578,97.109 333.390 C 97.113 333.203,97.496 332.688,97.962 332.247 C 98.427 331.806,98.807 331.154,98.807 330.799 C 98.807 330.444,98.961 330.153,99.148 330.153 C 99.336 330.153,99.489 329.689,99.489 329.120 C 99.489 328.517,99.701 328.006,100.000 327.892 C 100.407 327.735,100.511 327.007,100.511 324.325 C 100.511 321.556,100.420 320.954,100.000 320.954 C 99.682 320.954,99.489 320.632,99.489 320.102 C 99.489 319.634,99.336 319.250,99.148 319.250 C 98.961 319.250,98.807 319.015,98.807 318.727 C 98.807 318.132,97.940 316.698,96.934 315.631 C 96.559 315.232,96.006 314.619,95.705 314.268 C 95.403 313.916,94.867 313.390,94.512 313.098 C 94.157 312.807,93.562 312.155,93.190 311.650 C 92.818 311.146,92.385 310.733,92.229 310.733 C 91.899 310.733,90.971 309.859,90.971 309.549 C 90.971 309.196,89.322 307.666,88.942 307.666 C 88.746 307.666,88.586 307.506,88.586 307.310 C 88.586 306.847,87.020 305.281,86.557 305.281 C 86.361 305.281,86.201 305.121,86.201 304.925 C 86.201 304.545,84.671 302.896,84.318 302.896 C 84.045 302.896,83.135 301.985,83.135 301.712 C 83.135 301.360,81.486 299.830,81.106 299.830 C 80.910 299.830,80.750 299.669,80.750 299.473 C 80.750 299.094,79.219 297.445,78.867 297.445 C 78.236 297.445,77.799 296.560,78.231 296.157 C 78.476 295.928,78.767 295.741,78.877 295.741 C 79.222 295.741,80.750 294.086,80.750 293.712 C 80.750 293.516,80.910 293.356,81.106 293.356 C 81.486 293.356,83.135 291.826,83.135 291.473 C 83.135 291.196,84.047 290.290,84.327 290.290 C 84.611 290.290,85.520 289.381,85.520 289.097 C 85.520 288.817,86.426 287.905,86.703 287.905 C 87.056 287.905,88.586 286.256,88.586 285.876 C 88.586 285.680,88.746 285.520,88.942 285.520 C 89.322 285.520,90.971 283.989,90.971 283.637 C 90.971 283.364,91.882 282.453,92.155 282.453 C 92.507 282.453,94.037 280.804,94.037 280.424 C 94.037 280.228,94.198 280.068,94.394 280.068 C 94.774 280.068,96.422 278.538,96.422 278.185 C 96.422 277.908,97.335 277.002,97.615 277.002 C 97.899 277.002,98.807 276.093,98.807 275.809 C 98.807 275.530,99.714 274.617,99.991 274.617 C 100.344 274.617,101.874 272.968,101.874 272.588 C 101.874 272.392,102.034 272.232,102.230 272.232 C 102.610 272.232,104.259 270.701,104.259 270.349 C 104.259 270.076,105.170 269.165,105.443 269.165 C 105.795 269.165,107.325 267.516,107.325 267.136 C 107.325 266.941,107.486 266.780,107.682 266.780 C 108.061 266.780,109.710 265.250,109.710 264.897 C 109.710 264.620,110.623 263.714,110.903 263.714 C 111.187 263.714,112.095 262.806,112.095 262.521 C 112.095 262.242,113.002 261.329,113.279 261.329 C 113.632 261.329,115.162 259.680,115.162 259.300 C 115.162 259.104,115.322 258.944,115.518 258.944 C 115.898 258.944,117.547 257.414,117.547 257.061 C 117.547 256.788,118.458 255.877,118.731 255.877 C 119.083 255.877,120.613 254.228,120.613 253.849 C 120.613 253.653,120.774 253.492,120.969 253.492 C 121.349 253.492,122.998 251.962,122.998 251.610 C 122.998 251.337,123.909 250.426,124.182 250.426 C 124.535 250.426,126.065 248.777,126.065 248.397 C 126.065 248.201,126.225 248.041,126.421 248.041 C 126.801 248.041,128.450 246.511,128.450 246.158 C 128.450 245.881,129.363 244.974,129.642 244.974 C 129.927 244.974,130.835 244.066,130.835 243.782 C 130.835 243.502,131.741 242.589,132.018 242.589 C 132.371 242.589,133.901 240.941,133.901 240.561 C 133.901 240.365,134.061 240.204,134.257 240.204 C 134.637 240.204,136.286 238.674,136.286 238.322 C 136.286 238.049,137.197 237.138,137.470 237.138 C 137.822 237.138,139.353 235.489,139.353 235.109 C 139.353 234.913,139.513 234.753,139.709 234.753 C 140.089 234.753,141.738 233.223,141.738 232.870 C 141.738 232.593,142.651 231.687,142.930 231.687 C 143.214 231.687,144.123 230.778,144.123 230.494 C 144.123 230.214,145.029 229.302,145.306 229.302 C 145.659 229.302,147.189 227.653,147.189 227.273 C 147.189 227.077,147.349 226.917,147.545 226.917 C 147.925 226.917,149.574 225.386,149.574 225.034 C 149.574 224.761,150.485 223.850,150.758 223.850 C 151.110 223.850,152.641 222.201,152.641 221.821 C 152.641 221.625,152.801 221.465,152.997 221.465 C 153.377 221.465,155.026 219.935,155.026 219.582 C 155.026 219.305,155.938 218.399,156.218 218.399 C 156.502 218.399,157.411 217.490,157.411 217.206 C 157.411 216.927,158.317 216.014,158.594 216.014 C 158.868 216.014,160.477 214.405,160.477 214.131 C 160.477 213.853,161.390 212.947,161.670 212.947 C 161.954 212.947,162.862 212.039,162.862 211.755 C 162.862 211.475,163.768 210.562,164.046 210.562 C 164.398 210.562,165.928 208.913,165.928 208.533 C 165.928 208.337,166.089 208.177,166.285 208.177 C 166.665 208.177,168.313 206.647,168.313 206.294 C 168.313 206.017,169.226 205.111,169.506 205.111 C 169.790 205.111,170.698 204.203,170.698 203.918 C 170.698 203.639,171.605 202.726,171.882 202.726 C 172.156 202.726,173.765 201.117,173.765 200.843 C 173.765 200.565,174.678 199.659,174.957 199.659 C 175.242 199.659,176.150 198.751,176.150 198.467 C 176.150 198.187,177.056 197.274,177.334 197.274 C 177.686 197.274,179.216 195.625,179.216 195.245 C 179.216 195.050,179.377 194.889,179.573 194.889 C 179.952 194.889,181.601 193.359,181.601 193.006 C 181.601 192.729,182.514 191.823,182.794 191.823 C 183.078 191.823,183.986 190.915,183.986 190.630 C 183.986 190.351,184.892 189.438,185.170 189.438 C 185.444 189.438,187.053 187.829,187.053 187.555 C 187.053 187.277,187.966 186.371,188.245 186.371 C 188.530 186.371,189.438 185.463,189.438 185.179 C 189.438 184.899,190.344 183.986,190.621 183.986 C 190.974 183.986,192.504 182.337,192.504 181.958 C 192.504 181.762,192.665 181.601,192.860 181.601 C 193.240 181.601,194.889 180.071,194.889 179.719 C 194.889 179.441,195.802 178.535,196.082 178.535 C 196.366 178.535,197.274 177.627,197.274 177.342 C 197.274 177.063,198.180 176.150,198.458 176.150 C 198.732 176.150,200.341 174.541,200.341 174.267 C 200.341 173.990,201.254 173.083,201.533 173.083 C 201.818 173.083,202.726 172.175,202.726 171.891 C 202.726 171.611,203.632 170.698,203.909 170.698 C 204.183 170.698,205.792 169.089,205.792 168.816 C 205.792 168.538,206.705 167.632,206.985 167.632 C 207.269 167.632,208.177 166.724,208.177 166.440 C 208.177 166.160,209.083 165.247,209.361 165.247 C 209.713 165.247,211.244 163.598,211.244 163.218 C 211.244 163.022,211.404 162.862,211.600 162.862 C 211.980 162.862,213.629 161.332,213.629 160.979 C 213.629 160.702,214.542 159.796,214.821 159.796 C 215.105 159.796,216.014 158.887,216.014 158.603 C 216.014 158.164,217.002 157.411,217.579 157.411 C 217.909 157.411,231.998 171.224,249.461 188.671 C 266.671 205.865,280.943 219.995,281.176 220.072 C 281.410 220.148,282.072 220.723,282.648 221.349 C 283.223 221.975,283.951 222.487,284.266 222.487 C 284.581 222.487,284.838 222.624,284.838 222.790 C 284.838 222.957,285.528 223.297,286.371 223.546 C 287.215 223.795,287.905 224.119,287.905 224.265 C 287.905 224.412,288.425 224.532,289.061 224.532 C 289.774 224.532,290.292 224.727,290.413 225.043 C 290.574 225.463,291.456 225.554,295.400 225.554 C 299.345 225.554,300.226 225.463,300.388 225.043 C 300.516 224.709,301.046 224.532,301.910 224.532 C 302.640 224.532,303.237 224.378,303.237 224.191 C 303.237 224.003,303.620 223.850,304.089 223.850 C 304.557 223.850,304.940 223.697,304.940 223.509 C 304.940 223.322,305.209 223.164,305.537 223.158 C 306.232 223.145,307.325 222.387,307.325 221.917 C 307.325 221.738,307.849 221.387,308.488 221.136 C 309.128 220.885,309.843 220.320,310.079 219.880 C 310.314 219.440,310.641 219.080,310.806 219.080 C 311.225 219.080,312.777 217.482,312.777 217.051 C 312.777 216.855,312.935 216.695,313.129 216.695 C 313.589 216.695,318.228 212.056,318.228 211.596 C 318.228 211.402,318.387 211.244,318.581 211.244 C 319.040 211.244,323.680 206.604,323.680 206.145 C 323.680 205.951,323.840 205.792,324.036 205.792 C 324.498 205.792,326.065 204.226,326.065 203.763 C 326.065 203.567,326.223 203.407,326.417 203.407 C 326.875 203.407,329.131 201.151,329.131 200.693 C 329.131 200.499,329.291 200.341,329.487 200.341 C 329.950 200.341,331.516 198.774,331.516 198.312 C 331.516 198.116,331.675 197.956,331.869 197.956 C 332.328 197.956,336.968 193.316,336.968 192.857 C 336.968 192.663,337.128 192.504,337.324 192.504 C 337.786 192.504,339.353 190.938,339.353 190.475 C 339.353 190.280,339.511 190.119,339.705 190.119 C 340.163 190.119,342.419 187.863,342.419 187.405 C 342.419 187.211,342.579 187.053,342.775 187.053 C 343.238 187.053,344.804 185.487,344.804 185.024 C 344.804 184.828,344.963 184.668,345.157 184.668 C 345.616 184.668,350.256 180.029,350.256 179.569 C 350.256 179.375,350.416 179.216,350.612 179.216 C 351.074 179.216,352.641 177.650,352.641 177.188 C 352.641 176.992,352.799 176.831,352.993 176.831 C 353.451 176.831,355.707 174.575,355.707 174.117 C 355.707 173.923,355.867 173.765,356.063 173.765 C 356.526 173.765,358.092 172.199,358.092 171.736 C 358.092 171.540,358.250 171.380,358.444 171.380 C 358.902 171.380,361.158 169.124,361.158 168.666 C 361.158 168.472,361.319 168.313,361.515 168.313 C 361.977 168.313,363.543 166.747,363.543 166.285 C 363.543 166.089,363.702 165.928,363.896 165.928 C 364.356 165.928,368.995 161.289,368.995 160.829 C 368.995 160.636,369.155 160.477,369.351 160.477 C 369.814 160.477,371.380 158.911,371.380 158.448 C 371.380 158.252,371.538 158.092,371.732 158.092 C 372.190 158.092,374.446 155.836,374.446 155.378 C 374.446 155.184,374.607 155.026,374.803 155.026 C 375.265 155.026,376.831 153.459,376.831 152.997 C 376.831 152.801,376.990 152.641,377.184 152.641 C 377.644 152.641,382.283 148.001,382.283 147.542 C 382.283 147.348,382.443 147.189,382.639 147.189 C 383.101 147.189,384.668 145.623,384.668 145.160 C 384.668 144.964,384.826 144.804,385.020 144.804 C 385.478 144.804,387.734 142.548,387.734 142.090 C 387.734 141.896,387.895 141.738,388.090 141.738 C 388.553 141.738,390.119 140.171,390.119 139.709 C 390.119 139.513,390.283 139.353,390.482 139.353 C 390.682 139.353,391.794 138.369,392.953 137.168 C 396.110 133.894,396.593 133.329,396.593 132.916 C 396.593 132.708,396.746 132.538,396.934 132.538 C 397.121 132.538,397.274 132.308,397.274 132.027 C 397.274 131.746,397.428 131.516,397.615 131.516 C 397.802 131.516,397.956 131.226,397.956 130.871 C 397.956 130.516,398.186 130.138,398.467 130.030 C 398.748 129.922,398.978 129.535,398.978 129.170 C 398.978 128.805,399.170 128.443,399.404 128.365 C 399.728 128.257,399.830 126.379,399.830 120.517 C 399.830 114.807,399.719 112.701,399.404 112.385 C 399.170 112.151,398.978 111.683,398.978 111.346 C 398.978 111.009,398.748 110.733,398.467 110.733 C 398.162 110.733,397.956 110.419,397.956 109.956 C 397.956 109.529,397.649 108.958,397.274 108.688 C 396.899 108.418,396.593 108.033,396.593 107.832 C 396.593 107.632,396.056 106.898,395.400 106.203 C 394.744 105.508,394.208 104.786,394.208 104.599 C 394.208 104.412,394.083 104.259,393.931 104.259 C 393.779 104.259,392.617 103.262,391.350 102.044 C 390.083 100.826,388.751 99.830,388.391 99.830 C 388.030 99.830,387.734 99.655,387.734 99.441 C 387.734 98.918,386.682 98.150,385.945 98.137 C 385.618 98.131,385.349 97.973,385.349 97.785 C 385.349 97.598,384.906 97.445,384.364 97.445 C 383.802 97.445,383.294 97.225,383.182 96.934 C 383.068 96.638,382.559 96.422,381.973 96.422 C 381.416 96.422,380.865 96.269,380.750 96.082 C 380.626 95.882,378.652 95.741,375.980 95.741 C 373.307 95.741,371.333 95.882,371.210 96.082 " stroke="none" fill="#f45434" fill-rule="evenodd"></path><path id="path1" d="" stroke="none" fill="#f85434" fill-rule="evenodd"></path><path id="path2" d="" stroke="none" fill="#f85434" fill-rule="evenodd"></path><path id="path3" d="" stroke="none" fill="#f85434" fill-rule="evenodd"></path></g></svg>