<svg width="16" height="16" viewBox="0 0 16 16" fill="none" xmlns="http://www.w3.org/2000/svg">
<path fill-rule="evenodd" clip-rule="evenodd" d="M6.47126 12.9425C10.0452 12.9425 12.9425 10.0452 12.9425 6.47126C12.9425 2.89728 10.0452 0 6.47126 0C2.89728 0 0 2.89728 0 6.47126C0 10.0452 2.89728 12.9425 6.47126 12.9425ZM6.47126 10.9514C8.94555 10.9514 10.9514 8.94555 10.9514 6.47126C10.9514 3.99697 8.94555 1.99116 6.47126 1.99116C3.99697 1.99116 1.99116 3.99697 1.99116 6.47126C1.99116 8.94555 3.99697 10.9514 6.47126 10.9514Z" fill="#9392AF"/>
<rect x="8.96021" y="10.3682" width="1.99116" height="7.96462" transform="rotate(-45 8.96021 10.3682)" fill="#9392AF"/>
</svg>
